<svg xmlns="http://www.w3.org/2000/svg" width="475.965" height="339" viewBox="0 0 475.965 339">
  <g id="designer__two_color" transform="translate(-52.027 -51.531)">
    <ellipse id="Ellipse_10" data-name="Ellipse 10" cx="237.982" cy="27.005" rx="237.982" ry="27.005" transform="translate(52.027 336.52)" fill="#e6e6e6" opacity="0.3"/>
    <path id="Path_82" data-name="Path 82" d="M124.732,201.8s-35.361,16.936-39.974,55.964-17.643,114.393,78.28,110.095,141.157-9.648,118.54-82.939S124.732,201.8,124.732,201.8Z" fill="#ffd200"/>
    <path id="Path_83" data-name="Path 83" d="M121.11,222.068a27.922,27.922,0,0,0,12.759,28.673c13.014,8.581,33.061,39.073,48.585,54.491a25.4,25.4,0,0,1,7.514,18.379c0,2.78,1.127,5.861,4.794,8.866,10.79,8.821,56.069,13.225,81.391-13.916s-8.07-40.575-8.07-40.575l-111.3-60.247Z" opacity="0.09"/>
    <path id="Path_84" data-name="Path 84" d="M367.132,354.93s2.359,6.011,8.28,7.3,9.137,8.626-3.8,7.514-20.047.842-18.184-6.267,1.022-8.175,1.022-8.175Z" fill="#f4a28c"/>
    <path id="Path_85" data-name="Path 85" d="M280.241,349.925s-.992,6.327,3.411,10.52,3.471,12.022-7.063,4.508-17.673-9.483-12.458-14.652,5.034-6.522,5.034-6.522Z" fill="#f4a28c"/>
    <path id="Path_86" data-name="Path 86" d="M291.542,259.983s79.122.811,78.356,95.172l-18.665,3.171s-3.592-99.65-106.413-52.177l5.365-39.253Z" fill="#24285b"/>
    <path id="Path_87" data-name="Path 87" d="M291.542,259.983s79.122.811,78.356,95.172l-18.665,3.171s-3.592-99.65-106.413-52.177l5.365-39.253Z" opacity="0.09"/>
    <path id="Path_88" data-name="Path 88" d="M297.748,173.122l6.868,1.833-4.884-5.26Z" fill="#ffd200"/>
    <path id="Path_89" data-name="Path 89" d="M189.818,219.829s13.675,34.564,47.052,28.478,46.061-76.1,46.061-76.1,13.195-8.581,6.808-18.154-16.771,11.136-16.771,11.136-14.382,59-45.5,39.869Z" fill="#f4a28c"/>
    <path id="Path_90" data-name="Path 90" d="M189.818,219.829s13.675,34.564,47.052,28.478,46.061-76.1,46.061-76.1,13.195-8.581,6.808-18.154-16.771,11.136-16.771,11.136-14.382,59-45.5,39.869Z" opacity="0.09"/>
    <path id="Path_91" data-name="Path 91" d="M190.239,149.618l7.213,1.5s55.754,30.266,45.384,60.578,12.278,59.09,12.278,59.09l-48.48,34.143s-63.328-31.423-53.845-117.984C152.789,186.947,157.192,146.628,190.239,149.618Z" fill="#68e1fd"/>
    <rect id="Rectangle_109" data-name="Rectangle 109" width="10.144" height="86.606" transform="translate(309.223 162.333) rotate(25.68)" fill="#e6e6e6"/>
    <path id="Path_92" data-name="Path 92" d="M447.832,348.648s-15.389-4.208-18.74-18.529c0,0,23.849-4.824,24.526,19.792Z" fill="#68e1fd" opacity="0.58"/>
    <path id="Path_93" data-name="Path 93" d="M449.681,347.145s-10.76-17-1.292-32.9c0,0,18.139,11.511,10.084,32.941Z" fill="#68e1fd" opacity="0.73"/>
    <path id="Path_94" data-name="Path 94" d="M452.446,347.145s5.681-17.958,22.857-21.355c0,0,3.231,11.662-11.121,21.4Z" fill="#68e1fd"/>
    <path id="Path_95" data-name="Path 95" d="M441.28,346.709l3.126,21.355,19.656.075,2.9-21.325Z" fill="#24285b"/>
    <rect id="Rectangle_110" data-name="Rectangle 110" width="109.073" height="76.372" transform="translate(305.383 51.531)" fill="#e6e6e6" opacity="0.66"/>
    <rect id="Rectangle_111" data-name="Rectangle 111" width="98.508" height="68.978" transform="translate(413.809 158.515)" fill="#e6e6e6" opacity="0.43"/>
    <circle id="Ellipse_11" data-name="Ellipse 11" cx="12.729" cy="12.729" r="12.729" transform="translate(321.432 61.569)" fill="#e6e6e6"/>
    <rect id="Rectangle_112" data-name="Rectangle 112" width="35.842" height="49.788" transform="translate(362.474 63.493)" fill="#c1c1c1" opacity="0.45"/>
    <rect id="Rectangle_113" data-name="Rectangle 113" width="24.616" height="16.696" transform="translate(323.626 96.584)" fill="#c1c1c1"/>
    <path id="Path_96" data-name="Path 96" d="M187.594,111.6l-10.039,35.391,19.9,4.133-.676-27.411Z" fill="#f4a28c"/>
    <path id="Path_97" data-name="Path 97" d="M197.181,129.706a13.36,13.36,0,0,1-6.011-4.674s-.511,6.717,6.011,14.186Z" fill="#ce8172" opacity="0.31"/>
    <path id="Path_98" data-name="Path 98" d="M208.2,112.709s-.992,11.181-4.148,18.169a5.621,5.621,0,0,1-7.514,2.8c-3.5-1.638-7.754-4.869-7.95-10.925l-1.593-10.234a10.1,10.1,0,0,1,6.252-9.828C200.307,99.184,209.144,105.857,208.2,112.709Z" fill="#f4a28c"/>
    <path id="Path_99" data-name="Path 99" d="M194.777,120.013s.676-4.268-2.585-4.508-4.268,5.921,0,7.258Z" fill="#f4a28c"/>
    <path id="Path_100" data-name="Path 100" d="M207.205,119.637l2.329,4.809a1.8,1.8,0,0,1-1.608,2.585h-4.358Z" fill="#f4a28c"/>
    <rect id="Rectangle_114" data-name="Rectangle 114" width="39.644" height="3.952" transform="matrix(0.866, 0.5, -0.5, 0.866, 265.408, 149.872)" fill="#24285b"/>
    <path id="Path_101" data-name="Path 101" d="M217.755,286.132l-11.121,18.8s-40.32-19.536-51.876-72.4,26.569-32.265,26.569-32.265Z" opacity="0.18"/>
    <path id="Path_102" data-name="Path 102" d="M206.634,304.932s37.359-76.162,92.6-75.876-16.531,122.9-16.531,122.9l-18.214-7.409s27.05-52.6,20.167-69.534S267.257,374.9,206.634,304.932Z" fill="#24285b"/>
    <path id="Path_103" data-name="Path 103" d="M174.67,153.886s16.621-8.431,25.067,8.7,1.788,90.814,36.067,94.676,51.666-31.844,51.666-31.844,2.825-15.028,7.514-17.523,8.821,13.3,0,22.542c0,0-15.118,56.791-63.117,58.068S127.347,192.778,174.67,153.886Z" fill="#f4a28c"/>
    <path id="Path_104" data-name="Path 104" d="M208.272,98.132s10.925,12.849-3.216,15.539-17.057,5.23-15.7,19.536,6.958,27.486-11.8,36.458-2.63,24.045-6.086,41.627-19.942,29.725-41.056,17.733S96.269,186.346,118.9,167.967,170,145.125,170,115.49,193.65,84.322,208.272,98.132Z" fill="#24285b"/>
    <circle id="Ellipse_12" data-name="Ellipse 12" cx="15.238" cy="15.238" r="15.238" transform="translate(429.874 178.592)" fill="#c1c1c1" opacity="0.43"/>
    <rect id="Rectangle_115" data-name="Rectangle 115" width="26.494" height="26.494" transform="translate(443.279 170.477)" fill="#c1c1c1" opacity="0.43"/>
    <rect id="Rectangle_116" data-name="Rectangle 116" width="19.762" height="43.912" transform="translate(478.429 170.477)" fill="#c1c1c1" opacity="0.43"/>
    <rect id="Rectangle_117" data-name="Rectangle 117" width="14.983" height="8.461" transform="translate(284.628 224.105) rotate(20.87)" fill="#68e1fd"/>
    <rect id="Rectangle_118" data-name="Rectangle 118" width="14.983" height="8.461" transform="translate(284.628 224.105) rotate(20.87)" fill="#fff" opacity="0.44"/>
  </g>
</svg>
