<svg xmlns="http://www.w3.org/2000/svg" width="466.172" height="339" viewBox="0 0 466.172 339">
  <g id="family__two_color" transform="translate(-55.914 -39.85)">
    <path id="Path_132" data-name="Path 132" d="M143.831,66.529A130.766,130.766,0,0,0,57.045,171.816c-5.662,41.234,7.884,86.8,87.55,99.78,155.056,25.267,300.26,32.472,337.318-35.685S507.577,50.959,428.9,43.456C366.351,37.455,233.561,35.388,143.831,66.529Z" fill="#e6e6e6" opacity="0.3"/>
    <path id="Path_133" data-name="Path 133" d="M377.5,117.488s-15.344,20.865.227,27.206,16.887-16.76,16.887-16.76l-7.078-15.571Z" fill="#ffd200"/>
    <path id="Path_134" data-name="Path 134" d="M210.148,122.343s35.883,24.786,44.546,69.233,41.928,53.79,41.928,53.79l-1.416,9.045s-63.613-4.7-75.532-70.479Z" fill="#f4a28c"/>
    <path id="Path_135" data-name="Path 135" d="M395.284,142.076s-40.172,16.986-57.682,58.758-51.964,44.235-51.964,44.235l-.425,9.13s63.245,8.309,88.258-53.677Z" fill="#f4a28c"/>
    <ellipse id="Ellipse_18" data-name="Ellipse 18" cx="227.262" cy="21.657" rx="227.262" ry="21.657" transform="translate(67.563 335.535)" fill="#e6e6e6" opacity="0.45"/>
    <path id="Path_136" data-name="Path 136" d="M382.884,132.408l19.662.623s59.013,15.2,25.946,83.516c-5.237,10.815-4.813,23.54-5.1,35.544l-.085,3.114h-51.85l-2.7-11.183a91.923,91.923,0,0,0-16.618-34.072C342.117,196.757,335.039,170.613,382.884,132.408Z" fill="#68e1fd"/>
    <path id="Path_137" data-name="Path 137" d="M194.068,81.378s0,8.493-2.024,13.9a4.247,4.247,0,0,1-5.45,2.548,9.385,9.385,0,0,1-6.625-7.729l-1.8-7.587a7.573,7.573,0,0,1,4.105-7.757C187.344,71.8,194.379,76.24,194.068,81.378Z" fill="#f4a28c"/>
    <path id="Path_138" data-name="Path 138" d="M178.483,83.884l-6.95,26.81,15.047,2.789L185.6,92.844Z" fill="#f4a28c"/>
    <path id="Path_139" data-name="Path 139" d="M191.959,81.534a34.328,34.328,0,0,1-7.7-1.416,7.078,7.078,0,0,1-.75,7.7,5.747,5.747,0,0,1-7.078,1.614l1.189-10.8a8.578,8.578,0,0,1,4.983-7.148,30.658,30.658,0,0,1,3.779-1.416c3.227-.948,7.587,1.557,10.574-.269a2.038,2.038,0,0,1,3.1,1.642c.17,3.341-.92,8.493-5.549,9.824A7.715,7.715,0,0,1,191.959,81.534Z" fill="#ffd200"/>
    <path id="Path_140" data-name="Path 140" d="M184.442,87.762s.241-3.242-2.208-3.227-2.831,4.7.41,5.464Z" fill="#f4a28c"/>
    <path id="Path_141" data-name="Path 141" d="M193.756,86.7l2.024,3.468a1.415,1.415,0,0,1-1.048,2.038l-3.27.3Z" fill="#f4a28c"/>
    <path id="Path_142" data-name="Path 142" d="M186.013,97.359a10.079,10.079,0,0,1-4.643-3.411S181.1,99,186.155,104.522Z" fill="#ce8172" opacity="0.31"/>
    <path id="Path_143" data-name="Path 143" d="M373.556,103.333s.3,7.856,2.251,12.853a3.935,3.935,0,0,0,5.124,2.222,8.691,8.691,0,0,0,5.945-7.347l1.486-7.078a7.078,7.078,0,0,0-4.02-7.078C379.557,94.316,373.145,98.605,373.556,103.333Z" fill="#f4a28c"/>
    <path id="Path_144" data-name="Path 144" d="M388.093,105.3l7.148,24.715-13.9,2.973.382-19.18Z" fill="#f4a28c"/>
    <path id="Path_145" data-name="Path 145" d="M382.672,109s-.311-3.015,1.968-3.058,2.76,4.247-.255,5.082Z" fill="#f4a28c"/>
    <path id="Path_146" data-name="Path 146" d="M373.994,108.316l-1.8,3.27a1.274,1.274,0,0,0,1.033,1.868l3.043.184Z" fill="#f4a28c"/>
    <path id="Path_147" data-name="Path 147" d="M381.454,118a9.356,9.356,0,0,0,4.247-3.284s.382,4.7-4.247,9.909Z" fill="#ce8172" opacity="0.31"/>
    <path id="Path_148" data-name="Path 148" d="M371.744,91.867a7.545,7.545,0,0,0,1.812,12.3,21.233,21.233,0,0,0,5.8,1.911c8.493,1.628,4.247,38.814,22.082,33.576s12.074-12.952,3.992-19.817S393.982,100.021,390.9,93.566C388.631,88.8,377.151,87.1,371.744,91.867Z" fill="#ffd200"/>
    <path id="Path_149" data-name="Path 149" d="M210.148,122.343s38.4,22.974,48.524,71.158l-37.143,9.909Z" fill="#68e1fd"/>
    <path id="Path_150" data-name="Path 150" d="M210.148,122.343s38.4,22.974,48.524,71.158l-37.143,9.909Z" fill="#fff" opacity="0.46"/>
    <path id="Path_151" data-name="Path 151" d="M134.729,132.62a42.154,42.154,0,0,1,44.815-20.794l6.681,1.231s47.151,6.894,44.263,50.322-27.433,74.428-27.433,74.428l-63.7-7.233S115.365,168.447,134.729,132.62Z" fill="#68e1fd"/>
    <path id="Path_152" data-name="Path 152" d="M224.7,344.679,203.056,237.807l-63.7-7.233L149.479,348.4h11.89L170,271.964a17.354,17.354,0,0,1,5.195-10.531h0a4.643,4.643,0,0,1,7.573,1.741l31.141,85.271Z" fill="#24285b"/>
    <path id="Path_153" data-name="Path 153" d="M167.343,132.719s4.247,33.194-3.723,63.557,0,37.087,0,37.087l-24.205-2.831s-5.308-13.462-6.271-20.284S132.762,128.812,167.343,132.719Z" opacity="0.08"/>
    <path id="Path_154" data-name="Path 154" d="M147.313,117.927c-16.25,8.932-37.766,28.027-40.427,66.926L148.8,191.6s17.538-30.165,18.671-61.434a13.575,13.575,0,0,0-20.157-12.244Z" fill="#68e1fd"/>
    <path id="Path_155" data-name="Path 155" d="M147.313,117.927c-16.25,8.932-37.766,28.027-40.427,66.926L148.8,191.6s17.538-30.165,18.671-61.434a13.575,13.575,0,0,0-20.157-12.244Z" fill="#fff" opacity="0.46"/>
    <path id="Path_156" data-name="Path 156" d="M110.849,185.433s-9.64,56.621,1.812,91.867h9.158s.793-55.545,20.652-86.771Z" fill="#f4a28c"/>
    <path id="Path_157" data-name="Path 157" d="M112.661,277.357s1.062,19.265,12.1,13.971-2.944-13.971-2.944-13.971Z" fill="#f4a28c"/>
    <rect id="Rectangle_123" data-name="Rectangle 123" width="14.212" height="6.058" transform="translate(110.158 274.473) rotate(-8.35)" fill="#24285b"/>
    <path id="Path_158" data-name="Path 158" d="M285.369,237.057s4.94-2.293,8.79,5.9-10.234,3.128-10.234,3.128Z" fill="#f4a28c"/>
    <path id="Path_159" data-name="Path 159" d="M151.362,348.289s-3.043,4.9-7.913,4.247-7.078,3.794-3.086,5.931,16.321-1.019,16.321-1.019L158.1,348.6Z" fill="#68e1fd"/>
    <path id="Path_160" data-name="Path 160" d="M222.9,346.8s3.043,4.884,7.913,4.247,7.078,3.779,3.086,5.931-16.321-1.019-16.321-1.019l-1.486-8.847Z" fill="#68e1fd"/>
    <path id="Path_161" data-name="Path 161" d="M280.655,201.372s-4.8,20.525,4.473,20.681,6.865-20.681,6.865-20.681Z" fill="#f4a28c"/>
    <path id="Path_162" data-name="Path 162" d="M290.436,218.231l1.826,13.136s3.383,5.45-3.638,6.625-9.541-1.755-5.068-6.441l1.175-13.32Z" fill="#f4a28c"/>
    <path id="Path_163" data-name="Path 163" d="M292.262,207.19s4.94,0,4.36,4.53-6.242,0-6.242,0Z" fill="#f4a28c"/>
    <path id="Path_164" data-name="Path 164" d="M292.262,231.367s14.905-.3,16.321,14.382-4.7,30.943-4.7,30.943l-32.911-1.571s-15.571-39.535,12.612-43.57Z" fill="#68e1fd"/>
    <path id="Path_165" data-name="Path 165" d="M278.688,292.531l2.633,59.919h10.942l3.411-59.919Z" fill="#f4a28c"/>
    <path id="Path_166" data-name="Path 166" d="M277.782,201.372l-1.2,6.894h15.245l-.524,7.545s8.352-10.447,5.365-16.7S281.151,188.7,277.782,201.372Z" fill="#ffd200"/>
    <circle id="Ellipse_19" data-name="Ellipse 19" cx="5.407" cy="5.407" r="5.407" transform="translate(292.262 189.34)" fill="#ffd200"/>
    <path id="Path_167" data-name="Path 167" d="M270.945,275.12l-15.457,44.15,58.772,1.274-10.4-43.853Z" fill="#24285b"/>
    <path id="Path_168" data-name="Path 168" d="M416.573,272.261l2.463,81.378-5.237,1.614-17.708-76.735Z" fill="#f4a28c"/>
    <path id="Path_169" data-name="Path 169" d="M418.895,352.464s3.242,3.723,7.148,3.341,4.742,5.124-1.571,4.855a35.385,35.385,0,0,1-5.846-.708,10.235,10.235,0,0,0-5.294.439,1.713,1.713,0,0,1-1.826-.623c-1.883-2.01,2.265-7.078,2.265-7.078Z" fill="#68e1fd"/>
    <path id="Path_170" data-name="Path 170" d="M375.707,272.388l-18.77,79.227,4.813,2.619,32.755-71.611Z" fill="#f4a28c"/>
    <path id="Path_171" data-name="Path 171" d="M357.32,350.469s-3.935,3-7.672,1.854-5.662,4.063.566,5.068a34.934,34.934,0,0,0,5.874.467,10.263,10.263,0,0,1,5.1,1.5,1.684,1.684,0,0,0,1.911-.255c2.251-1.585-.807-7.361-.807-7.361Z" fill="#68e1fd"/>
    <path id="Path_172" data-name="Path 172" d="M400.918,159.388s-6.879,27.079,4.247,45.509-9.144,44.7-9.144,44.7l27.433-.948s1.67-25.239,8.04-46.868S400.918,159.388,400.918,159.388Z" opacity="0.08"/>
    <path id="Path_173" data-name="Path 173" d="M370.342,250.5l53.181-1.854,9.569,88.442H395.241l-.623-66.048Z" fill="#24285b"/>
    <path id="Path_174" data-name="Path 174" d="M370.342,250.5l-25.508,83.785,36.138,2.8,20.751-75.716Z" fill="#24285b"/>
    <path id="Path_175" data-name="Path 175" d="M277.145,233.377s-15.273,4.431-16.349,17.765,18.628,45.183,18.628,45.183l5.945-2.463S264.943,256.8,277.145,233.377Z" fill="#68e1fd"/>
    <path id="Path_176" data-name="Path 176" d="M277.145,233.377s-15.273,4.431-16.349,17.765,18.628,45.183,18.628,45.183l5.945-2.463S264.943,256.8,277.145,233.377Z" fill="#fff" opacity="0.46"/>
    <path id="Path_177" data-name="Path 177" d="M300.005,233.377s15.273,4.4,16.349,17.765-18.628,45.183-18.628,45.183l-5.945-2.463S312.207,256.8,300.005,233.377Z" fill="#68e1fd"/>
    <path id="Path_178" data-name="Path 178" d="M300.005,233.377s15.273,4.4,16.349,17.765-18.628,45.183-18.628,45.183l-5.945-2.463S312.207,256.8,300.005,233.377Z" fill="#fff" opacity="0.46"/>
    <path id="Path_179" data-name="Path 179" d="M280.556,295.844s5.237,8.125,8.819,6.469-4.006-8.493-4.006-8.493Z" fill="#f4a28c"/>
    <path id="Path_180" data-name="Path 180" d="M291.781,293.862s-6.78,7.969-1.812,8.691,6.681-6.681,6.681-6.681l-4.247-1.755Z" fill="#f4a28c"/>
    <path id="Path_181" data-name="Path 181" d="M402.9,152.763a15.288,15.288,0,0,1,24.29-4.133c8.182,7.8,18.4,21.728,23.767,45.155,9.64,42.65-45.721,88.428-45.721,88.428s-6.766,12.542-14.014,9.64,6.865-15.826,6.865-15.826,25.762-23.427,21.969-57.06C416.97,191.647,393.656,171.476,402.9,152.763Z" fill="#f4a28c"/>
    <path id="Path_182" data-name="Path 182" d="M282.509,351.049a22.832,22.832,0,0,0-6.681,2.944,2.633,2.633,0,0,0,1.628,4.7h20.256a2.123,2.123,0,0,0,1.812-3.256,10.928,10.928,0,0,0-4.742-3.567,13.39,13.39,0,0,0-5.662-1.2H285.2a9.571,9.571,0,0,0-2.689.382Z" fill="#68e1fd"/>
  </g>
</svg>
