<svg xmlns="http://www.w3.org/2000/svg" width="369.905" height="339" viewBox="0 0 369.905 339">
  <g id="creative_process_two_color" transform="translate(-81.691 -37.919)">
    <ellipse id="Ellipse_13" data-name="Ellipse 13" cx="184.952" cy="23.136" rx="184.952" ry="23.136" transform="translate(81.691 330.647)" fill="#e6e6e6" opacity="0.45"/>
    <path id="Path_105" data-name="Path 105" d="M281.158,164.561a84.367,84.367,0,0,1,27.5,51.956c4.422,33.672,47.229,8.317,59.525-28.543L380,195.848s-18.16,62.838-71.336,65.431S236.438,178.534,281.158,164.561Z" fill="#68e1fd"/>
    <path id="Path_106" data-name="Path 106" d="M281.158,164.561a84.367,84.367,0,0,1,27.5,51.956c4.422,33.672,47.229,8.317,59.525-28.543L380,195.848s-18.16,62.838-71.336,65.431S236.438,178.534,281.158,164.561Z" fill="#fff" opacity="0.46"/>
    <path id="Path_107" data-name="Path 107" d="M174.805,106.547c-27.725,13.336-47.423,45.233-50.1,82.98-2.26,31.884,9.149,77.74,58.389,85.85,95.817,15.734,196.112,23.677,216.822-29.555s-2.537-159.737-51-163.688C310.38,79.016,228.924,80.485,174.805,106.547Z" fill="#e6e6e6" opacity="0.3"/>
    <path id="Path_108" data-name="Path 108" d="M263.192,117.65a47.229,47.229,0,0,1,4.353,11.741,3.784,3.784,0,0,1-3.174,4.339,8.317,8.317,0,0,1-8.512-3.2l-4.672-5.171a6.779,6.779,0,0,1-.111-7.832C253.807,113.034,261.224,113.478,263.192,117.65Z" fill="#f4a28c"/>
    <path id="Path_109" data-name="Path 109" d="M254.694,126.328l-5.933,24.024,13.474,2.315-1.067-17.952Z" fill="#f4a28c"/>
    <path id="Path_110" data-name="Path 110" d="M265.216,121.989l3.091,1.844a1.22,1.22,0,0,1,0,2.052l-2.384,1.65Z" fill="#f4a28c"/>
    <path id="Path_111" data-name="Path 111" d="M261.237,133.772s-4.949-1.067-6.585-2.62c0,0,.457,11.256,7.056,12.726Z" fill="#ce8172" opacity="0.31"/>
    <path id="Path_112" data-name="Path 112" d="M252.476,124.055s-4.048-1.3-4.741,1.844,3.812,4.478,6.127,2.135a6.086,6.086,0,0,1-1.386-3.979Z" fill="#f4a28c"/>
    <rect id="Rectangle_119" data-name="Rectangle 119" width="87.5" height="62.533" transform="translate(284.817 347.808) rotate(180)" fill="#e6e6e6"/>
    <path id="Path_113" data-name="Path 113" d="M261.723,347.822l4.2-55.062,17.564,2.675,1.248,16.7.083,35.682Z" opacity="0.08"/>
    <path id="Path_114" data-name="Path 114" d="M263.913,340.586S265.8,345.8,270.5,346.2s5.947,5,1.719,6.2-15.165-4.242-15.165-4.242l.3-6.793Z" fill="#68e1fd"/>
    <path id="Path_115" data-name="Path 115" d="M323.424,341.14s5.171,1.955,8.539-1.386,7.666-1.275,5.822,2.772-13.058,8.775-13.058,8.775l-6.127-5.725Z" fill="#68e1fd"/>
    <path id="Path_116" data-name="Path 116" d="M263.386,152.4l-13.474-2.329s-44.817,0-52.677,15.415-6.2,72.473,19.726,119.369l53.079,1.525s-2.953-34.434,6.931-53.19S317.63,174.583,263.386,152.4Z" fill="#68e1fd"/>
    <path id="Path_117" data-name="Path 117" d="M216.975,284.859l25.964-3.923a24.841,24.841,0,0,1,28.418,27.115l-3.382,32.965h-12.74l1.1-30.872a11.686,11.686,0,0,0-13.53-11.977C231.752,299.969,218.07,299.193,216.975,284.859Z" fill="#24285b"/>
    <path id="Path_118" data-name="Path 118" d="M221.522,170.993s14.722,12.892,11.769,27.143c-.485,2.3-.984,5.074-1.483,8.123A81.275,81.275,0,0,0,250.9,272.8l9.26,10.6-43.181,1.456-3.7-7.236-20.156-33.505Z" opacity="0.08"/>
    <path id="Path_119" data-name="Path 119" d="M196.5,166.9c-9.828,13.862-18.576,44.36-10.979,87.444A28.875,28.875,0,0,0,212.1,278.094l40.561,2.565V267.42l-30.816-4.45a11.811,11.811,0,0,1-9.621-15.138c5.434-17.883,13.862-50.265,11.672-73.346C222.617,160.471,204.651,155.426,196.5,166.9Z" fill="#68e1fd"/>
    <path id="Path_120" data-name="Path 120" d="M196.5,166.9c-9.828,13.862-18.576,44.36-10.979,87.444A28.875,28.875,0,0,0,212.1,278.094l40.561,2.565V267.42l-30.816-4.45a11.811,11.811,0,0,1-9.621-15.138c5.434-17.883,13.862-50.265,11.672-73.346C222.617,160.471,204.651,155.426,196.5,166.9Z" fill="#fff" opacity="0.46"/>
    <path id="Path_121" data-name="Path 121" d="M252.712,270.636s16.455-.416,14.112,8.165-14.112,1.858-14.112,1.858Z" fill="#f4a28c"/>
    <path id="Path_122" data-name="Path 122" d="M307.469,283.736l6.64-37.553H266.99L262.9,278.205l-21.6.291v5.24Z" fill="#ffd200"/>
    <circle id="Ellipse_14" data-name="Ellipse 14" cx="4.713" cy="4.713" r="4.713" transform="translate(283.986 259.477)" fill="#fff"/>
    <path id="Path_123" data-name="Path 123" d="M155.925,333.045s-12.906-3.521-15.706-15.54c0,0,19.99-4.034,20.558,16.635Z" fill="#68e1fd" opacity="0.58"/>
    <path id="Path_124" data-name="Path 124" d="M157.5,331.756s-9.011-14.251-1.081-27.572c0,0,15.249,9.7,8.442,27.614Z" fill="#68e1fd" opacity="0.73"/>
    <path id="Path_125" data-name="Path 125" d="M159.834,331.769s4.755-15.055,19.158-17.9c0,0,2.7,9.773-9.329,17.938Z" fill="#68e1fd"/>
    <path id="Path_126" data-name="Path 126" d="M150.477,331.437l2.606,17.9,16.482.069,2.426-17.883Z" fill="#24285b"/>
    <path id="Path_127" data-name="Path 127" d="M253.433,133.869s-12.809-3.4-8.761-11.922c0,0-4.533-7.222,2.994-10.91,4.436-2.176,11.007-3.327,15.665-3.909a3.4,3.4,0,0,1,3.313,5.129,16.635,16.635,0,0,1-11.991,7.971,15.706,15.706,0,0,1-1.22,13.641Z" fill="#24285b"/>
    <path id="Path_128" data-name="Path 128" d="M256.607,125.621s-1.192-2.648-3.119-1.58-.208,4.907,2.675,4.159Z" fill="#f4a28c"/>
    <path id="Path_129" data-name="Path 129" d="M370.127,189.222s5.018-17.231,8.706-17.481,0,9.842,0,9.842,13.53,3.438,1.234,14.264Z" fill="#f4a28c"/>
    <circle id="Ellipse_15" data-name="Ellipse 15" cx="38.662" cy="38.662" r="38.662" transform="translate(347.226 40.575)" fill="#ffd200"/>
    <circle id="Ellipse_16" data-name="Ellipse 16" cx="19.754" cy="19.754" r="19.754" transform="translate(374.84 53.731)" fill="#fff" opacity="0.46"/>
    <circle id="Ellipse_17" data-name="Ellipse 17" cx="10.799" cy="10.799" r="10.799" transform="translate(390.435 59.803)" fill="#fff" opacity="0.46"/>
    <rect id="Rectangle_120" data-name="Rectangle 120" width="45.081" height="35.183" transform="translate(363.348 110.47)" fill="#24285b"/>
    <rect id="Rectangle_121" data-name="Rectangle 121" width="21.612" height="14.112" transform="translate(374.84 145.653)" fill="#24285b"/>
    <rect id="Rectangle_122" data-name="Rectangle 122" width="21.612" height="14.112" transform="translate(374.84 145.653)" fill="#fff" opacity="0.75"/>
    <path id="Path_130" data-name="Path 130" d="M330.771,53.731S204.291,12.753,171.991,69.118c-21.709,37.858,22.083,59.151,45.649,55.644" fill="none" stroke="#e6e6e6" stroke-linecap="round" stroke-linejoin="round" stroke-width="2.772" stroke-dasharray="2 10"/>
    <path id="Path_131" data-name="Path 131" d="M284.18,283.154l41.338,55.963-8.068,7.444s-35.959-41.989-55.256-53.814l-6.737-9.024Z" fill="#24285b"/>
  </g>
</svg>
