<svg xmlns="http://www.w3.org/2000/svg" width="447.612" height="339" viewBox="0 0 447.612 339">
  <g id="time" transform="translate(-73.383 -56.35)">
    <path id="Path_183" data-name="Path 183" d="M198.3,152.118s-40.728,10.807-29.091,66.648-24.233,53.644-54.779,48.786L112.5,281.865s80,24.728,90.648-45.571S198.3,152.118,198.3,152.118Z" fill="#68e1fd"/>
    <path id="Path_184" data-name="Path 184" d="M198.3,152.118s-40.728,10.807-29.091,66.648-24.233,53.644-54.779,48.786L112.5,281.865s80,24.728,90.648-45.571S198.3,152.118,198.3,152.118Z" fill="#fff" opacity="0.46"/>
    <ellipse id="Ellipse_20" data-name="Ellipse 20" cx="215.857" cy="30.371" rx="215.857" ry="30.371" transform="translate(89.281 334.607)" fill="#e6e6e6" opacity="0.45"/>
    <path id="Path_185" data-name="Path 185" d="M73.383,184.249v34.226H95.506l4.829,13.615,5.716-13.615h22.124V184.249Z" fill="#e6e6e6"/>
    <path id="Path_186" data-name="Path 186" d="M201.355,113.645s-2.153,7.767-1.8,13.251a4.044,4.044,0,0,0,4.364,3.767A8.916,8.916,0,0,0,212,125.34l3.665-6.473a7.273,7.273,0,0,0-1.731-8.175C210.039,106.648,202.417,108.859,201.355,113.645Z" fill="#f4a28c"/>
    <path id="Path_187" data-name="Path 187" d="M214.1,120.467l6.327,25.615-14.371,2.473,1.135-19.142Z" fill="#f4a28c"/>
    <path id="Path_188" data-name="Path 188" d="M200.249,118.6l-2.778,2.633a1.295,1.295,0,0,0,.422,2.138l2.909,1.135Z" fill="#f4a28c"/>
    <path id="Path_189" data-name="Path 189" d="M207.159,129.965s4.9-2.269,6.24-4.276c0,0-.276,10.546-6.793,13.615Z" fill="#ce8172" opacity="0.31"/>
    <path id="Path_190" data-name="Path 190" d="M209.355,120.947s.625-3.04,2.909-2.371,1.367,5.047-1.833,4.887Z" fill="#f4a28c"/>
    <path id="Path_191" data-name="Path 191" d="M218.664,117.063l-1.673,2.909s-2.022,7.447-6.982,11.287-11.927,3.055-12.538-2.182c-.684-6.007,3.345-4.567,8.727-4.815s4.567-7.462,4.567-7.462a6.153,6.153,0,0,1-5.091-2.676,14.182,14.182,0,0,0-5.818-4.582c-4.786-2.022,1.047-8.276,1.047-8.276-3.2-1.76-.742-5.484,2.342-6.618s3.971,2.487,6.327,3.185,1.455-3.055,5.935-2.124,2.08,4.276,4.829,6.735c0,0,3.142-2.4,5.571,3.055,1.455,3.113.669,4.582-.713,5.4A17.455,17.455,0,0,0,218.664,117.063Z" fill="#24285b"/>
    <rect id="Rectangle_124" data-name="Rectangle 124" width="202.024" height="35.448" transform="translate(266.49 56.35)" fill="#ffd235"/>
    <rect id="Rectangle_125" data-name="Rectangle 125" width="202.024" height="35.448" transform="translate(267.276 325.953)" fill="#ffd235"/>
    <rect id="Rectangle_126" data-name="Rectangle 126" width="72.117" height="60.408" transform="translate(181.18 300.992)" fill="#a5a5a5"/>
    <path id="Path_192" data-name="Path 192" d="M395.641,205.937C461.649,187.115,454.4,91.8,454.4,91.8H278.868s-4.553,90.183,60.7,112.452a3.985,3.985,0,0,1-.189,7.564C273.37,230.635,280.6,325.953,280.6,325.953H456.136s4.538-90.183-60.7-112.452a3.971,3.971,0,0,1,.2-7.564Z" fill="#e6e6e6"/>
    <rect id="Rectangle_127" data-name="Rectangle 127" width="72.117" height="60.408" transform="translate(206.78 300.992)" fill="#c9c9c9"/>
    <path id="Path_193" data-name="Path 193" d="M337.167,129.878a22.415,22.415,0,0,0-24.306,32.859c6.429,11.636,17.993,24.378,38.313,27.52,36.451,5.658,62.4-3.505,77.4-43.026a14.357,14.357,0,0,0-15.127-19.4h-.451c-14.895,2.211-16.553,21.528-38.08,15.462C363.771,140.205,350.127,132.627,337.167,129.878Z" fill="#565657"/>
    <path id="Path_194" data-name="Path 194" d="M293.21,318.883A30.022,30.022,0,0,1,309.938,291.9a188.51,188.51,0,0,1,43.521-14.429c43.637-9.382,50.226,22.08,67.346,24.844s21.527,16.567,21.527,16.567Z" fill="#565657"/>
    <path id="Path_195" data-name="Path 195" d="M356,190.926l4.553,96.481h10.487l-2.764-96.481Z" fill="#565657"/>
    <path id="Path_196" data-name="Path 196" d="M376.571,186.955V287.407h2.895l2.895-102.517Z" fill="#565657"/>
    <path id="Path_197" data-name="Path 197" d="M205.486,349.24s-2.007,5.556-7.026,5.978-6.342,5.338-1.818,6.618,16.16-4.524,16.16-4.524l-.32-7.273Z" fill="#68e1fd"/>
    <path id="Path_198" data-name="Path 198" d="M206.053,148.554l14.371-2.473s47.782,0,56.146,16.437,6.618,77.281-21.033,127.289l-56.6,1.644s3.142-36.728-7.4-56.728S148.205,172.22,206.053,148.554Z" fill="#68e1fd"/>
    <path id="Path_199" data-name="Path 199" d="M255.537,289.807,227.9,285.632a26.5,26.5,0,0,0-30.313,28.917l3.622,35.157H214.8l-1.178-32.917a12.466,12.466,0,0,1,14.429-12.771C239.784,305.923,254.388,305.094,255.537,289.807Z" fill="#24285b"/>
    <path id="Path_200" data-name="Path 200" d="M177.311,349.24s-2.007,5.556-7.026,5.978-6.342,5.338-1.818,6.618,16.16-4.524,16.16-4.524l-.335-7.273Z" fill="#68e1fd"/>
    <path id="Path_201" data-name="Path 201" d="M248.163,160.991a37.819,37.819,0,0,0-15.171,37.964c4.611,25.222,24.858,71.506-16.786,63.39l2.487,19.287,28.262-2.676,22.88-15.273,5.586-42.371Z" opacity="0.08"/>
    <path id="Path_202" data-name="Path 202" d="M227.362,289.807l-27.637-4.175a26.5,26.5,0,0,0-30.313,28.917l3.622,35.157h13.571l-1.164-32.917a12.466,12.466,0,0,1,14.429-12.771C211.61,305.923,226.2,305.094,227.362,289.807Z" fill="#24285b"/>
    <path id="Path_203" data-name="Path 203" d="M245.166,169.224c1.324-14.546,19.375-20.713,29.019-9.775,4.6,5.207,8.262,12.829,8.989,24.015,2.182,33.76,29.4,133.369-77.092,101.921l2.705-12.524s32.6,7.273,49.688-9.091C272.687,250.185,241.806,205.98,245.166,169.224Z" fill="#68e1fd"/>
    <path id="Path_204" data-name="Path 204" d="M245.166,169.224c1.324-14.546,19.375-20.713,29.019-9.775,4.6,5.207,8.262,12.829,8.989,24.015,2.182,33.76,29.4,133.369-77.092,101.921l2.705-12.524s32.6,7.273,49.688-9.091C272.687,250.185,241.806,205.98,245.166,169.224Z" fill="#fff" opacity="0.46"/>
    <path id="Path_205" data-name="Path 205" d="M176.38,287.509l-17.5-47.942h51.477l10.691,45.091,12.771,2.182v6.182Z" fill="#ffd200"/>
    <circle id="Ellipse_21" data-name="Ellipse 21" cx="5.207" cy="5.207" r="5.207" transform="translate(185.937 256.177)" fill="#fff"/>
    <path id="Path_206" data-name="Path 206" d="M166.46,260.337l43.971,30.444-34.051-3.273Z" opacity="0.08"/>
    <path id="Path_207" data-name="Path 207" d="M200.817,150.867s-1.455-4.7,5.236-8.146,19.855-8.218,24.393,4.073C230.446,146.794,215.726,156.307,200.817,150.867Z" fill="#68e1fd"/>
    <path id="Path_208" data-name="Path 208" d="M200.817,150.867s-1.455-4.7,5.236-8.146,19.855-8.218,24.393,4.073C230.446,146.794,215.726,156.307,200.817,150.867Z" fill="#fff" opacity="0.46"/>
    <path id="Path_209" data-name="Path 209" d="M114.445,267.552s-9.455-7.738-13.091-2.647,11.156,13.818,11.156,13.818Z" fill="#f4a28c"/>
    <rect id="Rectangle_128" data-name="Rectangle 128" width="25.891" height="15.215" transform="translate(100.024 240.536) rotate(45)" fill="#ffd200"/>
    <path id="Path_210" data-name="Path 210" d="M214,117.819s3.913-2.313,5.367.8-2.909,5.542-5.818,3.651A6.4,6.4,0,0,0,214,117.819Z" fill="#f4a28c"/>
    <circle id="Ellipse_22" data-name="Ellipse 22" cx="4.131" cy="4.131" r="4.131" transform="translate(83.405 196.453)" fill="#a5a5a5"/>
    <circle id="Ellipse_23" data-name="Ellipse 23" cx="4.131" cy="4.131" r="4.131" transform="translate(96.19 196.453)" fill="#a5a5a5"/>
    <circle id="Ellipse_24" data-name="Ellipse 24" cx="4.131" cy="4.131" r="4.131" transform="translate(108.656 196.453)" fill="#a5a5a5"/>
  </g>
</svg>
