<svg xmlns="http://www.w3.org/2000/svg" width="484.235" height="339" viewBox="0 0 484.235 339">
  <g id="camping" transform="translate(-28.612 -38.394)">
    <path id="Path_211" data-name="Path 211" d="M363,145.385l47.822-77.3,43.1,77.3Z" fill="#565657"/>
    <path id="Path_212" data-name="Path 212" d="M382.849,100.461l29.088-56.706,26.231,56.706Z" fill="#565657"/>
    <path id="Path_213" data-name="Path 213" d="M354.932,196.88l55.523-103,50.04,103Z" fill="#565657"/>
    <path id="Path_214" data-name="Path 214" d="M342.986,255.11l68.706-131.263L473.65,255.11Z" fill="#565657"/>
    <rect id="Rectangle_129" data-name="Rectangle 129" width="23.102" height="76.964" transform="translate(396.169 255.111)" fill="#c9c585"/>
    <path id="Path_215" data-name="Path 215" d="M351.966,235.492l-21.047-47.074h13.673l-26.448-54.434h14.626l-27.074-52.72-30.027,52.72h12.939L259.26,188.418h15.986L251.9,235.492Z" fill="#565657" opacity="0.32"/>
    <rect id="Rectangle_130" data-name="Rectangle 130" width="18.666" height="62.203" transform="translate(294.892 235.492)" fill="#a5a5a5"/>
    <path id="Path_216" data-name="Path 216" d="M144.215,147.725A42.011,42.011,0,0,0,142.7,158.8a3.374,3.374,0,0,0,3.619,3.143,7.442,7.442,0,0,0,6.8-4.449l3.061-5.442a6.054,6.054,0,0,0-1.442-6.8C151.426,141.861,145.072,143.711,144.215,147.725Z" fill="#f4a28c"/>
    <path id="Path_217" data-name="Path 217" d="M154.827,153.425l5.292,21.4-12.013,2.082.952-16Z" fill="#f4a28c"/>
    <path id="Path_218" data-name="Path 218" d="M143.249,151.861l-2.313,2.2a1.088,1.088,0,0,0,.354,1.8l2.435.939Z" fill="#f4a28c"/>
    <path id="Path_219" data-name="Path 219" d="M149.031,161.357s4.082-1.891,5.224-3.565c0,0-.245,8.8-5.687,11.374Z" fill="#ce8172" opacity="0.31"/>
    <path id="Path_220" data-name="Path 220" d="M150.868,153.82s.517-2.531,2.395-1.986,1.143,4.231-1.524,4.082Z" fill="#f4a28c"/>
    <path id="Path_221" data-name="Path 221" d="M158.65,150.582,157.289,153s-1.7,6.218-5.837,9.442-9.973,2.558-10.476-1.823c-.571-5.02,2.721-3.823,7.292-4.082s3.809-6.245,3.809-6.245a5.116,5.116,0,0,1-4.245-2.231L144.9,146.12a4.857,4.857,0,0,1,4.231-5.224C153.738,140.133,163.044,143.371,158.65,150.582Z" fill="#24285b"/>
    <path id="Path_222" data-name="Path 222" d="M154.745,151.194s3.265-1.932,4.476.667-2.435,4.639-4.911,3.061A5.442,5.442,0,0,0,154.745,151.194Z" fill="#f4a28c"/>
    <ellipse id="Ellipse_25" data-name="Ellipse 25" cx="203.547" cy="29.741" rx="203.547" ry="29.741" transform="translate(68.556 317.912)" fill="#e6e6e6" opacity="0.45"/>
    <path id="Path_223" data-name="Path 223" d="M179.942,332.075h136.99L239.791,217.424Z" fill="#565657"/>
    <path id="Path_224" data-name="Path 224" d="M239.791,217.424H356.224l71.509,114.651h-110.8Z" fill="#383a57"/>
    <path id="Path_225" data-name="Path 225" d="M239.791,217.424V332.075h10.68Z" fill="#2b2d46"/>
    <rect id="Rectangle_131" data-name="Rectangle 131" width="94.338" height="55.74" transform="translate(127.97 295.11)" fill="#e6e6e6"/>
    <path id="Path_226" data-name="Path 226" d="M171.425,350.85l-42.176.3-1.2-35.809,2.871-15.1,18.775-2.721,38.829-2.721s-2.408,12.109-11.551,17.836a23.945,23.945,0,0,0-11.619,20.027A28.38,28.38,0,0,0,171.425,350.85Z" fill="#a5a5a5" opacity="0.25"/>
    <path id="Path_227" data-name="Path 227" d="M146.609,344.4s-1.673,4.653-5.877,5.007-5.292,4.462-1.524,5.524,13.51-3.782,13.51-3.782l-.272-6.054Z" fill="#68e1fd"/>
    <path id="Path_228" data-name="Path 228" d="M147.085,176.663,159.1,174.6s39.945,0,46.938,13.728,5.524,64.611-17.591,106.406l-47.305,1.361s2.626-30.707-6.19-47.428S98.733,196.445,147.085,176.663Z" fill="#68e1fd"/>
    <path id="Path_229" data-name="Path 229" d="M188.445,294.729l-23.129-3.5a22.149,22.149,0,0,0-25.333,24.176l3.02,29.4h11.36l-.993-27.523a10.422,10.422,0,0,1,12.068-10.68C175.275,308.2,187.479,307.477,188.445,294.729Z" fill="#24285b"/>
    <path id="Path_230" data-name="Path 230" d="M123.045,344.4s-1.673,4.653-5.864,5.007-5.292,4.462-1.524,5.524,13.51-3.782,13.51-3.782L128.9,345.1Z" fill="#68e1fd"/>
    <path id="Path_231" data-name="Path 231" d="M184.391,193.193s-13.115,11.5-10.476,24.19S150.868,261.7,150.868,261.7l-9.524,31.4,47.156,1.592,3.292-6.449Z" opacity="0.08"/>
    <path id="Path_232" data-name="Path 232" d="M164.895,294.729l-23.129-3.5a22.149,22.149,0,0,0-25.333,24.176l3.02,29.4H130.8l-.98-27.523a10.422,10.422,0,0,1,12.068-10.68C151.725,308.2,163.929,307.477,164.895,294.729Z" fill="#24285b"/>
    <path id="Path_233" data-name="Path 233" d="M412.019,337.517l-9.932-17.02,11.959,6.081,6.082-19.455,5.265,17.551,12.163-6.762-2.027,12.313,14.721.83-9.456,6.462Z" fill="#d6c90b"/>
    <path id="Path_234" data-name="Path 234" d="M185.03,191.4a13.238,13.238,0,0,1,21.278-5.442c5.1,4.626,9.9,12.707,9.619,26.721-.612,29.387-3.088,75.822-19.455,78.3s-27.36-45.06-27.36-45.06l7.7-8.735,10.34-9.9S179.847,206.091,185.03,191.4Z" fill="#68e1fd"/>
    <path id="Path_235" data-name="Path 235" d="M185.03,191.4a13.238,13.238,0,0,1,21.278-5.442c5.1,4.626,9.9,12.707,9.619,26.721-.612,29.387-3.088,75.822-19.455,78.3s-27.36-45.06-27.36-45.06l7.7-8.735,10.34-9.9S179.847,206.091,185.03,191.4Z" fill="#fff" opacity="0.35"/>
    <path id="Path_236" data-name="Path 236" d="M145.249,145.058l12.952,5.619a1.007,1.007,0,0,0,1.211-.3c1.129-1.361,3.741-5.048,3.4-7.469-.422-3.088-2.83-8.422-7.02-8.843-3.252-.327-8.163-1.5-11.415,9.047A1.592,1.592,0,0,0,145.249,145.058Z" fill="#ffd200"/>
    <path id="Path_237" data-name="Path 237" d="M153.929,262.961l23.9-24.149,1.51,1.5,11.864-12-8.081-8-11.864,12,1.51,1.5-23.9,24.149a18.653,18.653,0,1,0,5.061,5.007Z" fill="#ffd200"/>
    <circle id="Ellipse_26" data-name="Ellipse 26" cx="7.673" cy="7.673" r="7.673" transform="translate(130.841 265.804)" fill="#fff"/>
    <path id="Path_238" data-name="Path 238" d="M177.752,242.077s1.361-7.741-7.306-3.741S162.5,260.675,177.752,242.077Z" fill="#f4a28c"/>
    <path id="Path_239" data-name="Path 239" d="M126.392,270.444s12.639-2.435,13.456,1.524-.857,10.639-11.877,6.68S126.392,270.444,126.392,270.444Z" fill="#f4a28c"/>
    <path id="Path_240" data-name="Path 240" d="M124.923,191.955S79.767,247.736,88.8,278.144c7.292,24.489,39.169.5,39.169.5l-1.578-8.163-20.979,4.34,24.108-35.754Z" fill="#68e1fd"/>
    <circle id="Ellipse_27" data-name="Ellipse 27" cx="30.734" cy="30.734" r="30.734" transform="translate(186.663 93.44)" fill="#24285b"/>
    <path id="Path_241" data-name="Path 241" d="M199.071,135.562l-12.408,23.1,21.265-15.4Z" fill="#24285b"/>
    <path id="Path_242" data-name="Path 242" d="M213.724,130.378h-2.2v-16l16.149-4.163v15.592h-2.2V113.045l-11.741,3.048Z" fill="#fff"/>
    <ellipse id="Ellipse_28" data-name="Ellipse 28" cx="5.36" cy="3.605" rx="5.36" ry="3.605" transform="matrix(0.814, -0.58, 0.58, 0.814, 204.258, 134.017)" fill="#ffd200"/>
    <ellipse id="Ellipse_29" data-name="Ellipse 29" cx="5.36" cy="3.605" rx="5.36" ry="3.605" transform="matrix(0.814, -0.58, 0.58, 0.814, 217.607, 129.503)" fill="#ffd200"/>
    <path id="Path_243" data-name="Path 243" d="M129.521,239.07s-15.809-23.891-6.884-44.176c0,0-10.762,14.53-15.455,22.53,0,0,1.116,25.224,14.775,32.843Z" opacity="0.08"/>
    <circle id="Ellipse_30" data-name="Ellipse 30" cx="5.374" cy="5.374" r="5.374" transform="translate(50.856 167.452)" fill="#c9c9c9"/>
    <circle id="Ellipse_31" data-name="Ellipse 31" cx="5.374" cy="5.374" r="5.374" transform="translate(197.289 38.394)" fill="#c9c9c9"/>
    <circle id="Ellipse_32" data-name="Ellipse 32" cx="5.374" cy="5.374" r="5.374" transform="translate(502.099 326.701)" fill="#c9c9c9"/>
    <circle id="Ellipse_33" data-name="Ellipse 33" cx="5.374" cy="5.374" r="5.374" transform="translate(502.099 63.999)" fill="#c9c9c9"/>
    <circle id="Ellipse_34" data-name="Ellipse 34" cx="5.374" cy="5.374" r="5.374" transform="translate(68.094 39.686)" fill="#c9c9c9" opacity="0.36"/>
    <circle id="Ellipse_35" data-name="Ellipse 35" cx="5.374" cy="5.374" r="5.374" transform="translate(343.476 39.686)" fill="#c9c9c9" opacity="0.36"/>
    <circle id="Ellipse_36" data-name="Ellipse 36" cx="5.374" cy="5.374" r="5.374" transform="translate(485.99 182.853)" fill="#c9c9c9" opacity="0.36"/>
    <circle id="Ellipse_37" data-name="Ellipse 37" cx="5.374" cy="5.374" r="5.374" transform="translate(222.295 174.582)" fill="#c9c9c9" opacity="0.36"/>
    <circle id="Ellipse_38" data-name="Ellipse 38" cx="5.374" cy="5.374" r="5.374" transform="translate(28.612 312.688)" fill="#c9c9c9" opacity="0.36"/>
  </g>
</svg>
