<svg xmlns="http://www.w3.org/2000/svg" width="548" height="447.344" viewBox="0 0 548 447.344">
  <g id="data_visualization" transform="translate(-62.828 -23.869)">
    <path id="Path_431" data-name="Path 431" d="M408.793,296.3s9.679-44.676-15.1-55.51-61.13,7.285-71.607-20.835,27.169-43.742,10.986-61.13-39.6-22.075-27.458-56.529,37.171-4.16,65.834-38.852,49.482-53.761,86.771-26.88S478.94,76.175,529.27,71.115s69.875,7.1,70.945,46.052-32.739,28.137-25.794,56.987,9.526,57.225-34.691,54.338-70.232,19.63-63.3,67.753Z" fill="#24285b"/>
    <ellipse id="Ellipse_71" data-name="Ellipse 71" cx="274" cy="19.63" rx="274" ry="19.63" transform="translate(62.828 431.954)" fill="#e6e6e6" opacity="0.45"/>
    <path id="Path_432" data-name="Path 432" d="M273.389,252.061a88.044,88.044,0,0,1,1.172,63.355C262.046,350.294,289.3,367.9,236.49,372.573S273.389,252.061,273.389,252.061Z" fill="#68e1fd"/>
    <path id="Path_433" data-name="Path 433" d="M273.389,252.061a88.044,88.044,0,0,1,1.172,63.355C262.046,350.294,289.3,367.9,236.49,372.573S273.389,252.061,273.389,252.061Z" fill="#fff" opacity="0.46"/>
    <path id="Path_434" data-name="Path 434" d="M237.729,178.11a55.24,55.24,0,0,1,5.094,13.805,4.466,4.466,0,0,1-3.736,5.094,9.832,9.832,0,0,1-9.985-3.77l-5.5-6.079a7.964,7.964,0,0,1-.136-9.2C226.607,172.693,235.318,173.2,237.729,178.11Z" fill="#f4a28c"/>
    <path id="Path_435" data-name="Path 435" d="M227.66,188.316,220.7,216.537l15.826,2.734-1.257-21.09Z" fill="#f4a28c"/>
    <path id="Path_436" data-name="Path 436" d="M240.022,183.17l3.634,2.174a1.426,1.426,0,0,1,0,2.394l-2.853,1.936Z" fill="#f4a28c"/>
    <path id="Path_437" data-name="Path 437" d="M235.352,197.061s-5.807-1.24-7.743-3.074c0,0,.543,13.228,8.3,14.943Z" fill="#ce8172" opacity="0.31"/>
    <path id="Path_438" data-name="Path 438" d="M230.8,187.908s-1.409-3.107-3.651-1.851-.255,5.756,3.141,4.806Z" fill="#f4a28c"/>
    <path id="Path_439" data-name="Path 439" d="M219.849,185.989l2.513,2.717s3.99,7.505,10.188,10.443,13.585.391,12.939-5.383c-.713-6.622-4.687-4.092-10.545-3.057s-6.707-6.928-6.707-6.928a6.792,6.792,0,0,0,4.823-4.109l3.006-2.479a6.147,6.147,0,0,0,.17-9.339,8.236,8.236,0,0,0-5.875-2.377C224.145,165.782,212.105,177.991,219.849,185.989Z" fill="#24285b"/>
    <path id="Path_440" data-name="Path 440" d="M225.062,185.65s-4.772-1.528-5.57,2.157,4.483,5.264,7.2,2.513a7.1,7.1,0,0,1-1.63-4.67Z" fill="#f4a28c"/>
    <rect id="Rectangle_219" data-name="Rectangle 219" width="102.801" height="73.458" transform="translate(263.047 448.544) rotate(180)" fill="#e6e6e6"/>
    <path id="Path_441" data-name="Path 441" d="M235.912,448.544l4.941-64.679,20.632,3.141,6.13,24.809-4.568,36.729Z" opacity="0.08"/>
    <path id="Path_442" data-name="Path 442" d="M238.493,440.054s2.208,6.113,7.743,6.589,6.979,5.875,2,7.285-17.813-4.992-17.813-4.992l.374-7.981Z" fill="#68e1fd"/>
    <path id="Path_443" data-name="Path 443" d="M237.865,218.949l-15.826-2.734s-52.64,0-61.861,18.118-7.353,85.141,23.213,140.226l62.37,1.817s-3.4-40.465,8.151-62.506S301.594,245.014,237.865,218.949Z" fill="#68e1fd"/>
    <path id="Path_444" data-name="Path 444" d="M183.391,374.56l30.565-4.585a29.173,29.173,0,0,1,33.384,31.839l-3.973,38.767H228.39l1.308-36.288a13.737,13.737,0,0,0-15.911-14.06C200.711,392.253,184.631,391.421,183.391,374.56Z" fill="#24285b"/>
    <path id="Path_445" data-name="Path 445" d="M269.551,440.054s2.19,6.113,7.726,6.589,6.979,5.875,2,7.285-17.779-4.992-17.779-4.992l.357-7.981Z" fill="#68e1fd"/>
    <path id="Path_446" data-name="Path 446" d="M188.689,240.786s17.286,15.164,13.822,31.89c-.56,2.7-1.155,5.977-1.7,9.56a95.482,95.482,0,0,0,22.414,78.111l10.885,12.447-50.738,1.7-4.33-8.49L155.271,326.64Z" opacity="0.08"/>
    <path id="Path_447" data-name="Path 447" d="M214.4,374.56l30.565-4.585a29.19,29.19,0,0,1,33.4,31.839l-3.99,38.767h-14.96l1.29-36.288a13.72,13.72,0,0,0-15.894-14.06C231.752,392.253,215.654,391.421,214.4,374.56Z" fill="#24285b"/>
    <path id="Path_448" data-name="Path 448" d="M159.3,236.031c-11.547,16.267-21.82,52.165-12.905,102.75a33.961,33.961,0,0,0,31.3,27.9l47.648,3.006V354.149l-36.22-5.23a13.907,13.907,0,0,1-11.292-17.8c6.385-21.005,16.267-59.059,13.7-86.177C189.98,228.424,168.873,222.447,159.3,236.031Z" fill="#68e1fd"/>
    <path id="Path_449" data-name="Path 449" d="M159.3,236.031c-11.547,16.267-21.82,52.165-12.905,102.75a33.961,33.961,0,0,0,31.3,27.9l47.648,3.006V354.149l-36.22-5.23a13.907,13.907,0,0,1-11.292-17.8c6.385-21.005,16.267-59.059,13.7-86.177C189.98,228.424,168.873,222.447,159.3,236.031Z" fill="#fff" opacity="0.46"/>
    <path id="Path_450" data-name="Path 450" d="M225.333,357.851s19.341-.475,16.573,9.594-16.573,2.19-16.573,2.19Z" fill="#f4a28c"/>
    <path id="Path_451" data-name="Path 451" d="M289.673,373.252l7.794-44.116H242.11L237.3,366.748l-25.386.357v6.147Z" fill="#ffd200"/>
    <circle id="Ellipse_72" data-name="Ellipse 72" cx="5.536" cy="5.536" r="5.536" transform="translate(262.08 344.758)" fill="#fff"/>
    <rect id="Rectangle_220" data-name="Rectangle 220" width="145.388" height="124.689" transform="translate(371.452 319.933)" fill="#e6e6e6"/>
    <rect id="Rectangle_221" data-name="Rectangle 221" width="172.167" height="29.275" transform="translate(357.103 290.658)" fill="#a5a5a5"/>
    <circle id="Ellipse_73" data-name="Ellipse 73" cx="20.258" cy="20.258" r="20.258" transform="translate(441.497 126.421)" fill="#68e1fd"/>
    <circle id="Ellipse_74" data-name="Ellipse 74" cx="10.732" cy="10.732" r="10.732" transform="translate(386.021 81.219)" fill="#68e1fd"/>
    <circle id="Ellipse_75" data-name="Ellipse 75" cx="17.083" cy="17.083" r="17.083" transform="translate(348.07 187.433)" fill="#68e1fd"/>
    <circle id="Ellipse_76" data-name="Ellipse 76" cx="11.309" cy="11.309" r="11.309" transform="translate(469.889 201.9)" fill="#68e1fd"/>
    <circle id="Ellipse_77" data-name="Ellipse 77" cx="9.645" cy="9.645" r="9.645" transform="translate(531.682 166.937)" fill="#fff"/>
    <circle id="Ellipse_78" data-name="Ellipse 78" cx="5.689" cy="5.689" r="5.689" transform="translate(456.067 67.243)" fill="#fff"/>
    <circle id="Ellipse_79" data-name="Ellipse 79" cx="5.689" cy="5.689" r="5.689" transform="translate(396.753 155.56)" fill="#fff"/>
    <circle id="Ellipse_80" data-name="Ellipse 80" cx="5.689" cy="5.689" r="5.689" transform="translate(425.094 225.266)" fill="#fff"/>
    <circle id="Ellipse_81" data-name="Ellipse 81" cx="5.689" cy="5.689" r="5.689" transform="translate(332.787 113.635)" fill="#ffd200"/>
    <circle id="Ellipse_82" data-name="Ellipse 82" cx="24.214" cy="24.214" r="24.214" transform="translate(516.433 96.858)" fill="#ffd200"/>
    <path id="Path_452" data-name="Path 452" d="M208.455,216.877s-6.656-7.047,11.411-7.811,36.186,1.426,31.907,16.794S208.455,216.877,208.455,216.877Z" fill="#68e1fd"/>
    <path id="Path_453" data-name="Path 453" d="M208.455,216.877s-6.656-7.047,11.411-7.811,36.186,1.426,31.907,16.794S208.455,216.877,208.455,216.877Z" fill="#fff" opacity="0.46"/>
    <rect id="Rectangle_222" data-name="Rectangle 222" width="91.339" height="31.16" transform="translate(396.753 259.482)" fill="#c9c9c9"/>
    <path id="Path_454" data-name="Path 454" d="M111.614,431.19s-15.164-4.143-18.458-18.254c0,0,23.484-4.755,24.163,19.494Z" fill="#68e1fd" opacity="0.58"/>
    <path id="Path_455" data-name="Path 455" d="M113.482,429.611s-10.6-16.743-1.274-32.4c0,0,17.864,11.343,9.917,32.433Z" fill="#68e1fd" opacity="0.73"/>
    <path id="Path_456" data-name="Path 456" d="M116.2,429.7s5.6-17.694,22.516-21.039c0,0,3.175,11.479-10.953,21.09Z" fill="#68e1fd"/>
    <path id="Path_457" data-name="Path 457" d="M105.212,429.288l3.074,21.039,19.358.068,2.853-20.988Z" fill="#24285b"/>
  </g>
</svg>
