<svg xmlns="http://www.w3.org/2000/svg" width="26.999" height="25.874" viewBox="0 0 26.999 25.874">
  <path id="github" d="M13.5.5A13.382,13.382,0,0,0,0,13.765,13.287,13.287,0,0,0,9.23,26.351c.675.125.922-.286.922-.638,0-.315-.011-1.15-.017-2.256-3.755.8-4.547-1.78-4.547-1.78a3.536,3.536,0,0,0-1.5-1.941c-1.223-.822.094-.805.094-.805A2.824,2.824,0,0,1,6.249,20.3a2.907,2.907,0,0,0,3.932,1.1,2.809,2.809,0,0,1,.855-1.774c-3-.332-6.149-1.473-6.149-6.555A5.068,5.068,0,0,1,6.276,9.514,4.641,4.641,0,0,1,6.394,6s1.131-.355,3.712,1.36a12.943,12.943,0,0,1,6.75,0c2.565-1.716,3.7-1.36,3.7-1.36a4.769,4.769,0,0,1,.135,3.511,5.089,5.089,0,0,1,1.384,3.559c0,5.1-3.155,6.218-6.159,6.544a3.148,3.148,0,0,1,.911,2.455c0,1.775-.017,3.2-.017,3.632,0,.348.236.763.928.63A13.247,13.247,0,0,0,27,13.765,13.384,13.384,0,0,0,13.5.5Z" transform="translate(0 -0.5)" fill="#212121"/>
</svg>
