<svg xmlns="http://www.w3.org/2000/svg" width="31.075" height="36" viewBox="0 0 31.075 36">
  <g id="Group_99" data-name="Group 99" transform="translate(-1003 -234)">
    <g id="Group_98" data-name="Group 98" transform="translate(4 10)">
      <g id="shield" transform="translate(998.965 224)">
        <path id="Path_333" data-name="Path 333" d="M30.675,7.991a.539.539,0,0,0-.516-.468C24.885,7.333,19.511,3.864,15.949.165a.537.537,0,0,0-.773,0C11.525,3.927,6.227,7.336.968,7.523a.539.539,0,0,0-.517.468C-4.455,44.965,35.7,45.706,30.675,7.991Zm0,0" fill="#c42d2d"/>
        <path id="Path_334" data-name="Path 334" d="M23.9,29.507a11.143,11.143,0,0,1-6.709,3.835,9.861,9.861,0,0,1-1.453.108h0a11.193,11.193,0,0,1-8.4-4.087c-3.727-4.255-5.327-11.02-4.569-19.185a.335.335,0,0,1,.283-.3C8.3,9.052,12.7,5.884,15.334,3.54a.333.333,0,0,1,.444,0q.606.543,1.231,1.047A24.436,24.436,0,0,0,28.076,9.871a.336.336,0,0,1,.282.3C29.148,18.478,27.587,25.3,23.9,29.507Zm0,0" fill="#f44545"/>
        <path id="Path_335" data-name="Path 335" d="M23.9,29.507a11.143,11.143,0,0,1-6.709,3.835,11.519,11.519,0,0,1-6.938-3.979c-3.727-4.255-5.327-11.02-4.569-19.185a.334.334,0,0,1,.283-.3A24.168,24.168,0,0,0,17.01,4.59,24.436,24.436,0,0,0,28.076,9.871a.336.336,0,0,1,.282.3C29.148,18.478,27.587,25.3,23.9,29.507Zm0,0" fill="#fb5858"/>
        <path id="Path_336" data-name="Path 336" d="M19.352,11.574H11.794a.974.974,0,0,0-.843.487L7.172,18.606a.974.974,0,0,0,0,.974l3.779,6.545a.974.974,0,0,0,.843.487h7.558a.975.975,0,0,0,.844-.487l3.779-6.545a.974.974,0,0,0,0-.974L20.2,12.06A.975.975,0,0,0,19.352,11.574Zm0,0" fill="#d63030"/>
        <path id="Path_337" data-name="Path 337" d="M21.455,18.049l-5.12,6.691-4.44,5.8a.78.78,0,0,1-1.246-.912l3.8-7.966a.64.64,0,0,0-.577-.915H10.2a.64.64,0,0,1-.539-.984l7.679-12a.779.779,0,0,1,1.406.629l-1.915,5.4-.84,2.372a.639.639,0,0,0,.6.853h4.355A.64.64,0,0,1,21.455,18.049Zm0,0" fill="#ffc14f"/>
        <path id="Path_338" data-name="Path 338" d="M21.455,18.049l-5.12,6.691L17.8,21.663a.64.64,0,0,0-.577-.915H13.55a.64.64,0,0,1-.539-.984l3.819-5.969-.84,2.372a.639.639,0,0,0,.6.853h4.355A.64.64,0,0,1,21.455,18.049Zm0,0" fill="#ffb52d"/>
      </g>
      <g id="doctor" transform="translate(1001.359 231)">
        <g id="Group_87" data-name="Group 87" transform="translate(5.09 0.449)">
          <path id="Path_367" data-name="Path 367" d="M18.43,23.713l-1.8-.258a1.6,1.6,0,0,1-.394-.108h-5.6a1.6,1.6,0,0,1-.394.108l-1.8.258A3.593,3.593,0,0,0,5.344,27.27v3.711H21.516V27.27A3.593,3.593,0,0,0,18.43,23.713Z" transform="translate(-5.344 -8.88)" fill="#b3f1ff"/>
          <path id="Path_368" data-name="Path 368" d="M14.953.7A5.391,5.391,0,0,0,9.563,6.094l.078,1.8H20.266l.078-1.8A5.391,5.391,0,0,0,14.953.7Z" transform="translate(-6.867 -0.703)" fill="#c1b0b5"/>
          <path id="Path_369" data-name="Path 369" d="M19.755,9.979l0-.058A1.727,1.727,0,0,1,18.039,8.2V8.125H16.455a3.251,3.251,0,0,1-2.908-1.8,1.8,1.8,0,0,1-1.8,1.8h-.9V8.2A1.727,1.727,0,0,1,9.133,9.922l0,.058A1.344,1.344,0,0,0,9.5,12.617h.478A7.28,7.28,0,0,0,12.649,15.7h0a1.628,1.628,0,0,1-1,1.5l2.8,3.5,2.8-3.5a1.628,1.628,0,0,1-1-1.5h0a7.28,7.28,0,0,0,2.667-3.079h.478a1.344,1.344,0,0,0,.368-2.638Z" transform="translate(-6.359 -2.734)" fill="#fce8d0"/>
          <circle id="Ellipse_58" data-name="Ellipse 58" cx="0.898" cy="0.898" r="0.898" transform="translate(11.68 18.508)" fill="#f3eff0"/>
        </g>
        <g id="Group_88" data-name="Group 88" transform="translate(4.641)">
          <circle id="Ellipse_59" data-name="Ellipse 59" cx="0.449" cy="0.449" r="0.449" transform="translate(9.883 7.637)"/>
          <circle id="Ellipse_60" data-name="Ellipse 60" cx="0.449" cy="0.449" r="0.449" transform="translate(6.289 7.637)"/>
          <path id="Path_370" data-name="Path 370" d="M17.028,18.672a1.8,1.8,0,0,0,1.694-1.2.449.449,0,1,0-.847-.3.9.9,0,0,1-1.695,0,.449.449,0,1,0-.847.3A1.8,1.8,0,0,0,17.028,18.672Z" transform="translate(-8.493 -6.094)"/>
          <circle id="Ellipse_61" data-name="Ellipse 61" cx="0.449" cy="0.449" r="0.449" transform="translate(12.578 22.102)"/>
          <path id="Path_371" data-name="Path 371" d="M19.689,22.1a.449.449,0,0,0,0,.9h1.572a.449.449,0,0,0,.449-.449V18.839a4.043,4.043,0,0,0-3.471-4l-1.8-.258a1.178,1.178,0,0,1-.989-.933,7.756,7.756,0,0,0,2.468-2.865h.2A1.793,1.793,0,0,0,18.948,7.4s.067-1.552.067-1.558a5.84,5.84,0,0,0-11.68,0q0,.01,0,.02L7.4,7.4a1.793,1.793,0,0,0,.831,3.383h.2a7.756,7.756,0,0,0,2.468,2.865,1.179,1.179,0,0,1-.989.933l-1.805.258a4.043,4.043,0,0,0-3.471,4v3.711A.449.449,0,0,0,5.09,23H15.646a.449.449,0,0,0,0-.9H13.625V18.576l2.511-3.139c.056.013.113.024.171.033l.911.13v2.986a1.348,1.348,0,1,0,.9,0V15.727a3.16,3.16,0,0,1,2.7,3.112V22.1Zm-6.514-4.4-2.129-2.662a2.066,2.066,0,0,0,.673-.958,3.728,3.728,0,0,0,2.913,0,2.066,2.066,0,0,0,.673.958Zm0-16.8A4.947,4.947,0,0,1,18.117,5.83l-.056,1.281a1.28,1.28,0,0,1-.843-1.2V5.84a.449.449,0,0,0-.449-.449H15.186a2.787,2.787,0,0,1-2.506-1.549.449.449,0,0,0-.851.2A1.349,1.349,0,0,1,10.48,5.391h-.9a.449.449,0,0,0-.449.449V5.91a1.281,1.281,0,0,1-.843,1.2L8.234,5.83A4.947,4.947,0,0,1,13.176.9ZM9.114,10.133a.449.449,0,0,0-.4-.25H8.234a.9.9,0,0,1-.9-.9c0-.715.682-.853.775-.914A2.183,2.183,0,0,0,10,6.289h.482A2.248,2.248,0,0,0,12.463,5.1a3.679,3.679,0,0,0,2.723,1.191h1.168A2.183,2.183,0,0,0,18.24,8.07c.091.059.775.2.775.914a.9.9,0,0,1-.9.9H17.64a.449.449,0,0,0-.4.25c-.79,1.595-2.28,3.344-4.061,3.344s-3.259-1.725-4.061-3.344ZM5.539,22.1V18.839a3.16,3.16,0,0,1,2.7-3.112v1.388a2.25,2.25,0,0,0-1.8,2.2v1.438a.449.449,0,0,0,.449.449h.9a.449.449,0,0,0,0-.9H7.336v-.988a1.348,1.348,0,0,1,2.7,0V20.3H9.582a.449.449,0,0,0,0,.9h.9a.449.449,0,0,0,.449-.449V19.316a2.25,2.25,0,0,0-1.8-2.2V15.6l.911-.13c.058-.008.115-.02.171-.033l2.511,3.139V22.1Zm12.129-1.8a.449.449,0,1,1,.449-.449A.45.45,0,0,1,17.668,20.3Z" transform="translate(-4.641)"/>
        </g>
      </g>
    </g>
  </g>
</svg>
