<svg id="instagram_3_" data-name="instagram (3)" xmlns="http://www.w3.org/2000/svg" xmlns:xlink="http://www.w3.org/1999/xlink" width="26.603" height="26.603" viewBox="0 0 26.603 26.603">
  <defs>
    <linearGradient id="linear-gradient" x1="0.084" y1="0.916" x2="0.916" y2="0.084" gradientUnits="objectBoundingBox">
      <stop offset="0" stop-color="#ffd600"/>
      <stop offset="0.5" stop-color="#ff0100"/>
      <stop offset="1" stop-color="#d800b9"/>
    </linearGradient>
    <linearGradient id="linear-gradient-2" x1="0.146" y1="0.854" x2="0.854" y2="0.146" gradientUnits="objectBoundingBox">
      <stop offset="0" stop-color="#ff6400"/>
      <stop offset="0.5" stop-color="#ff0100"/>
      <stop offset="1" stop-color="#fd0056"/>
    </linearGradient>
    <linearGradient id="linear-gradient-3" x1="0.146" y1="0.854" x2="0.854" y2="0.146" gradientUnits="objectBoundingBox">
      <stop offset="0" stop-color="#f30072"/>
      <stop offset="1" stop-color="#e50097"/>
    </linearGradient>
  </defs>
  <path id="Path_46" data-name="Path 46" d="M26.523,7.817A9.765,9.765,0,0,0,25.9,4.589,6.519,6.519,0,0,0,24.37,2.233,6.521,6.521,0,0,0,22.014.7,9.764,9.764,0,0,0,18.786.08C17.367.015,16.914,0,13.3,0S9.236.015,7.817.08A9.766,9.766,0,0,0,4.589.7,6.519,6.519,0,0,0,2.233,2.233,6.52,6.52,0,0,0,.7,4.588,9.765,9.765,0,0,0,.08,7.817C.015,9.236,0,9.689,0,13.3s.015,4.066.08,5.484A9.763,9.763,0,0,0,.7,22.014,6.518,6.518,0,0,0,2.233,24.37,6.517,6.517,0,0,0,4.589,25.9a9.76,9.76,0,0,0,3.229.618c1.419.065,1.872.08,5.484.08s4.066-.015,5.484-.08a9.761,9.761,0,0,0,3.229-.618,6.8,6.8,0,0,0,3.89-3.89,9.762,9.762,0,0,0,.618-3.229c.065-1.419.08-1.872.08-5.484S26.588,9.236,26.523,7.817ZM24.129,18.677a7.36,7.36,0,0,1-.458,2.47,4.4,4.4,0,0,1-2.524,2.524,7.36,7.36,0,0,1-2.47.458c-1.4.064-1.823.078-5.375.078s-3.973-.013-5.375-.078a7.362,7.362,0,0,1-2.47-.458,4.122,4.122,0,0,1-1.529-1,4.121,4.121,0,0,1-1-1.529,7.36,7.36,0,0,1-.458-2.47C2.41,17.274,2.4,16.853,2.4,13.3s.014-3.972.078-5.375a7.365,7.365,0,0,1,.458-2.47,4.124,4.124,0,0,1,1-1.53,4.118,4.118,0,0,1,1.53-.995,7.358,7.358,0,0,1,2.47-.458C9.329,2.41,9.75,2.4,13.3,2.4h0c3.552,0,3.972.014,5.375.078a7.361,7.361,0,0,1,2.47.458,4.124,4.124,0,0,1,1.529.995,4.118,4.118,0,0,1,.995,1.53,7.353,7.353,0,0,1,.458,2.47c.064,1.4.078,1.823.078,5.375S24.193,17.274,24.129,18.677Zm0,0" fill="url(#linear-gradient)"/>
  <path id="Path_47" data-name="Path 47" d="M131.369,124.539a6.831,6.831,0,1,0,6.831,6.831A6.831,6.831,0,0,0,131.369,124.539Zm0,11.264a4.434,4.434,0,1,1,4.434-4.434A4.434,4.434,0,0,1,131.369,135.8Zm0,0" transform="translate(-118.068 -118.068)" fill="url(#linear-gradient-2)"/>
  <path id="Path_48" data-name="Path 48" d="M365.122,90.221a1.6,1.6,0,1,1-1.6-1.6A1.6,1.6,0,0,1,365.122,90.221Zm0,0" transform="translate(-343.124 -84.02)" fill="url(#linear-gradient-3)"/>
</svg>
