<svg xmlns="http://www.w3.org/2000/svg" width="32.52" height="37" viewBox="0 0 32.52 37">
  <g id="location" transform="translate(-2.24)">
    <g id="Group_102" data-name="Group 102">
      <g id="Group_101" data-name="Group 101">
        <path id="Path_374" data-name="Path 374" d="M24.677,24.446c3.937-6.178,3.442-5.407,3.556-5.569A11.835,11.835,0,0,0,30.424,12,11.924,11.924,0,1,0,8.83,18.966l3.493,5.481C8.589,25.02,2.24,26.73,2.24,30.5c0,1.373.9,3.329,5.164,4.853A34.214,34.214,0,0,0,18.5,37c7.806,0,16.26-2.2,16.26-6.5C34.76,26.73,28.419,25.021,24.677,24.446ZM10.641,17.773q-.018-.028-.037-.055a9.756,9.756,0,1,1,15.871-.11c-.1.138.44-.709-7.975,12.5ZM18.5,34.832c-8.527,0-14.092-2.506-14.092-4.336,0-1.23,2.859-3.252,9.2-4.04L17.586,32.7a1.084,1.084,0,0,0,1.828,0L23.4,26.456c6.336.788,9.2,2.81,9.2,4.04C32.592,32.31,27.077,34.832,18.5,34.832Z" fill="#fff"/>
      </g>
    </g>
    <g id="Group_104" data-name="Group 104">
      <g id="Group_103" data-name="Group 103">
        <path id="Path_375" data-name="Path 375" d="M18.5,6.576A5.42,5.42,0,1,0,23.92,12,5.426,5.426,0,0,0,18.5,6.576Zm0,8.672A3.252,3.252,0,1,1,21.752,12,3.256,3.256,0,0,1,18.5,15.248Z" fill="#fff"/>
      </g>
    </g>
  </g>
</svg>
