<svg id="Layer_x0020_1" xmlns="http://www.w3.org/2000/svg" width="39.379" height="53" viewBox="0 0 39.379 53">
  <rect id="Rectangle_199" data-name="Rectangle 199" width="37.475" height="53" fill="none"/>
  <rect id="Rectangle_200" data-name="Rectangle 200" width="6.638" height="4.92" rx="0.143" transform="translate(23.238 26.989)" fill="none" stroke="#000" stroke-width="0.252"/>
  <path id="Path_376" data-name="Path 376" d="M25.861,31.909a5.236,5.236,0,0,1-3.808,2.661m1.67-1.651.46.823m.248,2.331-.493-.93m2.149-9.533-.848.732m3.027,5.609a7.494,7.494,0,0,1-7.488,4.815h0m1.845-14.276A7.622,7.622,0,0,1,26.875,24.9m-5.432-.405h0a5.381,5.381,0,0,1,4.251,2.5m.2,6.776a6.527,6.527,0,0,1-5.056,1.959,6.634,6.634,0,0,1-2.522-.644m6.28-10.728A6.283,6.283,0,0,1,27,26.989m-2.3,4.952a4.336,4.336,0,0,1-3.749,1.745,4.482,4.482,0,0,1-1.424-.316" fill="none" stroke="#000" stroke-width="0.252" fill-rule="evenodd"/>
  <path id="Path_377" data-name="Path 377" d="M25.891,33.51a.255.255,0,1,1-.257.255A.255.255,0,0,1,25.891,33.51Z" fill-rule="evenodd"/>
  <path id="Path_378" data-name="Path 378" d="M22.053,34.314a.255.255,0,1,1-.255.255A.255.255,0,0,1,22.053,34.314Z" fill-rule="evenodd"/>
  <path id="Path_379" data-name="Path 379" d="M26.875,24.641a.256.256,0,1,1-.255.255A.255.255,0,0,1,26.875,24.641Z" fill-rule="evenodd"/>
  <path id="Path_380" data-name="Path 380" d="M24.594,24.1a.256.256,0,1,1-.255.255A.255.255,0,0,1,24.594,24.1Z" fill-rule="evenodd"/>
  <path id="Path_381" data-name="Path 381" d="M20.779,36.508a.256.256,0,1,1,0,.512.256.256,0,0,1,0-.512Z" fill-rule="evenodd"/>
  <path id="Path_382" data-name="Path 382" d="M17.076,31.805q.005-3.017.009-6.035v-.2l5.751-3.751v3.787l-.9,1.269-1.929,1.114v.178l2.447-1.412v3.5l-2.213,1.278V35.9L16.7,37.485l-.134-.043a8.886,8.886,0,0,1-1.094-.455,12.413,12.413,0,0,1-2.343-1.469,9.058,9.058,0,0,1-3.6-6.92v-.014a10.59,10.59,0,0,1,2.761-7.37,24.247,24.247,0,0,1,3.913-3.373c2.2-1.613,4.706-3.271,6.117-5.673l.689-1.174v7.316l-1.317.776V21.27l-.236.093c-.484.189-.969.412-1.437.639a21.693,21.693,0,0,0-2.928,1.674c-1.083.748-2.786,2.127-2.743,3.592a5.429,5.429,0,0,0,1.656,3.608A8.148,8.148,0,0,0,17.076,31.805Z" fill-rule="evenodd"/>
  <path id="Path_383" data-name="Path 383" d="M22.642,12.356V18.1l-4.049,2.386,2.73-1.258v1.792s-7.436,2.918-7.343,6.26,3.466,5.213,3.466,5.213q.005-3.359.009-6.719L22.467,22.5v2.985l-.782,1.106-2.043,1.181v1.031L22.087,27.4v2.641l-2.211,1.278v4.351l-3.2,1.424s-6.549-2.111-6.774-8.5C9.9,19.424,19.2,18.211,22.642,12.356Z" fill="#ffa600" fill-rule="evenodd"/>
  <path id="Path_384" data-name="Path 384" d="M12.654,25.42c1.92-6.592,9.7-6.722,9.988-13.064C19.2,18.211,9.9,19.424,9.9,28.584c.175,4.979,4.1,7.572,6.774,8.5A10.121,10.121,0,0,1,12.654,25.42Z" fill="#fff212" fill-rule="evenodd"/>
  <path id="Path_385" data-name="Path 385" d="M18.753,20.411S8.348,26.166,16.828,32.08a6.494,6.494,0,0,1-2.848-4.8c-.093-3.342,7.343-6.26,7.343-6.26V19.226Z" fill="#fff212" fill-rule="evenodd"/>
  <path id="Path_386" data-name="Path 386" d="M22.467,22.5v2.985a7,7,0,0,0-5.02,7C17.454,26.391,17.611,25.668,22.467,22.5Z" fill="#fff212" fill-rule="evenodd"/>
  <path id="Path_387" data-name="Path 387" d="M11.6,27.376l5.023-2.9v9.656l-4.959,2.9Z" fill-rule="evenodd"/>
  <path id="Path_388" data-name="Path 388" d="M11.956,27.581l4.308-2.488v8.833l-4.249,2.484Z" fill="#96989a" fill-rule="evenodd"/>
  <path id="Path_389" data-name="Path 389" d="M11.089,24.664,18.016,19v4.874l-.582,1.288-6.371,3.678Z" fill-rule="evenodd"/>
  <path id="Path_390" data-name="Path 390" d="M11.446,24.835l6.214-5.079V23.8l-.5,1.114-5.732,3.308Z" fill="#2a2159" fill-rule="evenodd"/>
  <text id="_-_INTECH_FEST_-" data-name="- INTECH FEST -" transform="translate(16.228 40.407)" font-size="1" font-family="Helvetica-BoldOblique, Helvetica" font-weight="700" font-style="oblique"><tspan x="0" y="0">- INTECH FEST -</tspan></text>
  <path id="Path_391" data-name="Path 391" d="M19.169,39.489l-.451-.227H8.5L18.689,38.9l.48-.478.48.48,10.195.366H19.621Z" stroke="#000" stroke-width="0.031" fill-rule="evenodd"/>
  <text id="INFORMATION_AND_TECHNOLOGY" data-name="INFORMATION AND TECHNOLOGY" transform="translate(5.379 42.213)" font-size="2" font-family="Helvetica"><tspan x="0" y="0">INFORMATION AND TECHNOLOGY</tspan></text>
  <text id="FESTIVAL" transform="translate(10.789 45.46)" font-size="4" font-family="Helvetica"><tspan x="0" y="0">FESTIVAL</tspan></text>
  <path id="Path_392" data-name="Path 392" d="M18.937,46.073l-.451.227H8.273l10.184.366.48.48.48-.48L29.612,46.3H19.389Z" stroke="#000" stroke-width="0.031" fill-rule="evenodd"/>
  <path id="Path_393" data-name="Path 393" d="M19.005,9.342l-.2.1H14.356L18.8,9.6l.209.209.211-.209,4.443-.161H19.2Z" fill-rule="evenodd"/>
  <text id="UKM" transform="translate(17.663 7.304)" font-size="1" font-family="Helvetica"><tspan x="0" y="0">UKM</tspan></text>
  <text id="COMPUTER_CLUB" data-name="COMPUTER CLUB" transform="translate(11.769 8.858)" font-size="2" font-family="Helvetica"><tspan x="0" y="0">COMPUTER CLUB</tspan></text>
  <path id="Path_394" data-name="Path 394" d="M13.068,23.507l-1.622,1.328-.021,3.387Z" fill="#848688" fill-rule="evenodd"/>
  <path id="Path_395" data-name="Path 395" d="M13.068,23.507l-1.644,4.715.177-.239,6.058-8.227-3.8,3.109Z" fill="#727376" fill-rule="evenodd"/>
  <path id="Path_396" data-name="Path 396" d="M16.621,24.537l-1.788,1.269-.664.469-.211.15-.441.312-1.313.933-.246.173L11.6,28.1l-.178.125.178-.1.355-.205.236-.136,1.308-.757.532-.307.464-.268,1.767-1.019.357-.205.535-.311.5-1.114Z" fill="#4b4b4d" fill-rule="evenodd"/>
  <path id="Path_397" data-name="Path 397" d="M17.66,19.756V23.8l-6.235,4.422Z" fill="#606062" fill-rule="evenodd"/>
  <path id="Path_398" data-name="Path 398" d="M16.269,29.177s-1.865,1.508-1.276,2.839-2.978,4.4-2.978,4.4,2.655-3.883,1.743-5.016,2.505-5.553,2.505-5.553Z" fill="#606062" fill-rule="evenodd"/>
  <path id="Path_399" data-name="Path 399" d="M16.264,29.182a5.321,5.321,0,0,0-.882.955,3.87,3.87,0,0,0-.209.332c-.029.05-.054.1-.079.152a1.631,1.631,0,0,0-.1,1.4c.266.6-.311,1.545-1.023,2.409-.218.262-.448.516-.669.751a.285.285,0,0,0-.023.023c-.082.086-.162.168-.241.248-.562.567-1.023.964-1.023.964l1.288-.753.323-.189.029-.018L14.421,35l1.843-1.078V29.182Z" fill="#4b4b4d" fill-rule="evenodd"/>
  <path id="Path_400" data-name="Path 400" d="M16.264,25.842s-3.292,4.44-2.4,5.591-1.845,4.979-1.845,4.979,2.056-4,.9-4.886.6-4.1.6-4.1Z" fill="#727376" fill-rule="evenodd"/>
  <path id="Path_401" data-name="Path 401" d="M13.512,27.43s-1.494,2.777-.439,3.778-1.058,5.2-1.058,5.2,1.417-4.27.137-4.966a.93.93,0,0,1-.173-.12c0-.774-.009-1.6.005-2.457a7.31,7.31,0,0,1,.348-.749Z" fill="#848688" fill-rule="evenodd"/>
  <text id="_" data-name="&lt;/&gt;" transform="translate(25.804 30.756)" font-size="2" font-family="Impact"><tspan x="0" y="0">&lt;/&gt;</tspan></text>
  <path id="Path_402" data-name="Path 402" d="M23.238,28.218h6.638" fill="none" stroke="#000" stroke-width="0.189" fill-rule="evenodd"/>
  <line id="Line_35" data-name="Line 35" y2="3.69" transform="translate(25.279 28.218)" fill="none" stroke="#000" stroke-width="0.189"/>
  <line id="Line_36" data-name="Line 36" x2="0.867" transform="translate(25.845 28.716)" fill="none" stroke="#000" stroke-width="0.189"/>
  <line id="Line_37" data-name="Line 37" x2="2.066" transform="translate(25.845 29.048)" fill="none" stroke="#000" stroke-width="0.189"/>
  <line id="Line_38" data-name="Line 38" x2="1.881" transform="translate(25.845 31.077)" fill="none" stroke="#000" stroke-width="0.189"/>
  <line id="Line_39" data-name="Line 39" x2="0.94" transform="translate(25.845 31.447)" fill="none" stroke="#000" stroke-width="0.189"/>
  <line id="Line_40" data-name="Line 40" x2="0.867" transform="translate(23.834 28.716)" fill="none" stroke="#000" stroke-width="0.189"/>
  <line id="Line_41" data-name="Line 41" x2="0.867" transform="translate(23.834 29.066)" fill="none" stroke="#000" stroke-width="0.189"/>
  <line id="Line_42" data-name="Line 42" x2="0.867" transform="translate(23.834 29.398)" fill="none" stroke="#000" stroke-width="0.189"/>
  <line id="Line_43" data-name="Line 43" x2="0.867" transform="translate(23.834 29.75)" fill="none" stroke="#000" stroke-width="0.189"/>
  <line id="Line_44" data-name="Line 44" x2="2.025" transform="translate(23.254 30.119)" fill="none" stroke="#000" stroke-width="0.189"/>
  <circle id="Ellipse_62" data-name="Ellipse 62" cx="0.266" cy="0.266" r="0.266" transform="translate(23.643 27.365)" stroke="#282829" stroke-width="0.014"/>
  <circle id="Ellipse_63" data-name="Ellipse 63" cx="0.266" cy="0.266" r="0.266" transform="translate(24.439 27.365)" stroke="#282829" stroke-width="0.014"/>
</svg>
