<svg xmlns="http://www.w3.org/2000/svg" width="50" height="50" viewBox="0 0 50 50">
  <g id="Group_108" data-name="Group 108" transform="translate(-140 -25)">
    <rect id="Rectangle_24" data-name="Rectangle 24" width="50" height="50" rx="5" transform="translate(140 25)" fill="#383a57"/>
    <g id="SVG_LOGO_HEADER" transform="translate(-5530 -2909)">
      <g id="_2699525452208" transform="translate(5683 2943)">
        <path id="Path_7" data-name="Path 7" d="M18045.324,17388h7.645a.331.331,0,0,1,.227.094h0a.321.321,0,0,1,.1.229v5.578a.321.321,0,0,1-.1.229h0a.333.333,0,0,1-.227.1h-7.645a.334.334,0,0,1-.229-.1h0a.327.327,0,0,1-.094-.229v-5.578a.327.327,0,0,1,.094-.229h0A.332.332,0,0,1,18045.324,17388Zm7.645.3h-7.645c-.008,0-.012,0-.016,0v0s0,.008,0,.012v5.578c0,.006,0,.01,0,.012h0a.016.016,0,0,0,.016.008h7.645s.008,0,.014-.008h0s0-.006,0-.012v-5.578s0-.01,0-.012v0C18052.977,17388.307,18052.973,17388.3,18052.969,17388.3Z" transform="translate(-18028.662 -17368.91)" fill="#fff"/>
        <path id="Path_8" data-name="Path 8" d="M13687.08,13416.335a6.317,6.317,0,0,1-4.583,3.2m2.01-1.988.554.99m.3,2.8-.594-1.118m2.586-11.47-1.02.88m3.641,6.749a9.01,9.01,0,0,1-9.008,5.79h0m2.219-17.175a9.171,9.171,0,0,1,5.115,2.9m-6.536-.486h0a6.466,6.466,0,0,1,5.114,3m.237,8.152a7.857,7.857,0,0,1-6.081,2.358,8.045,8.045,0,0,1-3.033-.775m7.555-12.907a7.575,7.575,0,0,1,2.891,3.172m-2.771,5.959a5.223,5.223,0,0,1-4.509,2.1,5.392,5.392,0,0,1-1.715-.381" transform="translate(-13667.434 -13391.173)" fill="#fff" fill-rule="evenodd"/>
        <path id="Path_9" data-name="Path 9" d="M13638.277,13304.554a6.309,6.309,0,0,1-1.944,2.175,6.605,6.605,0,0,1-2.747,1.1l-.048-.3a6.359,6.359,0,0,0,2.387-.9l-.415-.745a5.1,5.1,0,0,1-.682.381,5.458,5.458,0,0,1-2.605.5,5.634,5.634,0,0,1-.9-.123,5.559,5.559,0,0,1-.866-.269l.113-.28a5.263,5.263,0,0,0,.816.254,5.034,5.034,0,0,0,.851.114,5.152,5.152,0,0,0,2.464-.47,4.959,4.959,0,0,0,1.914-1.565l.244.177a5.213,5.213,0,0,1-1.1,1.11l.417.748a5.976,5.976,0,0,0,1.837-2.058Zm-2.064,4.862-.449-.848c-.1.041-.2.08-.294.12a8.172,8.172,0,0,1-3.38.535,8.125,8.125,0,0,1-3.09-.789l.131-.273a7.745,7.745,0,0,0,1.447.527,8.043,8.043,0,0,0,1.526.233,7.835,7.835,0,0,0,3.254-.515,7.583,7.583,0,0,0,2.713-1.8l.218.209a7.832,7.832,0,0,1-2.251,1.621l.449.849a8.857,8.857,0,0,0,.979-.547,8.494,8.494,0,0,0,3.43-4.263l.284.1a8.8,8.8,0,0,1-3.551,4.417,9.435,9.435,0,0,1-5.6,1.477h0l-.006,0,.006-.149v-.152h.009A9.16,9.16,0,0,0,13636.213,13309.416Zm2.187-12.3-.811.7a6.078,6.078,0,0,1,.479.668l-.256.16a6.239,6.239,0,0,0-2.133-2.07,6.358,6.358,0,0,0-2.853-.864h-.009l.009-.15v-.151h.008a6.636,6.636,0,0,1,4.559,2.179l.807-.7-.01-.013a7.566,7.566,0,0,0-1.649-1.357l.158-.259a7.922,7.922,0,0,1,1.715,1.412,7.666,7.666,0,0,1,1.232,1.825l-.272.131A7.379,7.379,0,0,0,13638.4,13297.117Zm-4.122-4.117a9.452,9.452,0,0,1,2.854,1.052,9.123,9.123,0,0,1,2.344,1.894l-.227.2a8.793,8.793,0,0,0-2.265-1.83,9.1,9.1,0,0,0-2.764-1.018Z" transform="translate(-13618.498 -13279.32)" fill="#fff"/>
        <path id="Path_10" data-name="Path 10" d="M20342.307,23438a.306.306,0,1,1,0,.611.306.306,0,1,1,0-.611Z" transform="translate(-20322.627 -23410.916)" fill="#fff" fill-rule="evenodd"/>
        <path id="Path_11" data-name="Path 11" d="M16848.309,24170a.307.307,0,1,1-.309.3A.306.306,0,0,1,16848.309,24170Z" transform="translate(-16833.244 -24141.947)" fill="#fff" fill-rule="evenodd"/>
        <path id="Path_12" data-name="Path 12" d="M21237.307,15364a.308.308,0,1,1-.307.309A.309.309,0,0,1,21237.307,15364Z" transform="translate(-21216.443 -15347.584)" fill="#fff" fill-rule="evenodd"/>
        <path id="Path_13" data-name="Path 13" d="M19162.3,14869a.309.309,0,1,1-.3.309A.308.308,0,0,1,19162.3,14869Z" transform="translate(-19144.186 -14853.238)" fill="#fff" fill-rule="evenodd"/>
        <path id="Path_14" data-name="Path 14" d="M15689.306,26168a.308.308,0,1,1-.306.309A.307.307,0,0,1,15689.306,26168Z" transform="translate(-15675.775 -26137.305)" fill="#fff" fill-rule="evenodd"/>
        <path id="Path_15" data-name="Path 15" d="M5692.078,2968.038q0-3.63.009-7.261v-.241l6.919-4.514v4.557l-1.077,1.525-2.321,1.34v.214l2.942-1.7v4.205l-2.66,1.537v5.266l-4.27,1.9-.162-.053a10.663,10.663,0,0,1-1.314-.547,14.854,14.854,0,0,1-2.82-1.767,10.89,10.89,0,0,1-4.325-8.325v-.016a12.738,12.738,0,0,1,3.321-8.868,29.106,29.106,0,0,1,4.708-4.056c2.648-1.942,5.662-3.936,7.359-6.827l.829-1.412v8.8l-1.584.934v2.626l-.283.111c-.582.227-1.167.5-1.729.768a26.171,26.171,0,0,0-3.523,2.016c-1.3.9-3.349,2.557-3.3,4.321a6.533,6.533,0,0,0,1.993,4.342A9.724,9.724,0,0,0,5692.078,2968.038Z" transform="translate(-5683 -2943)" fill-rule="evenodd"/>
        <path id="Path_16" data-name="Path 16" d="M6034.329,4182v6.908l-4.872,2.873,3.286-1.514v2.153s-8.948,3.511-8.836,7.532,4.17,6.271,4.17,6.271q.006-4.042.011-8.083l6.029-3.934v3.594l-.938,1.331-2.46,1.419v1.243l2.942-1.7v3.179l-2.66,1.536v5.233l-3.849,1.716s-7.88-2.542-8.152-10.232C6019,4190.5,6030.19,4189.043,6034.329,4182Z" transform="translate(-6018.556 -4180.362)" fill="#ffa600" fill-rule="evenodd"/>
        <path id="Path_17" data-name="Path 17" d="M6022.313,4197.718c2.309-7.931,11.669-8.088,12.017-15.718-4.139,7.043-15.329,8.5-15.329,19.525.213,5.989,4.938,9.11,8.152,10.232A12.178,12.178,0,0,1,6022.313,4197.718Z" transform="translate(-6018.556 -4180.362)" fill="#fff212" fill-rule="evenodd"/>
        <path id="Path_18" data-name="Path 18" d="M9301.79,10438.424s-12.52,6.926-2.316,14.041c-1.177-.868-3.343-2.855-3.426-5.779-.113-4.021,8.834-7.531,8.834-7.531V10437Z" transform="translate(-9290.696 -10427.097)" fill="#fff212" fill-rule="evenodd"/>
        <path id="Path_19" data-name="Path 19" d="M12888.358,13418v3.594a8.417,8.417,0,0,0-6.039,8.422C12882.328,13422.68,12882.519,13421.81,12888.358,13418Z" transform="translate(-12872.799 -13404.155)" fill="#fff212" fill-rule="evenodd"/>
        <path id="Path_20" data-name="Path 20" d="M7564,15218.489l6.042-3.488v11.617l-5.965,3.486Z" transform="translate(-7561.514 -15198.781)" fill-rule="evenodd"/>
        <path id="Path_21" data-name="Path 21" d="M7890,15780.991l5.181-2.991v10.628l-5.111,2.986Z" transform="translate(-7887.083 -15761.036)" fill="#96989a" fill-rule="evenodd"/>
        <path id="Path_22" data-name="Path 22" d="M7078.031,10240.81l8.333-6.81v5.861l-.7,1.551-7.663,4.425Z" transform="translate(-7076.156 -10224.363)" fill-rule="evenodd"/>
        <path id="Path_23" data-name="Path 23" d="M7406.025,10925.108l7.475-6.107v4.863l-.605,1.34-6.9,3.98Z" transform="translate(-7403.723 -10908.459)" fill="#2a2159" fill-rule="evenodd"/>
        <path id="Path_24" data-name="Path 24" d="M7407.979,14333l-1.953,1.6-.025,4.076Z" transform="translate(-7403.723 -14317.947)" fill="#848688" fill-rule="evenodd"/>
        <path id="Path_25" data-name="Path 25" d="M7407.979,10923.513l-1.979,5.672.213-.288,7.288-9.9-4.574,3.737Z" transform="translate(-7403.723 -10908.459)" fill="#727376" fill-rule="evenodd"/>
        <path id="Path_26" data-name="Path 26" d="M7412.25,14599.886l-2.151,1.528-.8.564-.254.181-.529.376-1.582,1.121-.3.21-.426.3-.214.151.214-.121.428-.248.283-.163,1.574-.908.64-.371.559-.322,2.123-1.227.43-.247.645-.372.605-1.341Z" transform="translate(-7403.723 -14583.595)" fill="#4b4b4d" fill-rule="evenodd"/>
        <path id="Path_27" data-name="Path 27" d="M7413.5,10919v4.863l-7.5,5.32Z" transform="translate(-7403.723 -10908.459)" fill="#606062" fill-rule="evenodd"/>
        <path id="Path_28" data-name="Path 28" d="M7948.119,16462.012s-2.244,1.816-1.534,3.414-3.584,5.289-3.584,5.289,3.2-4.668,2.1-6.035,3.013-6.68,3.013-6.68Z" transform="translate(-7940.014 -16440.139)" fill="#606062" fill-rule="evenodd"/>
        <path id="Path_29" data-name="Path 29" d="M7948.111,19499a6.51,6.51,0,0,0-1.059,1.146,4.45,4.45,0,0,0-.252.4c-.033.059-.064.121-.094.182a1.963,1.963,0,0,0-.122,1.68c.318.721-.373,1.859-1.232,2.9-.26.314-.537.619-.8.9a.267.267,0,0,1-.028.025c-.1.105-.194.2-.29.3-.676.688-1.23,1.164-1.23,1.164l1.551-.908.387-.225.036-.021.919-.537,2.216-1.3V19499Z" transform="translate(-7940.014 -19477.117)" fill="#4b4b4d" fill-rule="evenodd"/>
        <path id="Path_30" data-name="Path 30" d="M7948.111,16458s-3.959,5.34-2.89,6.727-2.221,5.988-2.221,5.988,2.473-4.812,1.082-5.877.719-4.928.719-4.928Z" transform="translate(-7940.014 -16440.139)" fill="#727376" fill-rule="evenodd"/>
        <path id="Path_31" data-name="Path 31" d="M7909.349,17903s-1.8,3.342-.527,4.545-1.274,6.262-1.274,6.262,1.7-5.137.166-5.973a1.291,1.291,0,0,1-.208-.145c0-.934-.011-1.928.007-2.957a8.9,8.9,0,0,1,.417-.9Z" transform="translate(-7904.561 -17883.227)" fill="#848688" fill-rule="evenodd"/>
        <text id="_" data-name="&lt;/&gt;" transform="translate(20 23)" fill="#fff" font-size="2" font-family="Impact"><tspan x="0" y="0">&lt;/&gt;</tspan></text>
        <path id="Path_32" data-name="Path 32" d="M18159,18622h7.988" transform="translate(-18142.512 -18601.277)" fill="none" fill-rule="evenodd"/>
        <path id="Path_33" data-name="Path 33" d="M18159,18536h7.988v.229H18159Z" transform="translate(-18142.512 -18515.393)" fill="#fff"/>
        <line id="Line_4" data-name="Line 4" y2="6" transform="translate(19 20)" fill="none"/>
        <path id="Path_34" data-name="Path 34" d="M19932.229,18622v4.439H19932V18622Z" transform="translate(-19913.17 -18601.277)" fill="#fff"/>
        <line id="Line_5" data-name="Line 5" transform="translate(20 21)" fill="none"/>
        <path id="Path_35" data-name="Path 35" d="M20532,18988h1.043v.229H20532Z" transform="translate(-20512.375 -18966.793)" fill="#fff"/>
        <line id="Line_6" data-name="Line 6" x2="2" transform="translate(20 21)" fill="none"/>
        <path id="Path_36" data-name="Path 36" d="M20532,19291h2.486v.227H20532Z" transform="translate(-20512.375 -19269.395)" fill="#fff"/>
        <line id="Line_7" data-name="Line 7" x2="2" transform="translate(20 24)" fill="none"/>
        <path id="Path_37" data-name="Path 37" d="M20532,21138h2.264v.229H20532Z" transform="translate(-20512.375 -21113.953)" fill="#fff"/>
        <line id="Line_8" data-name="Line 8" transform="translate(20 25)" fill="none"/>
        <path id="Path_38" data-name="Path 38" d="M20532,21474h1.133v.227H20532Z" transform="translate(-20512.375 -21449.508)" fill="#fff"/>
        <line id="Line_9" data-name="Line 9" x2="2" transform="translate(17 21)" fill="none"/>
        <path id="Path_39" data-name="Path 39" d="M18701,18988h1.041v.229H18701Z" transform="translate(-18683.797 -18966.793)" fill="#fff"/>
        <line id="Line_10" data-name="Line 10" x2="2" transform="translate(17 21)" fill="none"/>
        <path id="Path_40" data-name="Path 40" d="M18701,19308h1.041v.225H18701Z" transform="translate(-18683.797 -19286.373)" fill="#fff"/>
        <line id="Line_11" data-name="Line 11" x2="2" transform="translate(17 22)" fill="none"/>
        <path id="Path_41" data-name="Path 41" d="M18701,19610h1.041v.229H18701Z" transform="translate(-18683.797 -19587.973)" fill="#fff"/>
        <line id="Line_12" data-name="Line 12" x2="2" transform="translate(17 22)" fill="none"/>
        <path id="Path_42" data-name="Path 42" d="M18701,19929h1.041v.229H18701Z" transform="translate(-18683.797 -19906.551)" fill="#fff"/>
        <line id="Line_13" data-name="Line 13" x2="3" transform="translate(16 23)" fill="none"/>
        <path id="Path_43" data-name="Path 43" d="M18174,20265h2.438v.227H18174Z" transform="translate(-18157.49 -20242.105)" fill="#fff"/>
        <ellipse id="Ellipse_2" data-name="Ellipse 2" cx="0.5" rx="0.5" transform="translate(17 20)"/>
        <path id="Path_44" data-name="Path 44" d="M18521.328,17839a.336.336,0,0,1,.234.1h0a.318.318,0,0,1,.094.23.328.328,0,0,1-.094.23h0a.343.343,0,0,1-.234.1.326.326,0,0,1-.23-.1h0a.316.316,0,0,1-.1-.23.306.306,0,0,1,.1-.23h0A.32.32,0,0,1,18521.328,17839Zm.219.105a.311.311,0,0,0-.437,0,.311.311,0,1,0,.531.223A.307.307,0,0,0,18521.547,17839.105Z" transform="translate(-18504.033 -17819.313)" fill="#fff"/>
        <ellipse id="Ellipse_3" data-name="Ellipse 3" cx="0.5" rx="0.5" transform="translate(18 20)"/>
        <path id="Path_45" data-name="Path 45" d="M19247.326,17839a.328.328,0,0,1,.232.1h0a.312.312,0,0,1,.1.23.322.322,0,0,1-.1.23h0a.335.335,0,0,1-.232.1.33.33,0,0,1-.23-.1h0a.322.322,0,0,1-.1-.23.312.312,0,0,1,.1-.23h0A.323.323,0,0,1,19247.326,17839Zm.223.105a.332.332,0,0,0-.223-.09.318.318,0,0,0-.219.09.314.314,0,0,0,0,.443h0a.3.3,0,0,0,.219.09.314.314,0,0,0,.223-.09.318.318,0,0,0,0-.443Z" transform="translate(-19229.072 -17819.313)" fill="#fff"/>
      </g>
    </g>
  </g>
</svg>
