<svg xmlns="http://www.w3.org/2000/svg" width="37" height="24.667" viewBox="0 0 37 24.667">
  <g id="mail" transform="translate(0 -6.167)">
    <g id="Group_100" data-name="Group 100">
      <path id="Path_373" data-name="Path 373" d="M35.1,6.167H1.9A1.9,1.9,0,0,0,0,8.064V28.936a1.9,1.9,0,0,0,1.9,1.9H35.1a1.9,1.9,0,0,0,1.9-1.9V8.064A1.9,1.9,0,0,0,35.1,6.167ZM34.39,7.59l-14.8,11.1a1.984,1.984,0,0,1-2.183,0L2.609,7.59ZM26.485,19.422l8.064,9.962c.008.01.018.018.027.027H2.424c.009-.009.019-.017.027-.027l8.064-9.962a.712.712,0,0,0-1.106-.9L1.423,28.391V8.479L16.555,19.828a3.4,3.4,0,0,0,3.89,0L35.577,8.479V28.391l-7.985-9.864a.712.712,0,0,0-1.106.9Z" fill="#fff"/>
    </g>
  </g>
</svg>
