<svg xmlns="http://www.w3.org/2000/svg" width="36" height="36" viewBox="0 0 36 36">
  <g id="angelo" transform="translate(-0.581 -0.581)">
    <g id="Group_85" data-name="Group 85">
      <g id="Group_59" data-name="Group 59">
        <path id="Path_339" data-name="Path 339" d="M11.032,30.774,7.833,29.5a4.146,4.146,0,0,1-2.456-4.959l-.708-.708a4.053,4.053,0,0,1-.505-5.11l.017-.023-.674-.674A4.053,4.053,0,0,1,3,12.914l.017-.023-.708-.708a3.925,3.925,0,0,1-1.15-2.775,1.278,1.278,0,0,1,2.1-.981l6.41,5.342A3.325,3.325,0,0,0,9.29,15.3a3.3,3.3,0,0,0,1.55,2.8l.308.192A3.487,3.487,0,0,0,9.29,21.374v7.078A2.317,2.317,0,0,0,11.061,30.7v.006Z" fill="#e6e9ed"/>
      </g>
      <g id="Group_60" data-name="Group 60">
        <path id="Path_340" data-name="Path 340" d="M34.142,12.89l.017.023a4.053,4.053,0,0,1-.505,5.11l-.674.674L33,18.72a4.053,4.053,0,0,1-.505,5.11l-.708.708a4.178,4.178,0,0,1,.151,1.1A4.156,4.156,0,0,1,29.328,29.5l-3.2,1.277L26.1,30.71V30.7a2.317,2.317,0,0,0,1.771-2.253V21.374a3.487,3.487,0,0,0-1.858-3.083l.308-.192a3.3,3.3,0,0,0,1.55-2.8,3.325,3.325,0,0,0-.377-1.533L33.9,8.425a1.282,1.282,0,0,1,2.1.981,3.925,3.925,0,0,1-1.15,2.775Z" fill="#e6e9ed"/>
      </g>
      <g id="Group_61" data-name="Group 61">
        <path id="Path_341" data-name="Path 341" d="M26.129,30.774,28.452,36H24.968l-1.742-5.226h2.323a2.143,2.143,0,0,0,.552-.07v.006Z" fill="#ccd1d9"/>
      </g>
      <g id="Group_62" data-name="Group 62">
        <path id="Path_342" data-name="Path 342" d="M20.9,30.774h2.323L24.968,36H21.484l-1.2-5.406A1.144,1.144,0,0,0,20.9,30.774Z" fill="#ccd1d9"/>
      </g>
      <g id="Group_63" data-name="Group 63">
        <path id="Path_343" data-name="Path 343" d="M20.282,30.594,21.484,36H15.677l1.2-5.406a1.051,1.051,0,0,0,.2-.163,1.135,1.135,0,0,0,.343-.819V28.347a1.723,1.723,0,0,0,1.161-1.637,1.738,1.738,0,0,0,.511,1.231,1.648,1.648,0,0,0,.65.406v1.266a1.135,1.135,0,0,0,.343.819A1.051,1.051,0,0,0,20.282,30.594Z" fill="#ccd1d9"/>
      </g>
      <g id="Group_64" data-name="Group 64">
        <path id="Path_344" data-name="Path 344" d="M16.258,30.774a1.144,1.144,0,0,0,.621-.18L15.677,36H12.194l1.742-5.226Z" fill="#ccd1d9"/>
      </g>
      <g id="Group_65" data-name="Group 65">
        <path id="Path_345" data-name="Path 345" d="M11.613,30.774h2.323L12.194,36H8.71l2.323-5.226.029-.064V30.7A2.143,2.143,0,0,0,11.613,30.774Z" fill="#ccd1d9"/>
      </g>
      <g id="Group_66" data-name="Group 66">
        <path id="Path_346" data-name="Path 346" d="M12.774,29.613a1.165,1.165,0,0,0,1.161,1.161H11.613a2.143,2.143,0,0,1-.552-.07A2.317,2.317,0,0,1,9.29,28.452V21.374a3.487,3.487,0,0,1,1.858-3.083,3.615,3.615,0,0,1,.871-.314L14,17.535a1.726,1.726,0,0,0-.064.465A1.744,1.744,0,0,0,15.1,19.643H15.1a.563.563,0,0,0-.006.1,1.74,1.74,0,0,0,1.742,1.742c.064,0,.122-.006.186-.012l.006.029a1.168,1.168,0,0,0-.935.952l-.337,2.026a.58.58,0,0,1-.575.488h-2.41Z" fill="#ccd1d9"/>
      </g>
      <g id="Group_67" data-name="Group 67">
        <path id="Path_347" data-name="Path 347" d="M16.258,30.774H13.935a1.165,1.165,0,0,1-1.161-1.161V24.968H15.1v4.645A1.165,1.165,0,0,0,16.258,30.774Z" fill="#ccd1d9"/>
      </g>
      <g id="Group_68" data-name="Group 68">
        <path id="Path_348" data-name="Path 348" d="M27.871,21.374v7.078A2.317,2.317,0,0,1,26.1,30.7a2.143,2.143,0,0,1-.552.07H23.226a1.165,1.165,0,0,0,1.161-1.161V24.968h-2.41a.58.58,0,0,1-.575-.488l-.337-2.026a1.168,1.168,0,0,0-.935-.952l.006-.029c.064.006.122.012.186.012a1.74,1.74,0,0,0,1.742-1.742.563.563,0,0,0-.006-.1h.006A1.744,1.744,0,0,0,23.226,18a1.726,1.726,0,0,0-.064-.465l1.98.441a3.615,3.615,0,0,1,.871.314,3.487,3.487,0,0,1,1.858,3.083Z" fill="#ccd1d9"/>
      </g>
      <g id="Group_69" data-name="Group 69">
        <path id="Path_349" data-name="Path 349" d="M23.226,30.774H20.9a1.165,1.165,0,0,0,1.161-1.161V24.968h2.323v4.645A1.165,1.165,0,0,1,23.226,30.774Z" fill="#ccd1d9"/>
      </g>
      <g id="Group_70" data-name="Group 70">
        <path id="Path_350" data-name="Path 350" d="M17.419,29.613a1.135,1.135,0,0,1-.343.819,1.051,1.051,0,0,1-.2.163,1.144,1.144,0,0,1-.621.18A1.165,1.165,0,0,1,15.1,29.613V28.452h1.742a1.61,1.61,0,0,0,.581-.1v1.266Z" fill="#e6e9ed"/>
      </g>
      <g id="Group_71" data-name="Group 71">
        <path id="Path_351" data-name="Path 351" d="M20.323,28.452h1.742v1.161A1.165,1.165,0,0,1,20.9,30.774a1.144,1.144,0,0,1-.621-.18,1.051,1.051,0,0,1-.2-.163,1.135,1.135,0,0,1-.343-.819V28.347a1.61,1.61,0,0,0,.581.1Z" fill="#e6e9ed"/>
      </g>
      <g id="Group_72" data-name="Group 72">
        <path id="Path_352" data-name="Path 352" d="M15.677,10.01a1.745,1.745,0,0,1-1.161.441,1.61,1.61,0,0,1-.581-.1v2.427a4.654,4.654,0,0,0,1.359,3.286c.07.07.145.139.221.2A1.754,1.754,0,0,0,14,17.535l-1.98.441a3.615,3.615,0,0,0-.871.314l-.308-.192a3.3,3.3,0,0,1-1.55-2.8,3.325,3.325,0,0,1,.377-1.533,3.394,3.394,0,0,1,.586-.8l.2-.2V8.71a5.8,5.8,0,0,1,1.829-4.233c1.121.79,3.519,1.33,6.3,1.33.563,0,1.115-.023,1.637-.064l.1,1.225.122.064A1.864,1.864,0,0,1,21.484,8.71a1.776,1.776,0,0,1-.29.964,1.734,1.734,0,0,1-1.452.778h-2.9A1.707,1.707,0,0,1,15.683,10Z" fill="#b27946"/>
      </g>
      <g id="Group_73" data-name="Group 73">
        <path id="Path_353" data-name="Path 353" d="M26.907,12.972a3.394,3.394,0,0,1,.586.8,3.325,3.325,0,0,1,.377,1.533,3.3,3.3,0,0,1-1.55,2.8l-.308.192a3.615,3.615,0,0,0-.871-.314l-1.98-.441a1.754,1.754,0,0,0-1.515-1.272,4.628,4.628,0,0,0,1.579-3.49V10.347a1.61,1.61,0,0,1-.581.1,1.742,1.742,0,0,1-1.452-.778,1.776,1.776,0,0,0,.29-.964,1.864,1.864,0,0,0-1.039-1.678l-.122-.064-.1-1.225a10.289,10.289,0,0,0,4.663-1.266A5.8,5.8,0,0,1,26.71,8.71v4.065Z" fill="#b27946"/>
      </g>
      <g id="Group_74" data-name="Group 74">
        <path id="Path_354" data-name="Path 354" d="M13.935,2.323c0,.639,2.079,1.161,4.645,1.161s4.645-.523,4.645-1.161c0-.557-1.591-1.028-3.71-1.138,3.408.151,6.033,1.121,6.033,2.3a1.293,1.293,0,0,1-.668.993,10.289,10.289,0,0,1-4.663,1.266c-.523.041-1.074.064-1.637.064-2.781,0-5.179-.54-6.3-1.33a1.293,1.293,0,0,1-.668-.993c0-1.179,2.625-2.148,6.033-2.3C15.526,1.295,13.935,1.765,13.935,2.323Z" fill="#fcd770"/>
      </g>
      <g id="Group_75" data-name="Group 75">
        <path id="Path_355" data-name="Path 355" d="M21.646,16.264a1.754,1.754,0,0,1,1.515,1.272,1.726,1.726,0,0,1,.064.465,1.744,1.744,0,0,1-1.161,1.643h-.006a1.729,1.729,0,0,0-1.028-1.492,2.621,2.621,0,0,0,.2-.708l.134-.952a2.634,2.634,0,0,0,.279-.226Z" fill="#fcd770"/>
      </g>
      <g id="Group_76" data-name="Group 76">
        <path id="Path_356" data-name="Path 356" d="M20.137,21.472l-.006.029a1.269,1.269,0,0,0-.209-.017H17.239a1.269,1.269,0,0,0-.209.017l-.006-.029a1.734,1.734,0,0,0,1.556-1.73A1.734,1.734,0,0,0,20.137,21.472Z" fill="#fcd770"/>
      </g>
      <g id="Group_77" data-name="Group 77">
        <path id="Path_357" data-name="Path 357" d="M14,17.535a1.754,1.754,0,0,1,1.515-1.272,2.634,2.634,0,0,0,.279.226l.134.952a2.621,2.621,0,0,0,.2.708A1.729,1.729,0,0,0,15.1,19.643H15.1A1.744,1.744,0,0,1,13.935,18,1.726,1.726,0,0,1,14,17.535Z" fill="#fcd770"/>
      </g>
      <g id="Group_78" data-name="Group 78">
        <path id="Path_358" data-name="Path 358" d="M22.059,19.643a.563.563,0,0,1,.006.1,1.74,1.74,0,0,1-1.742,1.742c-.064,0-.122-.006-.186-.012a1.734,1.734,0,0,1-1.556-1.73,2.687,2.687,0,0,0,2.45-1.591A1.729,1.729,0,0,1,22.059,19.643Z" fill="#fcd770"/>
      </g>
      <g id="Group_79" data-name="Group 79">
        <path id="Path_359" data-name="Path 359" d="M18.581,19.742a1.734,1.734,0,0,1-1.556,1.73c-.064.006-.122.012-.186.012A1.74,1.74,0,0,1,15.1,19.742a.563.563,0,0,1,.006-.1,1.729,1.729,0,0,1,1.028-1.492,2.687,2.687,0,0,0,2.45,1.591Z" fill="#fcd770"/>
      </g>
      <g id="Group_80" data-name="Group 80">
        <path id="Path_360" data-name="Path 360" d="M18.581,21.484V26.71a1.723,1.723,0,0,1-1.161,1.637,1.61,1.61,0,0,1-.581.1H15.1V24.968h.087a.58.58,0,0,0,.575-.488l.337-2.026a1.168,1.168,0,0,1,.935-.952,1.269,1.269,0,0,1,.209-.017Z" fill="#f0d0b4"/>
      </g>
      <g id="Group_81" data-name="Group 81">
        <path id="Path_361" data-name="Path 361" d="M19.922,21.484a1.269,1.269,0,0,1,.209.017,1.168,1.168,0,0,1,.935.952L21.4,24.48a.58.58,0,0,0,.575.488h.087v3.484H20.323a1.61,1.61,0,0,1-.581-.1,1.648,1.648,0,0,1-.65-.406,1.738,1.738,0,0,1-.511-1.231V21.484Z" fill="#f0d0b4"/>
      </g>
      <g id="Group_82" data-name="Group 82">
        <path id="Path_362" data-name="Path 362" d="M21.368,16.49l-.134.952a2.621,2.621,0,0,1-.2.708,2.682,2.682,0,0,1-4.9,0,2.621,2.621,0,0,1-.2-.708l-.134-.952a4.645,4.645,0,0,0,5.574,0Z" fill="#f0d0b4"/>
      </g>
      <g id="Group_83" data-name="Group 83">
        <path id="Path_363" data-name="Path 363" d="M13.935,10.347a1.61,1.61,0,0,0,.581.1,1.745,1.745,0,0,0,1.161-.441L15.683,10a1.707,1.707,0,0,0,1.155.447h2.9a1.734,1.734,0,0,0,1.452-.778,1.742,1.742,0,0,0,1.452.778,1.61,1.61,0,0,0,.581-.1v2.427a4.628,4.628,0,0,1-1.579,3.49,2.634,2.634,0,0,1-.279.226,4.645,4.645,0,0,1-5.574,0,2.634,2.634,0,0,1-.279-.226c-.075-.064-.151-.134-.221-.2a4.654,4.654,0,0,1-1.359-3.286V10.353Z" fill="#f0d0b4"/>
      </g>
      <g id="Group_84" data-name="Group 84">
        <path id="Path_364" data-name="Path 364" d="M16.258,12.774H20.9a2.323,2.323,0,1,1-4.645,0Z" fill="#ff826e"/>
      </g>
    </g>
    <g id="Group_86" data-name="Group 86">
      <path id="Path_365" data-name="Path 365" d="M18.581,15.677a2.907,2.907,0,0,0,2.9-2.9v-.581H15.677v.581A2.907,2.907,0,0,0,18.581,15.677Zm1.643-2.323a1.742,1.742,0,0,1-3.285,0Z"/>
      <path id="Path_366" data-name="Path 366" d="M35.419,15.161a4.6,4.6,0,0,0-.555-2.173l.4-.4a4.474,4.474,0,0,0,1.319-3.183,1.859,1.859,0,0,0-3.05-1.428L27.62,12.905a3.967,3.967,0,0,0-.3-.346L27.29,8.71a6.414,6.414,0,0,0-1.581-4.2,1.535,1.535,0,0,0,.42-1.021c0-1.816-3.448-2.805-7.019-2.895-.226-.007-.412-.009-.53-.009s-.3,0-.53.009c-3.57.089-7.019,1.078-7.019,2.895a1.535,1.535,0,0,0,.42,1.021,6.414,6.414,0,0,0-1.581,4.2v3.824l-.025.025a3.967,3.967,0,0,0-.3.346L3.631,7.979A1.86,1.86,0,0,0,.581,9.408,4.473,4.473,0,0,0,1.9,12.591l.4.4a4.594,4.594,0,0,0,.8,5.446l.359.359a4.6,4.6,0,0,0,.8,5.447l.486.486a4.759,4.759,0,0,0-.1.916,4.707,4.707,0,0,0,2.972,4.391l2.639,1.056-2.44,5.491H29.345L26.9,31.089l2.639-1.056a4.658,4.658,0,0,0,2.872-5.306l.486-.486a4.594,4.594,0,0,0,.8-5.447l.359-.359a4.6,4.6,0,0,0,1.356-3.274ZM22.487,2.323a10.147,10.147,0,0,1-3.907.581,10.147,10.147,0,0,1-3.907-.581,10.147,10.147,0,0,1,3.907-.581A10.147,10.147,0,0,1,22.487,2.323Zm-9.093.234c.395,1.43,4.357,1.508,5.186,1.508s4.791-.078,5.186-1.508c.789.323,1.2.676,1.2.927,0,.591-2.255,1.742-6.387,1.742s-6.387-1.151-6.387-1.742C12.194,3.232,12.606,2.879,13.394,2.557ZM11.032,13.015V8.71a5.245,5.245,0,0,1,1.35-3.5,14.224,14.224,0,0,0,6.2,1.176,14.224,14.224,0,0,0,6.2-1.176,5.245,5.245,0,0,1,1.35,3.5v4.3l.365.365a2.717,2.717,0,0,1-.48,4.225l-.044.027a4.12,4.12,0,0,0-.7-.225l-1.677-.373a2.292,2.292,0,0,0-.917-1.023,5.2,5.2,0,0,0,1.132-3.238V10.709a2.315,2.315,0,0,0-1.161-4.322V7.548a1.161,1.161,0,1,1-.755,2.039,2.317,2.317,0,0,0,.175-.878,2.446,2.446,0,0,0-1.36-2.2l-.123-.061-.52,1.039.123.061A1.291,1.291,0,0,1,20.9,8.71a1.162,1.162,0,0,1-1.161,1.161h-2.9A1.162,1.162,0,0,1,15.677,8.71,1.291,1.291,0,0,1,16.4,7.548l.123-.061L16,6.449l-.123.061a2.446,2.446,0,0,0-1.359,2.2,2.293,2.293,0,0,0,.3,1.117,1.149,1.149,0,0,1-.3.044,1.161,1.161,0,1,1,0-2.323V6.387a2.315,2.315,0,0,0-1.161,4.322v2.065a5.2,5.2,0,0,0,1.132,3.238,2.3,2.3,0,0,0-.917,1.023l-1.677.373a4.12,4.12,0,0,0-.7.225l-.043-.027a2.717,2.717,0,0,1-.481-4.225ZM27.29,28.452a1.744,1.744,0,0,1-1.742,1.742h-.687a1.722,1.722,0,0,0,.107-.581V25.548h1.161V24.387H21.976l-.339-2.028a1.746,1.746,0,0,0-.21-.587,2.311,2.311,0,0,0,1.189-1.747,2.323,2.323,0,0,0,1.169-1.758l1.232.273a2.885,2.885,0,0,1,2.274,2.834Zm-17.419,0V21.375a2.886,2.886,0,0,1,2.273-2.834l1.232-.273a2.321,2.321,0,0,0,1.169,1.758,2.311,2.311,0,0,0,1.189,1.747,1.746,1.746,0,0,0-.21.587l-.337,2.028H11.032v1.161h1.161v4.065a1.722,1.722,0,0,0,.107.581h-.687a1.744,1.744,0,0,1-1.742-1.742Zm4.645-17.419a2.312,2.312,0,0,0,1.168-.319,2.3,2.3,0,0,0,1.154.319h2.9a2.3,2.3,0,0,0,1.446-.52,2.312,2.312,0,0,0,1.457.52v1.742a4.065,4.065,0,0,1-8.129,0ZM22.4,18.707a2.311,2.311,0,0,0-.679-.813,3.126,3.126,0,0,0,.088-.369l.087-.607a1.147,1.147,0,0,1,.5,1.79Zm-.913,1.035a1.159,1.159,0,0,1-2.207.5,3.278,3.278,0,0,0,1.916-1.248A1.152,1.152,0,0,1,21.484,19.742Zm1.742,10.452h-.687a1.722,1.722,0,0,0,.107-.581V25.548h1.161v4.065A.582.582,0,0,1,23.226,30.194Zm-1.742-1.161v.581a.581.581,0,0,1-1.161,0v-.581Zm0-1.161H20.323a1.162,1.162,0,0,1-1.161-1.161V22.065h.758a.579.579,0,0,1,.573.485l.339,2.028a1.154,1.154,0,0,0,.653.858Zm-7.548,2.323a.582.582,0,0,1-.581-.581V25.548h1.161v4.065a1.722,1.722,0,0,0,.107.581Zm2.9-.581a.581.581,0,0,1-1.161,0v-.581h1.161Zm0-1.742H15.677V25.435a1.152,1.152,0,0,0,.653-.857l.339-2.028a.579.579,0,0,1,.573-.485H18V26.71A1.162,1.162,0,0,1,16.839,27.871Zm-2.075-9.164a1.147,1.147,0,0,1,.5-1.79l.087.608a3.206,3.206,0,0,0,.088.368,2.327,2.327,0,0,0-.678.813Zm3.817.455a2.1,2.1,0,0,1-2.021-1.568,5.222,5.222,0,0,0,4.042,0A2.1,2.1,0,0,1,18.581,19.161Zm-2.612-.171a3.276,3.276,0,0,0,1.916,1.248,1.156,1.156,0,1,1-1.916-1.248ZM14.354,31.355h1.761l-.9,4.065H13Zm3.048-.438a1.733,1.733,0,0,0,.6-1.3v-.9a2.323,2.323,0,0,0,.581-.48,2.323,2.323,0,0,0,.581.48v.9a1.733,1.733,0,0,0,.6,1.3l1,4.5H16.4Zm3.645.438h1.761l1.355,4.065H21.95ZM5.818,25.8l.739.739.821-.821-2.3-2.3a3.432,3.432,0,0,1-.753-3.756L5.4,20.733l.821-.821-2.3-2.3a3.432,3.432,0,0,1-.753-3.756l1.649,1.649.821-.821L2.72,11.77a3.321,3.321,0,0,1-.978-2.362.7.7,0,0,1,1.146-.537l6.074,5.061a3.868,3.868,0,0,0,1.16,4.362,4.038,4.038,0,0,0-1.412,3.08v7.076a2.853,2.853,0,0,0,.133.822l-.793-.317A3.546,3.546,0,0,1,5.818,25.8Zm5.6,5.535c.066,0,.128.02.195.02H13.13l-1.355,4.065H9.6Zm13.968,4.084-1.355-4.065h1.517c.067,0,.129-.015.195-.02l1.815,4.084ZM33.1,20.968a3.446,3.446,0,0,1-1.016,2.453l-2.3,2.3.821.821.739-.739a3.543,3.543,0,0,1-2.231,3.155l-.793.318a2.849,2.849,0,0,0,.133-.821V21.375a4.038,4.038,0,0,0-1.412-3.08A3.871,3.871,0,0,0,28.2,13.933l6.074-5.061a.7.7,0,0,1,1.145.537,3.32,3.32,0,0,1-.978,2.362l-2.916,2.916.821.821L34,13.858a3.432,3.432,0,0,1-.753,3.756l-2.3,2.3.821.821,1.068-1.068a3.442,3.442,0,0,1,.264,1.3Z"/>
    </g>
  </g>
</svg>
