<svg xmlns="http://www.w3.org/2000/svg" width="418" height="329.949" viewBox="0 0 418 329.949">
  <g id="mind_map" transform="translate(-67.808 -58.889)">
    <rect id="Rectangle_202" data-name="Rectangle 202" width="317.337" height="250.122" transform="translate(155.063 58.889)" fill="#e6e6e6"/>
    <path id="Path_403" data-name="Path 403" d="M188.033,219.252s22.2,17.115,14.958,28.337-11.584.13-11.584,18.954S189.959,309,189.959,309H162.911l6.226-89.238Z" opacity="0.08"/>
    <ellipse id="Ellipse_64" data-name="Ellipse 64" cx="107.15" cy="19.099" rx="107.15" ry="19.099" transform="translate(67.808 350.64)" fill="#e6e6e6" opacity="0.45"/>
    <path id="Path_404" data-name="Path 404" d="M138.962,194.651l3.591,10.787-8.529,5.415-3.07-18.693Z" fill="#f4a28c"/>
    <path id="Path_405" data-name="Path 405" d="M128.015,181.749a6.719,6.719,0,0,1,11.106-1.868c3.634,3.881,8.007,10.049,3.055,13.394-7.573,5.14-14.48-4.46-14.48-4.46a12.192,12.192,0,0,1,.319-7.066Z" fill="#f4a28c"/>
    <path id="Path_406" data-name="Path 406" d="M133.561,188.352s-1.94-1.622-2.824.7,2.548,3.417,3.576,2.244S133.561,188.352,133.561,188.352Z" fill="#f4a28c"/>
    <path id="Path_407" data-name="Path 407" d="M126.77,210.955s-30.538,18.491-34.549,61.886a15.044,15.044,0,0,0,11.4,16.087l35.794,8.688Z" fill="#68e1fd"/>
    <path id="Path_408" data-name="Path 408" d="M126.77,210.955s-30.538,18.491-34.549,61.886a15.044,15.044,0,0,0,11.4,16.087l35.794,8.688Z" fill="#fff" opacity="0.2"/>
    <path id="Path_409" data-name="Path 409" d="M198.5,227.766c-4.749-11.83-17.376-25.383-46.943-36.286l-2.042,6.545,32.927,39.3C189.38,245.547,202.513,237.713,198.5,227.766Z" fill="#68e1fd"/>
    <rect id="Rectangle_203" data-name="Rectangle 203" width="51.634" height="33.767" transform="translate(92.664 285.187) rotate(-24.68)" fill="#ffd200"/>
    <path id="Path_410" data-name="Path 410" d="M134.661,185.557s4.04,11.584-3,10.816S128.493,190.7,125,185.557s-1.651-8.6,3.678-13.1c2.433-2.056,4.069-3.026,5.053-4.112a3.765,3.765,0,0,1,6.328.9C141.9,173.655,141.9,179.548,134.661,185.557Z" fill="#24285b"/>
    <path id="Path_411" data-name="Path 411" d="M119.7,220.091A24.615,24.615,0,0,1,135.11,206.64c13.032-3.924,37.85-12.148,45.177,0,10.034,16.724-5.4,82.361-5.4,82.361l-43.873,3.4S106.875,248.877,119.7,220.091Z" fill="#68e1fd"/>
    <path id="Path_412" data-name="Path 412" d="M174.886,289l-5.777,75.425h-9.122l-8.152-58.6L131.664,292.4Z" fill="#24285b"/>
    <path id="Path_413" data-name="Path 413" d="M131.664,292.4l-12.583,72.022h9.774l21.126-59.83Z" fill="#24285b"/>
    <path id="Path_414" data-name="Path 414" d="M138.9,205.438s-20.518,66.1,38.748,70.487l-2.766,13.032-43.874,3.4A113.883,113.883,0,0,1,116.2,233.992s.376-16.854,12.25-24.311a26.758,26.758,0,0,1,10.454-4.243Z" opacity="0.08"/>
    <path id="Path_415" data-name="Path 415" d="M120.862,364.425l-6.081,4.474a1.332,1.332,0,0,0,.8,2.4h10.136a1.347,1.347,0,0,0,1.347-1.332v-5.546Z" fill="#68e1fd"/>
    <path id="Path_416" data-name="Path 416" d="M168.848,364.425l5.792,4.474a1.347,1.347,0,0,1-.84,2.4h-7.24a3.866,3.866,0,0,1-3.866-3.866v-3.012Z" fill="#68e1fd"/>
    <line id="Line_46" data-name="Line 46" x1="61.785" y2="78.827" transform="translate(251.223 184.703)" fill="none" stroke="#a5a5a5" stroke-miterlimit="10" stroke-width="1.448"/>
    <path id="Path_417" data-name="Path 417" d="M155.6,218.079c4.416,9.8,12.091,22.067,24.282,27.729a13.7,13.7,0,0,0,18.491-18.071,31.364,31.364,0,0,0-3.417-5.792c-6.487-8.833-15.71-16.174-24.514-19.577a11.671,11.671,0,0,0-14.842,15.71Z" fill="#68e1fd"/>
    <path id="Path_418" data-name="Path 418" d="M155.6,218.079c4.416,9.8,12.091,22.067,24.282,27.729a13.7,13.7,0,0,0,18.491-18.071,31.364,31.364,0,0,0-3.417-5.792c-6.487-8.833-15.71-16.174-24.514-19.577a11.671,11.671,0,0,0-14.842,15.71Z" fill="#fff" opacity="0.2"/>
    <path id="Path_419" data-name="Path 419" d="M473.168,208.9H432.784V154.513H472.4" opacity="0.08"/>
    <path id="Path_420" data-name="Path 420" d="M151.139,192.812s-6.95-4.561-8.963.463,7.341,4.749,7.341,4.749Z" fill="#f4a28c"/>
    <path id="Path_421" data-name="Path 421" d="M214.053,132.243,313.008,189.8l66.114-81.159" fill="none" stroke="#a5a5a5" stroke-miterlimit="10" stroke-width="1.448"/>
    <path id="Path_422" data-name="Path 422" d="M465.2,196.374H424.82V141.988h60.988v36.359" fill="#ffd200"/>
    <line id="Line_47" data-name="Line 47" x2="87.11" y2="53.416" transform="translate(321.696 192.899)" fill="none" stroke="#a5a5a5" stroke-miterlimit="10" stroke-width="1.448"/>
    <rect id="Rectangle_204" data-name="Rectangle 204" width="76.742" height="69.865" transform="translate(289.594 161.434)" opacity="0.08"/>
    <line id="Line_48" data-name="Line 48" y2="42.078" transform="translate(210.665 142.625)" fill="none" stroke="#a5a5a5" stroke-miterlimit="10" stroke-width="1.448"/>
    <line id="Line_49" data-name="Line 49" x1="42.078" transform="translate(268.555 263.531)" fill="none" stroke="#a5a5a5" stroke-miterlimit="10" stroke-width="1.448"/>
    <rect id="Rectangle_205" data-name="Rectangle 205" width="15.928" height="28.959" transform="translate(447.35 127.668)" fill="#fff" opacity="0.34"/>
    <rect id="Rectangle_206" data-name="Rectangle 206" width="76.742" height="69.865" transform="translate(277.532 149.778)" fill="#68e1fd"/>
    <rect id="Rectangle_207" data-name="Rectangle 207" width="53.966" height="48.203" transform="translate(183.675 103.834)" fill="#c9c9c9"/>
    <path id="Path_423" data-name="Path 423" d="M465.2,196.374V178.346h20.6Z" fill="#fff" opacity="0.34"/>
    <rect id="Rectangle_208" data-name="Rectangle 208" width="55.993" height="49.332" transform="translate(388.056 216.124)" fill="#c9c9c9"/>
    <rect id="Rectangle_209" data-name="Rectangle 209" width="68.301" height="33.709" transform="translate(365.25 91.772)" fill="#fff"/>
    <rect id="Rectangle_210" data-name="Rectangle 210" width="49.231" height="41.513" transform="translate(229.749 242.781)" fill="#fff"/>
    <rect id="Rectangle_211" data-name="Rectangle 211" width="44.771" height="21.575" transform="translate(295.864 252.743)" fill="#c9c9c9"/>
    <rect id="Rectangle_212" data-name="Rectangle 212" width="44.771" height="21.575" transform="translate(304.19 97.854)" fill="#c9c9c9"/>
    <rect id="Rectangle_213" data-name="Rectangle 213" width="52.344" height="29.423" transform="translate(184.486 167.052)" fill="#c9c9c9"/>
    <circle id="Ellipse_65" data-name="Ellipse 65" cx="8.21" cy="8.21" r="8.21" transform="translate(375.14 100.431)" fill="#c9c9c9"/>
    <rect id="Rectangle_214" data-name="Rectangle 214" width="24.138" height="5.314" transform="translate(398.076 100.735)" fill="#c9c9c9"/>
    <rect id="Rectangle_215" data-name="Rectangle 215" width="24.138" height="5.314" transform="translate(398.076 109.698)" fill="#c9c9c9" opacity="0.22"/>
    <rect id="Rectangle_216" data-name="Rectangle 216" width="24.138" height="5.314" transform="translate(242.289 254.249)" fill="#24285b" opacity="0.22"/>
    <rect id="Rectangle_217" data-name="Rectangle 217" width="24.138" height="5.314" transform="translate(242.289 266.919)" fill="#24285b" opacity="0.22"/>
    <path id="Path_424" data-name="Path 424" d="M189.655,140.772l9.643-14.9,11.367,13.292,10.86-19.084,10.15,20.981v5.285h-42.02Z" fill="#fff" opacity="0.63"/>
    <circle id="Ellipse_66" data-name="Ellipse 66" cx="4.938" cy="4.938" r="4.938" transform="translate(205.337 113.333)" fill="#fff"/>
    <path id="Path_425" data-name="Path 425" d="M395.035,251.7l9.658-14.914,11.352,13.292,10.86-19.07L437.07,251.99v5.285H395.035Z" fill="#fff" opacity="0.63"/>
    <circle id="Ellipse_67" data-name="Ellipse 67" cx="4.938" cy="4.938" r="4.938" transform="translate(410.717 224.262)" fill="#fff"/>
    <path id="Path_426" data-name="Path 426" d="M218.774,351.538s-11-2.9-13.437-13.177c0,0,17.014-3.519,17.578,14.06Z" fill="#68e1fd" opacity="0.58"/>
    <path id="Path_427" data-name="Path 427" d="M220.091,350.409s-7.732-12.105-1.028-23.486c0,0,13.032,8.167,7.24,23.486Z" fill="#68e1fd" opacity="0.73"/>
    <path id="Path_428" data-name="Path 428" d="M222.09,350.409s4.011-12.844,16.261-15.32c0,0,2.346,8.311-7.877,15.32Z" fill="#68e1fd"/>
    <path id="Path_429" data-name="Path 429" d="M214.126,350.177l2.288,15.247h14.031l2.013-15.247Z" fill="#24285b"/>
    <circle id="Ellipse_68" data-name="Ellipse 68" cx="4.952" cy="4.952" r="4.952" transform="translate(174.871 71.544)" fill="#24285b"/>
    <circle id="Ellipse_69" data-name="Ellipse 69" cx="4.952" cy="4.952" r="4.952" transform="translate(189.597 71.544)" fill="#68e1fd"/>
    <circle id="Ellipse_70" data-name="Ellipse 70" cx="4.952" cy="4.952" r="4.952" transform="translate(203.469 71.544)" fill="#ffd200"/>
    <path id="Path_430" data-name="Path 430" d="M298.036,183.443l14.48,14.711,21.242-32.8" fill="none" stroke="#fff" stroke-miterlimit="10" stroke-width="8.688"/>
  </g>
</svg>
