<svg xmlns="http://www.w3.org/2000/svg" width="36" height="35.398" viewBox="0 0 36 35.398">
  <g id="virus" transform="translate(0 -0.301)">
    <g id="XMLID_107_">
      <g id="Group_56" data-name="Group 56">
        <path id="Path_328" data-name="Path 328" d="M35.99,16.5a3.1,3.1,0,0,1-2.672,3.373A2.85,2.85,0,0,1,30.46,18.19L29,18.318l-1.1.531a.831.831,0,0,0-.46.638,9.711,9.711,0,0,1-.555,2.145.827.827,0,0,0,.048.7l.392.7,1.091.732a1.961,1.961,0,1,1-1.239,2.1l-1.209-.811-.761-.093a.876.876,0,0,0-.712.24,9.845,9.845,0,0,1-2.155,1.557.866.866,0,0,0-.454.712l-.1,1.541.478,1.9a2.436,2.436,0,1,1-2.36.606l-.481-1.909-.742-1.193a1.087,1.087,0,0,0-.929-.509h-.006a9.838,9.838,0,0,1-1.9-.186,1.085,1.085,0,0,0-1,.314l-.981,1.035-1.1,2.278a1.961,1.961,0,1,1-2.2-1.043l1.1-2.293.217-1.539a.818.818,0,0,0-.292-.75,9.874,9.874,0,0,1-2.221-2.546.815.815,0,0,0-.692-.39l-1.536-.015-1.682.529a2.743,2.743,0,1,1-.834-2.29l1.785-.562,1.3-.929a.671.671,0,0,0,.278-.6q-.032-.393-.033-.794a9.725,9.725,0,0,1,.89-4.074.669.669,0,0,0-.007-.571l-.386-.79L7.416,11.9a1.961,1.961,0,1,1,1.354-2.03l1.162.877,1.171.209a9.808,9.808,0,0,1,2.937-1.882l.275-1.67-.347-1.725a2.812,2.812,0,0,1-2.085-2.1A2.747,2.747,0,0,1,14.158.355,2.9,2.9,0,0,1,17.579,2.5a2.667,2.667,0,0,1-1.205,2.8L16.7,6.924l.8,1.284a.288.288,0,0,0,.244.134h0a9.718,9.718,0,0,1,5.041,1.4.284.284,0,0,0,.266.015l1.26-.584L25.79,7.584a1.961,1.961,0,1,1,1.788,1.654l-1.471,1.591-.478,1.285a.284.284,0,0,0,.037.266,9.733,9.733,0,0,1,1.363,2.636.835.835,0,0,0,.562.54l1.2.335,1.554-.137a3,3,0,0,1,2.5-2.048A2.928,2.928,0,0,1,35.99,16.5Z" fill="#eb5569"/>
      </g>
    </g>
    <g id="XMLID_8_">
      <g id="Group_57" data-name="Group 57">
        <circle id="Ellipse_51" data-name="Ellipse 51" cx="7.245" cy="7.245" r="7.245" transform="translate(10.506 10.881)" fill="#f58a97"/>
      </g>
    </g>
    <path id="Path_329" data-name="Path 329" d="M12.715,18.127a7.247,7.247,0,0,1,6.141-7.162,7.245,7.245,0,1,0,0,14.323,7.247,7.247,0,0,1-6.141-7.162Z" fill="#f07281"/>
    <g id="Group_58" data-name="Group 58">
      <circle id="Ellipse_52" data-name="Ellipse 52" cx="2.063" cy="2.063" r="2.063" transform="translate(3.498 0.828)" fill="#eb5569"/>
      <circle id="Ellipse_53" data-name="Ellipse 53" cx="1.363" cy="1.363" r="1.363" transform="translate(3.634 28.725)" fill="#eb5569"/>
      <circle id="Ellipse_54" data-name="Ellipse 54" cx="2.007" cy="2.007" r="2.007" transform="translate(28.011 30.32)" fill="#eb5569"/>
      <circle id="Ellipse_55" data-name="Ellipse 55" cx="1.871" cy="1.871" r="1.871" transform="translate(13.656 14.257)" fill="#eb5569"/>
      <circle id="Ellipse_56" data-name="Ellipse 56" cx="1.274" cy="1.274" r="1.274" transform="translate(15.756 20.667)" fill="#eb5569"/>
      <circle id="Ellipse_57" data-name="Ellipse 57" cx="1.07" cy="1.07" r="1.07" transform="translate(19.96 17.057)" fill="#eb5569"/>
    </g>
  </g>
</svg>
