<svg xmlns="http://www.w3.org/2000/svg" width="36" height="29.543" viewBox="0 0 36 29.543">
  <g id="heartbeat" transform="translate(0 -0.035)">
    <path id="Path_330" data-name="Path 330" d="M33.356,8.58A8.321,8.321,0,0,0,25.214.036,8.231,8.231,0,0,0,18,4.136a8.231,8.231,0,0,0-7.214-4.1A8.321,8.321,0,0,0,2.644,8.58c.243,10.275,12.532,19.212,14.947,20.87a.722.722,0,0,0,.819,0C20.824,27.792,33.113,18.855,33.356,8.58Zm0,0" fill="#f55"/>
    <path id="Path_331" data-name="Path 331" d="M33.36,8.273c0,10.4-12.509,19.5-14.951,21.177a.724.724,0,0,1-.82,0c-.6-.413-1.816-1.278-3.3-2.5C16.738,25.264,29.23,16.171,29.23,5.775A8.2,8.2,0,0,0,27.13.281,8.24,8.24,0,0,1,33.36,8.273Zm0,0" fill="#f72b2b"/>
    <path id="Path_332" data-name="Path 332" d="M17.9,23.355a.929.929,0,0,1-.913-.757L14.715,10.543,12.3,16.282a.929.929,0,0,1-1.686.057l-.645-1.283H.929a.929.929,0,1,1,0-1.858h9.613a.929.929,0,0,1,.828.507L14.2,6.976a.929.929,0,0,1,1.77.188l1.871,9.94.774-4.651a.929.929,0,0,1,.916-.777h3.033a.929.929,0,0,1,.779.422l1.424,2.185.614-.747A.929.929,0,0,1,26.1,13.2h8.972a.929.929,0,0,1,0,1.858H26.538L25.4,16.443a.929.929,0,0,1-1.5-.083l-1.841-2.825H20.319l-1.5,9.043a.929.929,0,0,1-.907.776Zm0,0" fill="#60daff"/>
  </g>
</svg>
