<svg xmlns="http://www.w3.org/2000/svg" width="37" height="37" viewBox="0 0 37 37">
  <path id="Path_372" data-name="Path 372" d="M26.592,37a10.308,10.308,0,0,1-3.537-.632A37.712,37.712,0,0,1,9.361,27.639,37.71,37.71,0,0,1,.632,13.945,10.234,10.234,0,0,1,.11,8.914,10.495,10.495,0,0,1,5.5,1.232,10.3,10.3,0,0,1,10.436,0a1.156,1.156,0,0,1,1.131.914l1.815,8.469a1.156,1.156,0,0,1-.313,1.06l-3.1,3.1A30.435,30.435,0,0,0,23.456,27.032l3.1-3.1a1.157,1.157,0,0,1,1.06-.313l8.469,1.815A1.156,1.156,0,0,1,37,26.563,10.3,10.3,0,0,1,35.767,31.5a10.495,10.495,0,0,1-7.682,5.394,10.285,10.285,0,0,1-1.494.11ZM9.513,2.363A8.1,8.1,0,0,0,2.805,13.155,35.069,35.069,0,0,0,23.845,34.195a8.1,8.1,0,0,0,10.792-6.707l-6.89-1.476L24.509,29.25a1.156,1.156,0,0,1-1.309.229A32.739,32.739,0,0,1,7.521,13.8a1.156,1.156,0,0,1,.229-1.309l3.239-3.239Z" transform="translate(0 0)" fill="#fff"/>
</svg>
