<svg xmlns="http://www.w3.org/2000/svg" width="439" height="309.325" viewBox="0 0 439 309.325">
  <g id="timeline" transform="translate(-80.479 -87.408)">
    <rect id="Rectangle_155" data-name="Rectangle 155" width="233.405" height="73.84" transform="translate(183.479 302.151)" fill="#24285b"/>
    <rect id="Rectangle_156" data-name="Rectangle 156" width="72.907" height="72.907" transform="translate(421.699 87.408)" fill="#e6e6e6"/>
    <line id="Line_26" data-name="Line 26" y2="0.765" transform="translate(295.848 168.392)" fill="none" stroke="#999" stroke-linecap="round" stroke-linejoin="round" stroke-width="1.53"/>
    <line id="Line_27" data-name="Line 27" y2="37.035" transform="translate(295.848 182.374)" stroke-dasharray="0.86 8.65" stroke="#999" stroke-linecap="round" stroke-linejoin="round" stroke-width="1.53" fill="none"/>
    <line id="Line_28" data-name="Line 28" y2="0.765" transform="translate(295.848 226.017)" fill="none" stroke="#999" stroke-linecap="round" stroke-linejoin="round" stroke-width="1.53"/>
    <rect id="Rectangle_157" data-name="Rectangle 157" width="72.907" height="72.907" transform="translate(259.395 87.408)" fill="#e6e6e6"/>
    <text id="_2" data-name="2" transform="translate(285.477 138.425)" fill="#999" font-size="42" font-family="Poppins-Bold, Poppins" font-weight="700"><tspan x="0" y="0">2</tspan></text>
    <text id="_3" data-name="3" transform="translate(447.949 138.425)" fill="#999" font-size="42" font-family="Poppins-Bold, Poppins" font-weight="700"><tspan x="0" y="0">3</tspan></text>
    <line id="Line_29" data-name="Line 29" y2="0.765" transform="translate(458.152 168.392)" fill="none" stroke="#999" stroke-linecap="round" stroke-linejoin="round" stroke-width="1.53"/>
    <line id="Line_30" data-name="Line 30" y2="37.035" transform="translate(458.152 182.374)" stroke-dasharray="0.86 8.65" stroke="#999" stroke-linecap="round" stroke-linejoin="round" stroke-width="1.53" fill="none"/>
    <line id="Line_31" data-name="Line 31" y2="0.765" transform="translate(458.152 226.017)" fill="none" stroke="#999" stroke-linecap="round" stroke-linejoin="round" stroke-width="1.53"/>
    <line id="Line_32" data-name="Line 32" y2="0.765" transform="translate(141.01 168.392)" fill="none" stroke="#999" stroke-linecap="round" stroke-linejoin="round" stroke-width="1.53"/>
    <line id="Line_33" data-name="Line 33" y2="37.035" transform="translate(141.01 182.374)" stroke-dasharray="0.86 8.65" stroke="#999" stroke-linecap="round" stroke-linejoin="round" stroke-width="1.53" fill="none"/>
    <line id="Line_34" data-name="Line 34" y2="0.765" transform="translate(141.01 226.017)" fill="none" stroke="#999" stroke-linecap="round" stroke-linejoin="round" stroke-width="1.53"/>
    <rect id="Rectangle_158" data-name="Rectangle 158" width="72.907" height="72.907" transform="translate(104.557 87.408)" fill="#e6e6e6"/>
    <ellipse id="Ellipse_41" data-name="Ellipse 41" cx="45.815" cy="9.928" rx="45.815" ry="9.928" transform="translate(143.962 376.878)" fill="#e6e6e6" opacity="0.3"/>
    <rect id="Rectangle_159" data-name="Rectangle 159" width="439" height="12.957" rx="6.471" transform="translate(80.479 226.781)" fill="#24285b"/>
    <path id="Path_260" data-name="Path 260" d="M197.747,336.539c19.351-10.6,11.32-38.855,11.32-38.855l-19.519,2.2-19.519-2.2s-7.649,27.122,10.173,38.243a2.922,2.922,0,0,1,0,4.972c-17.974,11.045-10.249,38.243-10.249,38.243l19.519-2.2,19.519,2.2s8.016-28.177-11.243-38.809a2.126,2.126,0,0,1,0-3.794Z" fill="#68e1fd"/>
    <path id="Path_261" data-name="Path 261" d="M197.747,336.539c19.351-10.6,11.32-38.855,11.32-38.855l-19.519,2.2-19.519-2.2s-7.649,27.122,10.173,38.243a2.922,2.922,0,0,1,0,4.972c-17.974,11.045-10.249,38.243-10.249,38.243l19.519-2.2,19.519,2.2s8.016-28.177-11.243-38.809a2.126,2.126,0,0,1,0-3.794Z" fill="#fff" opacity="0.68"/>
    <path id="Path_262" data-name="Path 262" d="M169.8,376.189s3.059-5.232,14.2-6.517,17.638,1.193,22.946,7.2l-37.157,1.285Z" fill="#fff"/>
    <rect id="Rectangle_160" data-name="Rectangle 160" width="49.808" height="10.341" rx="4.604" transform="translate(164.598 376.878)" fill="#68e1fd"/>
    <rect id="Rectangle_161" data-name="Rectangle 161" width="49.808" height="10.341" rx="4.604" transform="translate(214.421 299.918) rotate(180)" fill="#68e1fd"/>
    <path id="Path_263" data-name="Path 263" d="M194.015,313.3c-6.624,1.958-10.066-3.3-18.25-1.163a4.39,4.39,0,0,0-3.212,4.972c.78,4.681,3.059,12.544,9.178,15.511.474.214.948.428,1.423.612a5.645,5.645,0,0,1,3.595,5.247V374.9h1.53l.4-39.956a.459.459,0,0,1,.474-.459h0a.474.474,0,0,1,.444.459l1.04,39.956h1.973v-36.5a5.66,5.66,0,0,1,3.488-5.186,14.808,14.808,0,0,0,6.41-5.125c1.973-2.906,2.891-7.771,3.335-11.351a4.268,4.268,0,0,0-4.5-4.773,33.79,33.79,0,0,0-7.327,1.331Z" fill="#fff"/>
    <circle id="Ellipse_42" data-name="Ellipse 42" cx="13.966" cy="13.966" r="13.966" transform="translate(127.044 219.209)" fill="#ffd200"/>
    <circle id="Ellipse_43" data-name="Ellipse 43" cx="13.966" cy="13.966" r="13.966" transform="translate(282.983 219.209)" fill="#ffd200"/>
    <circle id="Ellipse_44" data-name="Ellipse 44" cx="13.966" cy="13.966" r="13.966" transform="translate(444.186 219.209)" fill="#ffd200"/>
    <text id="_1" data-name="1" transform="translate(133.239 138.425)" fill="#999" font-size="42" font-family="Poppins-Bold, Poppins" font-weight="700"><tspan x="0" y="0">1</tspan></text>
    <text id="BERITA" transform="translate(250.479 351.683)" fill="#fff" font-size="34" font-family="Poppins-Bold, Poppins" font-weight="700"><tspan x="0" y="0">BERITA</tspan></text>
    <circle id="Ellipse_45" data-name="Ellipse 45" cx="12.268" cy="12.268" r="12.268" transform="translate(405.285 327.59)" fill="#ffd200"/>
  </g>
</svg>
