<svg xmlns="http://www.w3.org/2000/svg" width="26.367" height="21.424" viewBox="0 0 26.367 21.424">
  <path id="twitter_1_" data-name="twitter (1)" d="M26.367,50.536a11.27,11.27,0,0,1-3.115.854A5.375,5.375,0,0,0,25.631,48.4,10.8,10.8,0,0,1,22.2,49.711a5.405,5.405,0,0,0-9.351,3.7,5.566,5.566,0,0,0,.125,1.233A15.3,15.3,0,0,1,1.836,48.985,5.407,5.407,0,0,0,3.5,56.21a5.338,5.338,0,0,1-2.442-.666V55.6a5.43,5.43,0,0,0,4.331,5.311,5.4,5.4,0,0,1-1.417.178A4.779,4.779,0,0,1,2.945,61,5.457,5.457,0,0,0,8,64.766a10.861,10.861,0,0,1-6.7,2.306A10.123,10.123,0,0,1,0,67a15.218,15.218,0,0,0,8.293,2.426A15.279,15.279,0,0,0,23.678,54.041c0-.239-.008-.47-.02-.7A10.784,10.784,0,0,0,26.367,50.536Z" transform="translate(0 -48)" fill="#03a9f4"/>
</svg>
