<svg xmlns="http://www.w3.org/2000/svg" xmlns:xlink="http://www.w3.org/1999/xlink" width="74.424" height="39.115" viewBox="0 0 74.424 39.115">
  <defs>
    <clipPath id="clip-path">
      <rect x="17" y="24" width="74.424" height="39.115" fill="none"/>
    </clipPath>
    <clipPath id="clip-path-2">
      <rect id="Rectangle_42" data-name="Rectangle 42" width="95" height="56" transform="translate(53 248)" fill="#383a57"/>
    </clipPath>
  </defs>
  <g id="Scroll_Group_2" data-name="Scroll Group 2" transform="translate(-17 -24)" clip-path="url(#clip-path)" style="isolation: isolate">
    <g id="Mask_Group_1" data-name="Mask Group 1" transform="translate(54.17 -251.171) rotate(20)" clip-path="url(#clip-path-2)">
      <g id="graph" transform="translate(69.395 244.895)">
        <g id="Group_109" data-name="Group 109">
          <path id="Path_376" data-name="Path 376" d="M56,3.105a6.205,6.205,0,0,0-4.472,10.524L40.165,36.367a5.107,5.107,0,0,0-.753-.073,6.206,6.206,0,0,0-2.345.462l-8.823-9.929A6.209,6.209,0,1,0,16.6,23.838a6.173,6.173,0,0,0,1.531,4.035l-10.8,18.9a5.687,5.687,0,0,0-1.106-.109,6.309,6.309,0,1,0,4.691,2.187L21.7,29.95a5.851,5.851,0,0,0,3.439-.352l8.823,9.929a6.216,6.216,0,1,0,9.9-1.312L55.234,15.477a5.106,5.106,0,0,0,.753.073A6.222,6.222,0,0,0,56,3.105Z" fill="#383a57"/>
        </g>
      </g>
    </g>
  </g>
</svg>
