<svg xmlns="http://www.w3.org/2000/svg" width="39.663" height="39" viewBox="0 0 39.663 39">
  <g id="virus" transform="translate(0 -0.332)">
    <g id="XMLID_107_">
      <g id="Group_109" data-name="Group 109">
        <path id="Path_376" data-name="Path 376" d="M39.653,18.174a3.411,3.411,0,0,1-2.944,3.716,3.14,3.14,0,0,1-3.148-1.85l-1.607.142-1.213.585a.916.916,0,0,0-.507.7,10.7,10.7,0,0,1-.611,2.363.912.912,0,0,0,.052.776l.432.773,1.2.806A2.161,2.161,0,1,1,29.943,28.5l-1.332-.893-.838-.1a.965.965,0,0,0-.784.264,10.847,10.847,0,0,1-2.375,1.716.954.954,0,0,0-.5.784l-.106,1.7.527,2.091a2.684,2.684,0,1,1-2.6.668l-.53-2.1-.818-1.315a1.2,1.2,0,0,0-1.023-.561h-.007a10.839,10.839,0,0,1-2.095-.2,1.2,1.2,0,0,0-1.1.346l-1.08,1.14-1.21,2.51a2.16,2.16,0,1,1-2.425-1.149l1.217-2.526.239-1.7a.9.9,0,0,0-.322-.826,10.878,10.878,0,0,1-2.447-2.805.9.9,0,0,0-.762-.43L7.877,25.1l-1.853.583A3.022,3.022,0,1,1,5.1,23.154l1.967-.619,1.437-1.024a.739.739,0,0,0,.306-.665q-.036-.433-.036-.875a10.715,10.715,0,0,1,.981-4.488.737.737,0,0,0-.007-.629l-.426-.87L8.17,13.112a2.161,2.161,0,1,1,1.491-2.236l1.28.966,1.29.23A10.806,10.806,0,0,1,15.468,10l.3-1.84-.382-1.9a3.1,3.1,0,0,1-2.3-2.314A3.027,3.027,0,0,1,15.6.392a3.2,3.2,0,0,1,3.769,2.362A2.938,2.938,0,0,1,18.04,5.836L18.4,7.628l.886,1.414a.317.317,0,0,0,.268.148h0a10.707,10.707,0,0,1,5.554,1.545.313.313,0,0,0,.293.016l1.388-.643,1.621-1.753a2.16,2.16,0,1,1,1.97,1.822l-1.621,1.753-.526,1.416a.313.313,0,0,0,.041.293,10.724,10.724,0,0,1,1.5,2.9.92.92,0,0,0,.62.6l1.318.369,1.712-.151A3.31,3.31,0,0,1,36.185,15.1a3.226,3.226,0,0,1,3.467,3.073Z" fill="#eb5569"/>
      </g>
    </g>
    <g id="XMLID_8_">
      <g id="Group_110" data-name="Group 110">
        <circle id="Ellipse_62" data-name="Ellipse 62" cx="7.982" cy="7.982" r="7.982" transform="translate(11.576 11.989)" fill="#f58a97"/>
      </g>
    </g>
    <path id="Path_377" data-name="Path 377" d="M14.009,19.971a7.984,7.984,0,0,1,6.766-7.89,7.982,7.982,0,1,0,0,15.781,7.984,7.984,0,0,1-6.766-7.89Z" fill="#f07281"/>
    <g id="Group_111" data-name="Group 111">
      <circle id="Ellipse_63" data-name="Ellipse 63" cx="2.273" cy="2.273" r="2.273" transform="translate(3.854 0.913)" fill="#eb5569"/>
      <circle id="Ellipse_64" data-name="Ellipse 64" cx="1.501" cy="1.501" r="1.501" transform="translate(4.004 31.649)" fill="#eb5569"/>
      <circle id="Ellipse_65" data-name="Ellipse 65" cx="2.212" cy="2.212" r="2.212" transform="translate(30.862 33.405)" fill="#eb5569"/>
      <circle id="Ellipse_66" data-name="Ellipse 66" cx="2.062" cy="2.062" r="2.062" transform="translate(15.046 15.708)" fill="#eb5569"/>
      <circle id="Ellipse_67" data-name="Ellipse 67" cx="1.403" cy="1.403" r="1.403" transform="translate(17.359 22.771)" fill="#eb5569"/>
      <circle id="Ellipse_68" data-name="Ellipse 68" cx="1.178" cy="1.178" r="1.178" transform="translate(21.991 18.793)" fill="#eb5569"/>
    </g>
  </g>
</svg>
