<svg id="virus-4999857" xmlns="http://www.w3.org/2000/svg" xmlns:xlink="http://www.w3.org/1999/xlink" width="418" height="361.782" viewBox="0 0 418 361.782">
  <defs>
    <radialGradient id="radial-gradient" cx="0.5" cy="0.501" r="2.324" gradientTransform="translate(0.423 0.401) scale(0.154 0.2)" gradientUnits="objectBoundingBox">
      <stop offset="0" stop-color="#422918" stop-opacity="0.969"/>
      <stop offset="0.032" stop-color="#442a18" stop-opacity="0.8"/>
      <stop offset="1" stop-color="#595118" stop-opacity="0"/>
    </radialGradient>
  </defs>
  <rect id="Rectangle_197" data-name="Rectangle 197" width="418" height="361.782" fill="#f9df84"/>
  <g id="Group_55" data-name="Group 55" transform="translate(127.451 145.608)">
    <g id="Group_44" data-name="Group 44" transform="translate(14.1)">
      <circle id="Ellipse_49" data-name="Ellipse 49" cx="67.424" cy="67.424" r="67.424" fill="#2eaae2"/>
    </g>
    <g id="Group_45" data-name="Group 45" transform="translate(14.1)" opacity="0.51">
      <path id="Path_267" data-name="Path 267" d="M208.975,79.39c-45.429,85.546,37.188,134.8,0,134.8a67.4,67.4,0,1,1,0-134.8Z" transform="translate(-141.551 -79.39)" fill="#2c91ac"/>
    </g>
    <path id="Path_268" data-name="Path 268" d="M219.9,87.234a2.814,2.814,0,0,0,.794-.1A2.323,2.323,0,0,0,219.9,87.234Z" transform="translate(-127.451 -79.39)" fill="#c5cf83"/>
    <path id="Path_269" data-name="Path 269" d="M219.9,87.234Z" transform="translate(-127.451 -79.39)" fill="#c5cf83"/>
    <path id="Path_270" data-name="Path 270" d="M178.54,89.766c-.05.05.05.05.2.1l.1-.05C178.788,89.816,178.639,89.717,178.54,89.766Z" transform="translate(-127.451 -79.39)" fill="#c5cf83"/>
    <path id="Path_271" data-name="Path 271" d="M193.236,102.377c1.192-3.029,1.837-6.107,2.979-9.185a10.194,10.194,0,0,1,1.936-3.426c.645-.7,1.539-1.291,1.241-2.383-.348-1.241-2.433-.05-3.227-.7s1.043-1.688.447-2.582c-.745-1.192-2.78-1.638-4.071-1.489a12.186,12.186,0,0,0-2.582,1.192c-1.192.4-1.887,0-2.88.894-1.589,1.489-4.171.794-5.71,2.334-.6.6-.943,1.44-1.489,2.085-.2.248-.447.645-.745.745h-.4c-.5,0-.645.5-1.142.745-1.738.844-3.475,1.39-3.277,3.873.05.745.1,1.986.894,2.383.645.348,1.738-.3,2.036.546.4,1.192-.4,4.667-.943,5.66-.4.7-1.291,1.489-1.39,2.284-.2,1.638,2.085,1.092,1.738,2.085-.447,1.241-1.887,1.44-2.383,2.731a8.315,8.315,0,0,0,.645,6.057c.248.546.6,1.539,1.291,1.738a2.53,2.53,0,0,0,2.433-1.291c.348-.5.5-1.043.794-1.539a31.8,31.8,0,0,1,3.277-4.071c.348-.348.844-.447,1.192-.745a15.586,15.586,0,0,1,4.171-2.979,13.642,13.642,0,0,0,2.78-1.142C192.045,105.456,192.69,103.718,193.236,102.377Z" transform="translate(-127.451 -79.39)" fill="#b0b573"/>
    <path id="Path_272" data-name="Path 272" d="M178.937,89.816h-.05C178.887,89.866,178.937,89.816,178.937,89.816Z" transform="translate(-127.451 -79.39)" fill="#c5cf83"/>
    <path id="Path_273" data-name="Path 273" d="M194.577,112.7c.5-.844.447-2.135-.645-2.135l.248-.1c.05.05.05-.2-.149-.149a2.669,2.669,0,0,1-1.638.5c-1.142,0-1.887-.943-2.334-.844-1.192.149-1.589,1.638-1.192,2.582C190.009,115.187,193.187,114.988,194.577,112.7Z" transform="translate(-127.451 -79.39)" fill="#b0b573"/>
    <path id="Path_274" data-name="Path 274" d="M208.032,94.582c.348.645.3,1.539.6,2.185.05.1.447.5.6.3.248-.248,1.092-.5,1.241-.844s-.248-1.539,0-1.688c.894-.447,1.688.844,2.284-.3.7-1.39-1.192-1.291-1.638-1.688-.149-.149,0-.7-.1-.894a12.261,12.261,0,0,0-1.887-1.241l-.1.348c.2-.546-.645-.3-.943-.248-.7.2-1.738.645-1.837,1.489C206.1,93.192,207.635,93.738,208.032,94.582Z" transform="translate(-127.451 -79.39)" fill="#c5cf83"/>
    <path id="Path_275" data-name="Path 275" d="M210.763,90.71c.5.2,1.738,1.837,2.383.794.6-.894-.5-1.688-.5-2.036h.149c.05.1-.05-.248-.149-.3a1.4,1.4,0,0,0-.745-.3c-.645-.1-2.482.149-2.334,1.043C209.571,90.313,210.415,90.561,210.763,90.71Z" transform="translate(-127.451 -79.39)" fill="#c5cf83"/>
    <path id="Path_276" data-name="Path 276" d="M164.191,96.866c.844,1.738,4.071,1.241,5.362.645.348-.149.943-.248,1.092-.7.149-.5-.348-.794-.645-1.092-.794-.794-1.142-.5-2.234-.6-.149,0-.844-.248-.4-.447,1.192-.6,2.482.447,3.674.05.844-.3,1.539-1.341,2.284-1.837a25.24,25.24,0,0,0,2.135-1.887,19.213,19.213,0,0,0,1.688-1.043c.894-.745,1.589-1.688,2.532-2.383,1.043-.794,2.036-1.539,3.128-2.284a2.681,2.681,0,0,0,.745-.894c0-.05-.05-.05-.05-.1A67.875,67.875,0,0,0,164.042,96.42,2.338,2.338,0,0,1,164.191,96.866Z" transform="translate(-127.451 -79.39)" fill="#b0b573"/>
    <path id="Path_277" data-name="Path 277" d="M183.654,84.4v.05h0Z" transform="translate(-127.451 -79.39)" fill="#c5cf83"/>
    <path id="Path_278" data-name="Path 278" d="M183.654,84.454V84.6Q183.728,84.6,183.654,84.454Z" transform="translate(-127.451 -79.39)" fill="#c5cf83"/>
    <path id="Path_279" data-name="Path 279" d="M169.255,108.087a25.02,25.02,0,0,0,.645-2.83c-.05-.546-.5-.943-.645-1.44a8.77,8.77,0,0,0-.2-.993c-.149-.348-.6-.5-.645-.844-.1-.745.546-1.887.348-2.582-.05-.2-.348-.248-.546-.248a17,17,0,0,0-2.185-.2,2.831,2.831,0,0,0-.645.05,4.931,4.931,0,0,0-1.539.943c-.348.248-.794.3-1.092.546a15.331,15.331,0,0,0-2.383,1.986c-.3.3-.645.4-.794.794-.149.5.4.546.745.447.7-.149,1.787-.993,2.482-.645s.794,1.39,1.291,1.887c.149.149-.1.7-.05.943.1.5.4.645.5,1.043.348,1.39-.844,2.88-2.036,3.426-.447.2-1.837.844-1.688,1.489.149.546,1.44.5,1.738,1.092.2.4.2,1.936.745,2.036a3.262,3.262,0,0,0,3.823-1.489c.149-.248.1-1.291.2-1.39.3-.3.844.1,1.192-.1a4.011,4.011,0,0,0,1.589-2.135C170.348,109.13,169.206,108.832,169.255,108.087Z" transform="translate(-127.451 -79.39)" fill="#b0b573"/>
    <path id="Path_280" data-name="Path 280" d="M142.345,147.062c.5-.5.447-1.44,1.341-1.241a3.012,3.012,0,0,1,2.185,1.688c.2.546.546,2.681,1.489,2.582.745-.1.6-.794.6-1.44,0-.993-.3-2.83.348-3.724.794-1.043,2.036-1.589,2.83-2.681.645-.943.6-2.433,1.39-3.227a8.133,8.133,0,0,1,1.738-1.44c.7-.348,1.489-.3,2.036-.943a1.381,1.381,0,0,0,.4-1.043c-.05-.3-.5-.7-.248-1.043a2.879,2.879,0,0,1,2.631-.844c.3.149.645.7.943.794a1.876,1.876,0,0,0,1.043-.2c.844-.248,2.582-.6,3.029-1.539.6-1.241-1.241-1.341-1.837-1.44-.2,0-.546.05-.7-.149-.248-.447.4-.844-.2-1.241-.248-.2-1.142-.6-1.043-.943.3-1.738,2.135-.348,3.178-.447.7-.1,1.39-1.539,2.234-.844.4.3-.1.745-.3,1.043-.4.546-1.241,1.589-.5,2.234.7.6,3.178,1.291,3.823.3.5-.7-.447-2.334-.993-2.731-.3-.2-.844-.4-.894-.794-.05-.348.348-.3.5-.447.348-.348,1.192-1.589.943-2.135-.844-1.638-2.681-2.582-2.83-4.667a5.053,5.053,0,0,1,.5-2.234c.1-.248.248-.6-.05-.745a1.578,1.578,0,0,0-.447-.149c-.943-.248-.7.3-.993,1.043-.149.348-.844.993-1.241.794-1.092-.546-.645-2.88-.993-3.823-.149-.447-.993-.6-1.39-.745-1.44-.645-2.582,1.688-2.979,2.582-.248.546-.645.993-.844,1.539-.348.894-.4,1.787-.794,2.681-.4.943-1.291,1.291-1.787,2.085-.5.894.447,2.036-.894,2.731-.5.248-.844-.1-.943-.546-.1-.645.348-1.39.248-2.085a7.111,7.111,0,0,0-1.241-2.234c-.5-.794-1.489-.844-1.936-1.638-.3-.546-.3-1.241-.6-1.787.844-.5,1.241-1.241,2.135-1.887a3.955,3.955,0,0,0,.745-.844,4.213,4.213,0,0,1,1.092-.993c.645-.348,1.092-.993,1.738-1.241,1.092-.447,1.39.348,1.936,1.092.2.3.6.894,1.043.745,1.291-.447,2.234-2.284,1.291-3.376-.248-.3-1.489-.447-1.142-.894,1.341-1.986,4.568-2.334,5.164-4.965.2-.794-.3-1.887-1.241-1.341-.943.6-1.192,1.986-2.582,1.489a.886.886,0,0,1-.645-.546c-.3-.745.3-1.738.745-2.334,1.192-1.489,4.022-2.532,4.816-4.32.3-.645-.248-.993-.745-1.241a67.277,67.277,0,0,0-21.747,49.55v.6A4.538,4.538,0,0,0,142.345,147.062Z" transform="translate(-127.451 -79.39)" fill="#b0b573"/>
    <path id="Path_281" data-name="Path 281" d="M151.58,153.169a2.417,2.417,0,0,0-1.638-.546,5.211,5.211,0,0,1-1.142-.4c-1.043-.645-4.32-2.085-4.518.149-.1,1.341,2.433.546,3.376.943.794.348,3.277,2.135,4.171,1.688C152.623,154.609,152.126,153.566,151.58,153.169Z" transform="translate(-127.451 -79.39)" fill="#b0b573"/>
    <path id="Path_282" data-name="Path 282" d="M149.991,155.6h0c-.05-.149-.794-.5-.943-.4-1.192.6.645,1.589,1.341,1.44S150.637,155.9,149.991,155.6Z" transform="translate(-127.451 -79.39)" fill="#b0b573"/>
    <path id="Path_283" data-name="Path 283" d="M155.105,154.659c-.5,0-.745.3-1.291-.05-.4-.3-1.043-1.092-.05-.894l-.3-.1c-.6,0-1.192,1.489-1.043,2.036s2.979.7,3.376.3C156,155.7,155.254,154.659,155.105,154.659Z" transform="translate(-127.451 -79.39)" fill="#b0b573"/>
    <path id="Path_284" data-name="Path 284" d="M156.744,156.148c-.3.5,1.539-.05.993-.645C157.191,154.956,156.5,156,156.744,156.148Z" transform="translate(-127.451 -79.39)" fill="#c5cf83"/>
    <path id="Path_285" data-name="Path 285" d="M169.206,198.9c-.05-.149-.4,0-.4-.149a2.246,2.246,0,0,1,.7-1.192c.6-.6,1.688-1.192,1.887-2.234.1-.5-.844-.6-.546-1.192.2-.348.745.248.894,0a41.669,41.669,0,0,0,2.234-4.468c.248-.7-.348-1.192.05-2.036.546-1.092,2.036-.943,2.731-1.787a7.008,7.008,0,0,0,1.241-4.866c-.05-.348-.3-.546-.3-.894,0-1.887,3.873-4.32,1.887-6.306-.2-.2-.7-.894-.993-.943-.447-.1-.794.4-1.291.149-.546-.248-.894-.7-1.39-.943-1.589-.794-1.986-.3-3.873-1.589-.447-.3-1.341-.1-1.887-.447-.149-.1-2.582-2.681-2.631-2.78-.149-.348.1-1.291-.3-1.589-.745-.5-2.334.2-3.674-.745a16.069,16.069,0,0,1-2.78-1.887c-.5-.6-.4-1.39-1.043-1.738-.546-.248-2.83.05-3.575.05-.3,0-1.142-.1-1.291.05-.05.05.1.149.05.1-.6-.6-.248-1.44-1.291-1.787-.844-.3-1.589.7-2.036,1.241-.149.149-.794.844-.6.7h.1c-.149,0-.5.348-.894.348a2.749,2.749,0,0,0-.894.1c-.6-.6-2.482-.993-3.078-1.539-1.291-1.291.844-3.823-2.482-3.823a10.5,10.5,0,0,0-1.192.1.372.372,0,0,0-.248.05c.1.745.248,1.539.4,2.284a1.834,1.834,0,0,1,.7.348c1.539,1.539.894,2.284,3.178,3.128a5.176,5.176,0,0,0,2.085.447c.05.05.1.05.1.1.248.5,1.688,2.482,1.589,2.929-.546,1.638-2.88,2.482-1.787,4.717a9.371,9.371,0,0,0,1.142,2.482c.4.4,1.291.844,1.589,1.39a9.233,9.233,0,0,0,1.489,2.234c1.44,1.44,5.164,3.525,5.809,5.461.6,1.837.7,3.972,1.192,5.908.149.7.745,1.192.943,1.837.447,1.39.745,2.979,1.142,4.468a2.15,2.15,0,0,0,.05.248,66.923,66.923,0,0,0,7.3,6.206A7.63,7.63,0,0,0,169.206,198.9Z" transform="translate(-127.451 -79.39)" fill="#b0b573"/>
    <path id="Path_286" data-name="Path 286" d="M143.487,152.275a4.47,4.47,0,0,0-1.688-.1c.1,1.539.3,3.029.5,4.518.149-.248.348-.6.4-.7C143.189,155.3,145.126,152.921,143.487,152.275Z" transform="translate(-127.451 -79.39)" fill="#b0b573"/>
    <path id="Path_287" data-name="Path 287" d="M220.742,89.022a.92.92,0,1,0-.1-1.837c-.1.1-.447.1-.794.1h0c-.3,0-.645,0-.645.05C218.607,88.227,220,89.022,220.742,89.022Z" transform="translate(-127.451 -79.39)" fill="#c5cf83"/>
    <path id="Path_288" data-name="Path 288" d="M220.643,87.135c.05-.05.05-.1-.05-.2l-.745.3h0A2.624,2.624,0,0,1,220.643,87.135Z" transform="translate(-127.451 -79.39)" fill="#c5cf83"/>
    <path id="Path_289" data-name="Path 289" d="M222.877,87.78c1.39-.447.2-1.638-.4-2.234a.525.525,0,0,0-.348.3C221.834,86.39,222.132,88.029,222.877,87.78Z" transform="translate(-127.451 -79.39)" fill="#c5cf83"/>
    <path id="Path_290" data-name="Path 290" d="M222.778,85.447h0Z" transform="translate(-127.451 -79.39)" fill="#c5cf83"/>
    <path id="Path_291" data-name="Path 291" d="M222.232,85.3l.248.248a1.029,1.029,0,0,1,.3-.1Z" transform="translate(-127.451 -79.39)" fill="#c5cf83"/>
    <path id="Path_292" data-name="Path 292" d="M224.118,87.334c-.149.348.4,1.39.7.894.2-.3.348-3.327-.6-2.383-.05.05.05.1.149.1-.149.149-.447.3-.4.5C224.118,86.887,224.317,86.887,224.118,87.334Z" transform="translate(-127.451 -79.39)" fill="#c5cf83"/>
    <path id="Path_293" data-name="Path 293" d="M230.672,104.562c2.681-.546-1.787-3.178-1.936-3.674-.447-1.39.794-2.085.794-2.979l.05.2a13.138,13.138,0,0,1,.4-1.638c.3-.5.943-.745,1.241-1.291.5-.993.6-2.681-.993-2.334-3.475.794-4.071,6.057-3.674,8.937C226.75,103.42,229.083,104.91,230.672,104.562Z" transform="translate(-127.451 -79.39)" fill="#c5cf83"/>
    <path id="Path_294" data-name="Path 294" d="M229.629,98.455l-.1-.348C229.48,98.554,229.48,98.8,229.629,98.455Z" transform="translate(-127.451 -79.39)" fill="#c5cf83"/>
    <path id="Path_295" data-name="Path 295" d="M197.605,123.628c-.2-.149-.447-.05-.6-.3l.4.1c-.05,0,.248-.5-.2-.3-.348.149-.5.645-.645.894-.149.2-.4.3-.546.5a2.872,2.872,0,0,0-.248.7c-.248.6-1.043,1.241-.546,1.887.794.993,1.936-.546,2.433-.993.248-.2.6-.447.645-.794A1.469,1.469,0,0,0,197.605,123.628Z" transform="translate(-127.451 -79.39)" fill="#c5cf83"/>
    <path id="Path_296" data-name="Path 296" d="M199.293,119.854c-.1-.149-.4.149-.5.2a1.076,1.076,0,0,0-.546,1.043,4.2,4.2,0,0,0,.546,1.738c.248.4.745.6.844,1.092.248,1.043-.6,1.192-.844,2.036-.1.4.2.794.1,1.192s-.6,1.142.05,1.241a3.5,3.5,0,0,0,1.241-.3c.3-.1.645,0,.943-.149a2.232,2.232,0,0,0,1.539-1.986,4.82,4.82,0,0,0-.546-1.688c-.348-.5-.844-.645-1.092-1.241a9.106,9.106,0,0,0-.645-1.192c-.149-.248.05-.645-.05-.894a1.654,1.654,0,0,0-1.241-1.043Z" transform="translate(-127.451 -79.39)" fill="#c5cf83"/>
    <path id="Path_297" data-name="Path 297" d="M207.585,135.3a.173.173,0,0,0-.05.1l.248-.05A1.126,1.126,0,0,0,207.585,135.3Z" transform="translate(-127.451 -79.39)" fill="#c5cf83"/>
    <path id="Path_298" data-name="Path 298" d="M207.486,135.394Z" transform="translate(-127.451 -79.39)" fill="#c5cf83"/>
    <path id="Path_299" data-name="Path 299" d="M207.535,135.394c-.149.2-.348.6-.248.7C207.933,136.735,208.379,135.444,207.535,135.394Z" transform="translate(-127.451 -79.39)" fill="#c5cf83"/>
    <path id="Path_300" data-name="Path 300" d="M207.436,136.834l.05.3a.368.368,0,0,0-.05.4c.1.348-.4,2.036.4,1.787.348-.1.546-1.39.348-1.738A3.355,3.355,0,0,0,207.436,136.834Z" transform="translate(-127.451 -79.39)" fill="#c5cf83"/>
    <path id="Path_301" data-name="Path 301" d="M219.153,142l.4-.348c0-.05-1.489.447-1.092,1.092C219.1,143.785,220.345,142,219.153,142Z" transform="translate(-127.451 -79.39)" fill="#c5cf83"/>
    <path id="Path_302" data-name="Path 302" d="M225.657,142.842a.433.433,0,0,0-.2-.546,4.041,4.041,0,0,1-.447-.1c-.5.149-1.241.5-.943,1.092C224.367,143.934,225.558,143.239,225.657,142.842Z" transform="translate(-127.451 -79.39)" fill="#c5cf83"/>
    <path id="Path_303" data-name="Path 303" d="M225.062,142.2h0a1.082,1.082,0,0,0,.3-.05Z" transform="translate(-127.451 -79.39)" fill="#c5cf83"/>
    <path id="Path_304" data-name="Path 304" d="M270.392,167.27c-.447-.447-2.036-3.078-2.88-2.284-.447.447.7,1.787.894,2.185.546,1.291,1.489,4.518,3.178,4.667.348-.943.7-1.837,1.043-2.78C272.278,168.114,271.037,167.915,270.392,167.27Z" transform="translate(-127.451 -79.39)" fill="#c5cf83"/>
    <path id="Path_305" data-name="Path 305" d="M234.5,87.582c.794,1.092,3.724-.149,3.873,0,.3.3.149,1.291.645,1.539.894.447,1.837-.447,2.582-.05.248.149.05.7.348.844.1.05.348-.05.4,0,.447.447.05,1.092.348,1.638.1.248.7,1.241.348,1.489-.794.546-1.589-.4-2.185.844-.348.7-.5,1.539-.844,2.185-.2.447.3.943.2,1.142-.248.5-1.291.894-1.142,1.539.2,1.341,3.426,2.085,3.426,2.929v.05c-.149.149-.943-.546-1.043-.645a7.737,7.737,0,0,0-2.334-1.092c-.7-.348-1.192.645-1.341,1.092-.05.2.3,1.489.248,1.489-1.291-.645-.993-3.227-2.185-3.823-.844-.4-.894.894-.894,1.341,0,1.092.794,3.823,0,4.667-.2.2-.745-.5-1.092-.348-.546.3-.546.745-.993,1.142-.149.149-2.979-.149-3.029-.05-.2.2-.546.844-.844.993-.348.149-.745,0-1.043.348-.348.348-.447.943-.794,1.291-.645.645-1.589,1.142-2.334,1.887-.348.348-.7,1.837-1.539,2.631-.447.447-2.284-1.44-2.383-1.787-.248-.794,2.582.248,3.426-1.44,0-.05.149-.447.05-.6-.6-.894-1.638-.844-2.185-1.44a6.768,6.768,0,0,0-3.128-1.986c-.794-.248-2.979-1.341-3.724-.993a8.091,8.091,0,0,0-4.27,4.419c-.7,1.44-1.787,2.582-2.532,4.022-.447.844-2.085,1.738-2.78,2.433-.546.546-.348,1.936-.844,2.433a2.232,2.232,0,0,0-.2,1.44c.645,1.986,2.631-.794,3.624.2a6.721,6.721,0,0,1,.894,2.185c.05.2-.149,1.043.05,1.142,1.44.7,3.327-1.489,3.674-2.532.05-.149,0-.745.149-.844,1.291-1.291.149-1.341-.894-2.383-.248-.248.149-1.291.248-1.44,1.092-1.092.993-3.475,2.334-4.121.7-.348.943.546.7,1.043-.546,1.142-2.582,3.078-1.241,4.419a6.375,6.375,0,0,0,3.178.894c.149-.05,2.036-.5,1.688-.149-.993.993-2.979.943-4.071,1.986-.546.546.3,3.475-1.142,4.22-.6.3-1.341-.4-2.135-.4-.7,0-2.433.5-2.929.248-.348-.149-.5-1.241-.894-1.043-.546.248-.3.993-.645,1.341a6.369,6.369,0,0,1-1.489.844c-.4.2-.4.993-.7,1.291-.6.6-1.291,1.241-1.887,1.787-.894.894-2.979.447-3.575,1.539-.794,1.589,2.383,2.085,1.092,4.667-.6,1.192-1.986-.4-2.929.05-2.085,1.043-2.135,1.291-2.135,3.873,0,.348-.3.993-.149,1.341a3.064,3.064,0,0,0,4.965.6c.3-.3,1.241-.05,1.539-.4a12.106,12.106,0,0,0,1.688-3.029c.149-.3,0-1.39.2-1.638.149-.149.1.3.05.348-.1.1.348.3.447.2.149-.149,0-.348-.149-.5.248,0,.645-.3.943-.3.4,0,1.043.447,1.44.05.1-.1.894-.794.993-.7s-.1.348-.149.4c.05-.05.4-.3.5-.2.6.6,3.525,3.128,3.773,3.873.348.993-1.192,1.49-.794,2.334.546,1.043,3.078-1.887,2.929-2.979-.248-1.638-2.284-1.837-3.078-2.929-.1-.1-1.192-1.341-.844-1.489.6-.3,1.787.5,2.284.794a5.584,5.584,0,0,1,2.334,1.936c.248.447-.05,1.291.05,1.787.2.993,1.39,3.078,2.383,3.426,1.539.5-.3-3.525,1.341-4.071.3-.1.844.844,1.043,1.043.844.993.993,2.631,2.383,3.178,2.036.794,4.518-2.284,5.064.447.745,3.624-1.837,3.128-4.22,3.624a2.62,2.62,0,0,1-1.241.2c-.894-.2-1.738-.546-2.631-.7-.745-.149-2.582-1.192-3.078-.4-.2.348-.05,1.341-.4,1.539-.6.4-2.085-.794-2.78-.894-2.631-.447-2.036-2.234-3.624-3.426a13.245,13.245,0,0,0-3.277-1.291c-1.043-.4-3.376,1.589-4.32,1.787-.7.2-2.731-.348-2.929-.2a7.671,7.671,0,0,0-1.688,1.887,7.922,7.922,0,0,1-.993,2.532c-.645.645-1.092,1.688-1.887,2.284a12.658,12.658,0,0,0-2.731,2.135c-1.341,1.787-1.241,6.752-.5,8.838a10.329,10.329,0,0,0,1.44,2.234c.447,3.972,4.171,5.908,8.291,5.263,1.291-.2,3.178-1.638,4.419-1.39.894.2.745,1.44,1.291,1.986.745.745,2.929-.794,3.575,1.142.4,1.241-1.837,1.936-1.638,2.979.7,3.426,3.773,3.575,4.419,5.809.6,1.936-2.433,2.085-2.681,4.022-.248,2.185,2.135,3.525,2.433,5.561.248,1.688-.2,4.171.6,5.759.447.844,4.071,2.135,5.064,1.489a28.107,28.107,0,0,0,4.617-3.475c.645-.645.794-2.334,1.489-2.78.447-.3.943.248,1.39-.348.4-.546.348-3.525,1.39-5.213.943-1.539,2.83-.05,3.575-2.681.348-1.192-.844-2.185-.943-3.327a12.8,12.8,0,0,1,1.39-5.759c.447-.645,1.936-1.142,2.631-1.589,1.837-1.241,6.008-5.313,5.461-7.845-.248-1.241-4.617,1.092-6.6-.447-.794-.6-1.291-2.631-1.738-3.475a31.2,31.2,0,0,0-2.085-2.78,18.094,18.094,0,0,1-.7-2.334c-.447-.943-1.44-2.284-.7-3.376.794-1.192,2.284,2.631,2.433,2.88,1.489,2.433,2.036,5.263,3.475,7.4.447.645,1.738,1.986,2.631,1.142.248-.248,1.043-.348,1.39-.546,1.539-.794,7.795-6.008,7.4-7.6-.2-.794-1.44-.5-1.986-.794-.645-.3-.5-1.043-1.043-1.291-.993-.5-1.986.993-3.128.546-.745-.3-2.185-2.929-1.489-3.674.2-.2,1.589,1.39,1.837,1.589.645.5,3.475,1.241,4.419,1.638a15.325,15.325,0,0,0,4.369.943c.5-.1.894-.645,1.39-.546,1.638.4,1.489,2.83,2.631,3.376.546.3,1.589-.943,1.837-.7.447.447-.348,2.631-.149,3.327.348,1.589,1.638,6.057,3.227,6.9.745.4,2.284-1.539,2.532-1.986.3-.645-.05-1.49.1-2.185.3-1.44,3.029-4.617,4.27-5.213.546-.248,1.291-1.638,1.986-1.291,1.688.844,2.085,2.433,2.532,4.27.1.348,1.986.745,2.433,1.241.844.844-.645,3.525-.447,4.717,0,.05,1.936,2.731,2.085,2.88.645.546,1.688-.248,1.638-.248l-.6.2c0-.1,1.241-.348.894-.7-.794-.794-3.376-1.936-2.681-4.022a10.565,10.565,0,0,0,.4-2.036,9.24,9.24,0,0,0,2.383,1.986c.348.248.7.745,1.142.943A67.441,67.441,0,0,0,234.4,84.255a3.013,3.013,0,0,0-.348.7A2.317,2.317,0,0,0,234.5,87.582Zm-8.242,43.741c.1-.2.248-.3.248-.348a5.425,5.425,0,0,1,.844.248,4.209,4.209,0,0,1,0,.794,2.6,2.6,0,0,1-.844.6l-.3-.149-.149-.447A3.1,3.1,0,0,1,226.253,131.323Zm3.575,4.27c-1.539,1.539-3.128.348-5.213.348-.7,0-1.688,1.142-2.334.794-.248-.1-.943-.149-1.043-.6-.2-.745.248-3.773.943-4.071,1.043-.5,1.539,1.043,1.936,1.142a.839.839,0,0,1,.5.149c.2.1.447-.1.6-.1C225.459,133.21,231.119,134.253,229.828,135.593Zm8.639,4.419c-.05.447-.4.5-.745.6a1.277,1.277,0,0,1-.894-.248c-.2-.1-.844-.6-.844-.6l-.6-1.043-.2-1.142a9.554,9.554,0,0,1-.745-1.44c0-.2-.1-1.638-.1-1.638s-.645-.5-.794-.6a2.176,2.176,0,0,1-.348-.943c0-.149.248-1.043.248-1.043s1.142-.794,1.192-.844a3.246,3.246,0,0,1,1.142-.3h.546a3.042,3.042,0,0,1,.149.943,3.189,3.189,0,0,1-.348.794s-.3.348-.2.546a9.941,9.941,0,0,1,.2,1.192c.05.149.894,1.241.894,1.241a11.511,11.511,0,0,1,.7,1.489,9.791,9.791,0,0,1,.3,1.241A4.914,4.914,0,0,1,238.467,140.012Zm2.929-6.4a3.957,3.957,0,0,1-.4-.3c-.05-.05-.447-1.092-.447-1.092l.149-.447c0-.1.149-.248.149-.248l.7.149a7.036,7.036,0,0,1,.546.794c.05.149,0,.5.05.844C242.141,133.657,241.4,133.607,241.4,133.607Zm25.57-11.419s.4,1.092.447,1.291.149,1.192.248,1.589-.546.894-.745.993c-.2.05-.447-.2-.546-.3a4.451,4.451,0,0,1-.1-1.192,21.476,21.476,0,0,0,.1-2.185,2.715,2.715,0,0,0-.2-.993ZM248.943,95.079l.4.2.7.5.645.993s.05,1.39,0,1.539a1.42,1.42,0,0,1-.794.6,4.218,4.218,0,0,1-.943-.447V95.079Z" transform="translate(-127.451 -79.39)" fill="#c5cf83"/>
    <path id="Path_306" data-name="Path 306" d="M258.277,163h-.149c-.149.1-.2.894-.3,1.142-.447,1.092,1.043.993,1.043-.248C258.873,163.4,258.277,163.446,258.277,163Z" transform="translate(-127.451 -79.39)" fill="#c5cf83"/>
    <path id="Path_307" data-name="Path 307" d="M235.786,178.143c-.248-.1-.3.7-.4.844a2.459,2.459,0,0,1-.943.943c-.794.546-3.327,1.638-3.029,2.979a2.179,2.179,0,0,1-.1,1.837c-.3.546-1.092,1.787-.943,2.433.546,2.085,2.482.6,2.979-.6.6-1.44.5-3.029,1.638-4.171,1.539-1.539.794-2.582.794-4.071Z" transform="translate(-127.451 -79.39)" fill="#c5cf83"/>
    <path id="Path_308" data-name="Path 308" d="M248.943,165.383l-.248-4.171a20.575,20.575,0,0,0-.943-4.518C243.333,143.736,234,143.388,228.09,141.3c-5.958-2.135-17.328-5.511-18.867-6.008h-.2c-1.539.447-12.859,3.873-18.867,6.008-5.859,2.085-15.242,2.383-19.661,15.391a21.9,21.9,0,0,0-.943,4.518l-.248,4.171c-.149,8.788,1.887,19.86,4.717,25.321a47.587,47.587,0,0,0,5.511,7.646l2.78,3.128a72.78,72.78,0,0,0,7.547,7.15c4.171,3.227,17.477,10.675,19.165,11.618.05,0,.05.05.1.05s.05-.05.1-.05c1.688-.943,14.994-8.391,19.165-11.618a63.435,63.435,0,0,0,7.547-7.15l2.78-3.128a47.59,47.59,0,0,0,5.511-7.646C247.056,185.243,249.042,174.171,248.943,165.383Z" transform="translate(-127.451 -79.39)" fill="#fff"/>
    <g id="Group_46" data-name="Group 46" transform="translate(86.822 111.895)">
      <path id="Path_309" data-name="Path 309" d="M215.281,195.57a1.021,1.021,0,0,1-.1-2.036l15.491-2.234a1.025,1.025,0,1,1,.248,2.036L215.43,195.57Z" transform="translate(-214.272 -191.285)" fill="#d9d9d9"/>
    </g>
    <g id="Group_47" data-name="Group 47" transform="translate(87.079 106.79)">
      <path id="Path_310" data-name="Path 310" d="M215.132,189.562a.59.59,0,0,1-.6-.5.6.6,0,0,1,.5-.645l15.491-2.234a.576.576,0,0,1,.149,1.142l-15.491,2.234Z" transform="translate(-214.53 -186.18)" fill="#d9d9d9"/>
    </g>
    <g id="Group_48" data-name="Group 48" transform="translate(87.383 100.938)">
      <path id="Path_311" data-name="Path 311" d="M215.132,183.157a.315.315,0,0,1-.3-.248.373.373,0,0,1,.248-.348l15.491-2.234a.3.3,0,0,1,.1.6l-15.54,2.234Z" transform="translate(-214.834 -180.327)" fill="#d9d9d9"/>
    </g>
    <path id="Path_312" data-name="Path 312" d="M276.2,150.289a37.357,37.357,0,0,1-14,10.476c-5.263,2.383-13.5,3.922-13.5,3.922v2.036l16.136-4.568,8.391-5.461,3.178-4.419C276.35,152.325,276.5,149.942,276.2,150.289Z" transform="translate(-127.451 -79.39)" fill="#575756" opacity="0.7"/>
    <path id="Path_313" data-name="Path 313" d="M269.945,175.809l-.7,4.468-5.511,4.518-11.37,3.724-7.447.149.894-2.383C245.865,186.335,261.6,184.7,269.945,175.809Z" transform="translate(-127.451 -79.39)" fill="#575756" opacity="0.7"/>
    <ellipse id="Ellipse_50" data-name="Ellipse 50" cx="82.269" cy="12.661" rx="82.269" ry="12.661" transform="translate(0 150.339)" opacity="0.35" fill="url(#radial-gradient)"/>
    <path id="Path_314" data-name="Path 314" d="M173.227,150.041c-10.029,13.405-9.036,50.345,22.64,63.005C211.408,219.253,189.463,128.394,173.227,150.041Z" transform="translate(-127.451 -79.39)" fill="#575756" opacity="0.65"/>
    <path id="Path_315" data-name="Path 315" d="M141.65,150.488a38.326,38.326,0,0,0,14.2,10.675c5.263,2.383,13.5,3.922,13.5,3.922v2.036l-16.136-4.568-8.391-5.461-3.178-4.419C141.65,152.722,141.3,150.14,141.65,150.488Z" transform="translate(-127.451 -79.39)" fill="#575756" opacity="0.7"/>
    <path id="Path_316" data-name="Path 316" d="M148.353,176.256l.7,4.468,5.511,4.518,11.37,3.724,7.447.149-.894-2.383C172.433,186.732,156.694,185.094,148.353,176.256Z" transform="translate(-127.451 -79.39)" fill="#575756" opacity="0.7"/>
    <path id="Path_317" data-name="Path 317" d="M209.223,135.3h-.2c-1.539.447-12.859,3.873-18.867,6.008-5.859,2.085-15.242,2.383-19.661,15.391a21.9,21.9,0,0,0-.943,4.518l-.248,4.171c-.149,8.788,1.887,19.86,4.717,25.321a47.587,47.587,0,0,0,5.511,7.646l2.78,3.128a72.78,72.78,0,0,0,7.547,7.15c4.171,3.227,17.477,10.675,19.165,11.618.05,0,.05.05.1.05s.1,0,.1-.05C209.223,207.337,209.223,150.339,209.223,135.3Z" transform="translate(-127.451 -79.39)" fill="#ececec"/>
    <g id="Group_49" data-name="Group 49" transform="translate(59.973 111.906)">
      <path id="Path_318" data-name="Path 318" d="M203.961,195.57h-.149l-15.491-2.234a1.025,1.025,0,1,1,.248-2.036l15.491,2.234a1.081,1.081,0,0,1,.894,1.142A.976.976,0,0,1,203.961,195.57Z" transform="translate(-187.423 -191.296)" fill="#d9d9d9"/>
    </g>
    <g id="Group_50" data-name="Group 50" transform="translate(60.268 106.79)">
      <path id="Path_319" data-name="Path 319" d="M203.812,189.562h-.1l-15.491-2.234a.576.576,0,0,1,.149-1.142l15.491,2.234a.6.6,0,0,1,.5.645A.51.51,0,0,1,203.812,189.562Z" transform="translate(-187.719 -186.18)" fill="#d9d9d9"/>
    </g>
    <g id="Group_51" data-name="Group 51" transform="translate(60.573 100.938)">
      <path id="Path_320" data-name="Path 320" d="M203.812,183.157h0l-15.54-2.234c-.149,0-.248-.149-.248-.348,0-.149.149-.248.348-.248l15.491,2.234c.149,0,.248.149.248.348A.315.315,0,0,1,203.812,183.157Z" transform="translate(-188.023 -180.327)" fill="#d9d9d9"/>
    </g>
    <path id="Path_321" data-name="Path 321" d="M226.055,156s-12.959-6.752-16.931-6.752c-3.922,0-16.931,6.752-16.931,6.752s-3.773.993-1.787-2.631c1.887-3.426,14.746-8.689,18.668-8.689,4.32,0,16.782,5.263,18.668,8.689C229.828,156.992,226.055,156,226.055,156Z" transform="translate(-127.451 -79.39)" fill="#b1b1b1"/>
    <g id="Group_52" data-name="Group 52" transform="translate(44.287 58.587)">
      <path id="Path_322" data-name="Path 322" d="M209.124,217.664a.92.92,0,0,1-.348-.1h0c-.3-.2-.993-.546-1.887-1.043a.434.434,0,1,1,.447-.745c.794.447,1.44.794,1.787.993l.844-.447a.434.434,0,0,1,.447.745l-.943.546C209.372,217.614,209.273,217.664,209.124,217.664Zm-.3-.1Zm4.369-2.234a.613.613,0,0,1-.4-.2.46.46,0,0,1,.149-.6c.943-.546,1.936-1.142,3.029-1.738a.434.434,0,1,1,.447.745c-1.092.645-2.085,1.192-3.029,1.738C213.344,215.33,213.295,215.33,213.2,215.33Zm-9.086-.546c-.1,0-.149,0-.2-.05-.943-.546-1.986-1.142-3.029-1.738a.434.434,0,0,1,.447-.745c1.043.6,2.085,1.192,3.029,1.738a.416.416,0,0,1,.149.6A.452.452,0,0,1,204.11,214.784Zm15.143-2.979a.613.613,0,0,1-.4-.2.416.416,0,0,1,.149-.6q1.638-.968,2.979-1.787a.434.434,0,0,1,.447.745c-.894.546-1.887,1.142-2.979,1.837Zm-21.151-.546a.448.448,0,0,1-.248-.05c-1.092-.645-2.085-1.291-2.979-1.837a.434.434,0,0,1,.447-.745c.844.546,1.837,1.142,2.979,1.837a.425.425,0,0,1,.149.6A.418.418,0,0,1,198.1,211.259Zm27.059-3.128a.332.332,0,0,1-.348-.2.405.405,0,0,1,.1-.6c.745-.5,1.39-.943,1.837-1.291.3-.2.6-.5.943-.745a.423.423,0,0,1,.546.645c-.348.3-.645.546-.943.794-.5.348-1.092.794-1.887,1.341A.448.448,0,0,1,225.161,208.131Zm-32.967-.6a.379.379,0,0,1-.248-.1c-.348-.248-.7-.5-.943-.7-.546-.4-1.142-.943-1.787-1.489a.458.458,0,0,1,.6-.7c.645.546,1.241,1.043,1.738,1.44.248.2.6.447.943.7a.412.412,0,0,1,.1.6A.506.506,0,0,1,192.194,207.535Zm38.329-3.823a.354.354,0,0,1-.3-.149.522.522,0,0,1,0-.645c.794-.745,1.638-1.589,2.433-2.433a.456.456,0,1,1,.645.645c-.844.894-1.688,1.688-2.482,2.482C230.771,203.712,230.672,203.712,230.523,203.712Zm-43.592-.745a.429.429,0,0,1-.3-.149c-.794-.794-1.638-1.638-2.433-2.482a.456.456,0,1,1,.645-.645c.794.844,1.638,1.688,2.433,2.482a.464.464,0,0,1,0,.645A.451.451,0,0,1,186.931,202.968Zm48.408-4.27a.706.706,0,0,1-.3-.1.464.464,0,0,1-.05-.645l1.241-1.39c.348-.4.7-.844,1.043-1.241a.423.423,0,1,1,.645.546c-.348.4-.7.844-1.043,1.241l-1.241,1.39A.272.272,0,0,1,235.339,198.7Zm-53.125-.844a.536.536,0,0,1-.348-.149l-.5-.546c-.6-.745-1.192-1.44-1.738-2.135a.427.427,0,1,1,.7-.5c.546.7,1.092,1.39,1.688,2.085l.5.546a.468.468,0,0,1-.05.645A.372.372,0,0,1,182.214,197.854Zm57.544-4.568a.379.379,0,0,1-.248-.1.412.412,0,0,1-.1-.6,32.872,32.872,0,0,0,1.837-2.88.444.444,0,0,1,.794.4,22.034,22.034,0,0,1-1.887,2.979A.594.594,0,0,1,239.758,193.286Zm-61.863-.894a.332.332,0,0,1-.348-.2,18.952,18.952,0,0,1-1.341-2.234,4.4,4.4,0,0,1-.4-.844.444.444,0,0,1,.794-.4c.149.3.248.546.4.794a22.246,22.246,0,0,0,1.291,2.135.405.405,0,0,1-.1.6A.3.3,0,0,1,177.895,192.392Zm65.091-5.213a.182.182,0,0,1-.149-.05.4.4,0,0,1-.248-.546c.348-.993.7-2.135.993-3.277a.44.44,0,1,1,.844.248,29.987,29.987,0,0,1-1.043,3.376A.473.473,0,0,1,242.985,187.179Zm-68.02-1.043a.378.378,0,0,1-.4-.3c-.348-1.043-.645-2.185-.943-3.376a.458.458,0,1,1,.894-.2c.3,1.192.6,2.284.894,3.327a.428.428,0,0,1-.3.546Zm69.807-5.71h-.1a.432.432,0,0,1-.348-.5q.3-1.638.6-3.426a.429.429,0,1,1,.844.149c-.149,1.192-.348,2.334-.6,3.475C245.17,180.278,244.971,180.427,244.773,180.427Zm-71.446-1.092a.477.477,0,0,1-.447-.348c-.2-1.142-.4-2.284-.546-3.475a.45.45,0,1,1,.894-.1c.149,1.142.348,2.284.546,3.426a.409.409,0,0,1-.348.5Zm72.439-5.809h0a.485.485,0,0,1-.447-.5c.1-1.192.2-2.334.248-3.475a.423.423,0,0,1,.844.05c-.05,1.142-.149,2.334-.248,3.475C246.163,173.376,246.014,173.525,245.766,173.525Zm-73.382-1.092a.477.477,0,0,1-.447-.4c-.1-1.192-.149-2.383-.2-3.525a.447.447,0,1,1,.894,0c.05,1.092.1,2.284.2,3.475.05.248-.149.447-.447.447Zm73.68-5.71a.438.438,0,0,1-.447-.4l-.2-3.475a.423.423,0,1,1,.844-.05l.2,3.475c.05.2-.1.4-.4.447Zm-73.779-1.241h0a.48.48,0,0,1-.447-.447l.149-2.631c.05-.3.05-.6.1-.844a.45.45,0,1,1,.894.1c-.05.248-.05.546-.1.794l-.149,2.631A.435.435,0,0,1,172.284,165.482Zm73.035-5.71a.477.477,0,0,1-.447-.348,7.674,7.674,0,0,0-.348-1.142,20.3,20.3,0,0,0-.794-2.085.456.456,0,0,1,.844-.348c.3.7.6,1.39.844,2.135a8.352,8.352,0,0,1,.348,1.192.469.469,0,0,1-.3.546A.384.384,0,0,1,245.319,159.772Zm-71.992-1.142h-.149a.474.474,0,0,1-.3-.546,28.185,28.185,0,0,1,1.341-3.277.444.444,0,1,1,.794.4,20.238,20.238,0,0,0-1.291,3.178A.442.442,0,0,1,173.327,158.63Zm69.212-5.164a.332.332,0,0,1-.348-.2,16.224,16.224,0,0,0-2.085-2.631.456.456,0,0,1,.645-.645,19.966,19.966,0,0,1,2.185,2.78.416.416,0,0,1-.149.6A.839.839,0,0,1,242.538,153.467Zm-66.084-.993a.379.379,0,0,1-.248-.1.412.412,0,0,1-.1-.6,17.282,17.282,0,0,1,2.383-2.631.458.458,0,1,1,.6.7,18.061,18.061,0,0,0-2.284,2.482A.741.741,0,0,1,176.455,152.474Zm61.218-3.972a.448.448,0,0,1-.248-.05,16.929,16.929,0,0,0-2.979-1.589.456.456,0,1,1,.348-.844,18.717,18.717,0,0,1,3.128,1.688.412.412,0,0,1,.1.6A.332.332,0,0,1,237.673,148.5Zm-56.054-.645a.506.506,0,0,1-.4-.248.46.46,0,0,1,.149-.6,24.3,24.3,0,0,1,3.227-1.489.424.424,0,1,1,.3.794,25.77,25.77,0,0,0-3.078,1.39A.185.185,0,0,1,181.618,147.857Zm49.749-2.135h-.149c-.6-.2-1.142-.348-1.738-.5l-1.638-.447a.44.44,0,0,1,.248-.844c.5.149,1.043.3,1.589.447s1.142.3,1.738.5a.428.428,0,0,1,.3.546A.328.328,0,0,1,231.367,145.722Zm-43.245-.348a.571.571,0,0,1-.447-.3.428.428,0,0,1,.3-.546l.546-.149c.993-.248,1.887-.546,2.731-.844a.424.424,0,1,1,.3.794c-.894.3-1.787.546-2.78.844l-.546.149A.154.154,0,0,1,188.122,145.374Zm36.542-1.688h-.149c-.993-.348-2.085-.7-3.327-1.092a.44.44,0,0,1,.248-.844c1.241.4,2.334.745,3.327,1.092a.474.474,0,0,1,.3.546C225.062,143.537,224.863,143.686,224.664,143.686Zm-29.939-.4a.378.378,0,0,1-.4-.3.4.4,0,0,1,.3-.546c1.043-.348,2.185-.7,3.327-1.092a.428.428,0,0,1,.546.3.4.4,0,0,1-.3.546c-1.142.348-2.234.745-3.327,1.092Zm23.335-1.787h-.149c-1.142-.348-2.284-.7-3.327-1.043a.44.44,0,1,1,.248-.844c1.043.348,2.185.7,3.327,1.043a.428.428,0,0,1,.3.546A.378.378,0,0,1,218.061,141.5Zm-16.682-.348a.378.378,0,0,1-.4-.3.428.428,0,0,1,.3-.546c1.192-.348,2.334-.745,3.327-1.043a.44.44,0,0,1,.248.844c-.993.3-2.135.645-3.327,1.043Zm10.029-1.688h-.149c-1.043-.3-1.787-.546-2.135-.645a9.1,9.1,0,0,0-.943.3.44.44,0,1,1-.248-.844q.745-.223,1.043-.3h.4c.348.1,1.142.348,2.185.645a.428.428,0,0,1,.3.546A.571.571,0,0,1,211.408,139.466Z" transform="translate(-171.738 -137.976)" fill="#d9d9d9"/>
    </g>
    <path id="Path_323" data-name="Path 323" d="M206.443,148.9a1.327,1.327,0,0,1-1.241-.894,1.307,1.307,0,0,1,.794-1.688,11.111,11.111,0,0,1,3.128-.6,9.916,9.916,0,0,1,2.83.6,1.319,1.319,0,1,1-.894,2.482,8.042,8.042,0,0,0-1.887-.447,7.359,7.359,0,0,0-2.284.447A.907.907,0,0,1,206.443,148.9Z" transform="translate(-127.451 -79.39)" fill="#d9d9d9" opacity="0.56"/>
    <g id="Group_53" data-name="Group 53" transform="translate(13.11 71.098)">
      <path id="Path_324" data-name="Path 324" d="M173.327,172.135a69.387,69.387,0,0,1-13.7-3.674,50.183,50.183,0,0,1-17.03-10.129h0a5.109,5.109,0,0,1-1.986-5.064,14.49,14.49,0,0,1,1.092-2.78c9.483,14.051,31.081,17.079,31.329,17.079Z" transform="translate(-140.56 -150.488)" fill="#d9d9d9"/>
    </g>
    <path id="Path_325" data-name="Path 325" d="M179.483,192.938c-.1,0-.894.05-2.234.05a50.818,50.818,0,0,1-10.426-1.142,44.188,44.188,0,0,1-11.519-4.27s-3.773-.993-6.7-5.66a6.413,6.413,0,0,1-.2-5.66c11.32,13.753,28.6,12.164,28.8,12.164Z" transform="translate(-127.451 -79.39)" fill="#d9d9d9"/>
    <g id="Group_54" data-name="Group 54" transform="translate(117.223 70.701)">
      <path id="Path_326" data-name="Path 326" d="M244.673,171.738a69.387,69.387,0,0,0,13.7-3.674,50.183,50.183,0,0,0,17.03-10.129h0a5.109,5.109,0,0,0,1.986-5.064,14.49,14.49,0,0,0-1.092-2.78c-9.483,14.051-31.081,17.079-31.329,17.079Z" transform="translate(-244.673 -150.091)" fill="#ececec"/>
    </g>
    <path id="Path_327" data-name="Path 327" d="M238.815,192.492c.1,0,.894.05,2.234.05a50.817,50.817,0,0,0,10.426-1.142,44.187,44.187,0,0,0,11.519-4.27s3.773-.993,6.7-5.66a6.413,6.413,0,0,0,.2-5.66c-11.32,13.753-28.6,12.164-28.8,12.164Z" transform="translate(-127.451 -79.39)" fill="#ececec"/>
  </g>
</svg>
